<svg xmlns="http://www.w3.org/2000/svg" xmlns:xlink="http://www.w3.org/1999/xlink" width="614.056" height="616.47" viewBox="0 0 614.056 616.47">
  <defs>
    <clipPath id="clip-path">
      <path id="Path_1269" data-name="Path 1269" d="M345.3,548.7l-.1-15.8,90.1-52v15.8Z"/>
    </clipPath>
  </defs>
  <g id="XMLID_1_" transform="translate(1.961 -88.058)">
    <g id="XMLID_3_">
      <g id="XMLID_180_">
        <g id="XMLID_447_">
          <path id="XMLID_1771_" d="M453.2,226.4s-6,17.1-9,23.4c-2.9,6.4-2.9,19.7-2.7,27.5s13,15.4,13,15.4,4.6-25.8,6.2-30.8,8.9-18.9,8.9-18.9S464.7,229,453.2,226.4Z" fill="#c15a2a"/>
          <g id="XMLID_477_">
            <path id="XMLID_488_" d="M453.4,459.7s-4.2,4.5-9.7,10c-5.2,5-6.8,6.5-11.5,11.1-2.8,2.7-.5,5.2,4.8,5,4.7-.2,15.3-2.5,21.2-4.6,4.2-1.5,11.9-5.8,15.9-8.3a10.735,10.735,0,0,0,4.7-6v-8.4Z" fill="#2d2e2d"/>
            <path id="XMLID_486_" d="M529.6,452.3a72.644,72.644,0,0,1-8.2,9.3c-5.2,5-6.7,7-11.2,13-1,1.4-1.6,5.3,3.7,5.1,4.7-.2,11.8-2.2,17.8-4.3,6.8-2.4,12.5-9.2,16.5-11.7,3.9-2.5,5.7-8,5.7-8l-2.7-8.3Z" fill="#2d2e2d"/>
            <path id="XMLID_485_" d="M527.5,316.2c2-30.8-15-47-15-47,1.4-10.4-46.8,4.1-46.8,4.1s-10.3,55.8-14.7,85.1c-4.9,33.4-2,101.3-2,101.3s.6,7.3,13.1,7.2c9.5,0,16.6-8.4,16.6-8.4l1-77.4,11.1-54.9s10.6,44.6,14,60.6c3.6,17,17.3,67.4,17.3,67.4s8.9,10.2,20,4.7,8.9-11.7,8.9-11.7-2.2-35.7-16.4-67.7C533.4,355.4,526.6,330.3,527.5,316.2Z" fill="#702f26"/>
            <path id="XMLID_484_" d="M476,190.8s-8.1-3.1-16,11.9a185.1,185.1,0,0,0-11.8,28.7s10.3,1.5,21.6,11.8C485.1,229.2,487.6,197.3,476,190.8Z" fill="#e59e24"/>
            <path id="XMLID_483_" d="M474.7,190.4a83.515,83.515,0,0,0-9.8,23.2c-3.6,13.6-2.3,76.9-2.3,76.9s14.7,10.4,39.2,8.3c14.6-1.2,22.1-10.3,22.1-10.3s9.5-66.8,8.3-75.7-20.5-24.9-20.5-24.9S489.5,184.6,474.7,190.4Z" fill="#febe2b"/>
            <g id="XMLID_478_">
              <path id="XMLID_482_" d="M489.1,183.9l-2.9,16.6s8.5,9.5,16.8,2.4,9.5-10.4,9.5-10.4l-4.1-22.7Z" fill="#c15a2a"/>
              <path id="XMLID_480_" d="M500.8,144.9c-7.1-5.4-23.8-7.1-30,10.2-6.4,18.2,10,40.8,18.8,37,4.9-2.2,15.2-9.8,18.1-19.4C511,161.9,506.3,149.1,500.8,144.9Z" fill="#d77745"/>
              <path id="XMLID_479_" d="M469.4,160.9c2.9,3,7.2,6.3,16,4.8a35.644,35.644,0,0,0,12.3-4.5l1.5,9.6a10.809,10.809,0,0,0,2.5-.9c.1-3.8,1.5-5,3.6-3.9,2.4,1.3,2.5,6.7,2.5,6.7a19.828,19.828,0,0,0,4.7-17.8c-1.5-6.8-10.6-20.1-23.4-18.9-12.7,1.2-20.1,9.6-21.7,16.9A9.127,9.127,0,0,0,469.4,160.9Z" fill="#2d2e2d"/>
            </g>
          </g>
          <g id="XMLID_451_">
            <g id="XMLID_461_">
              <path id="XMLID_476_" d="M442.3,243.9c-.9-.5-1.8-.9-2.6-1.3l-24.4,14.1,1.4,2.9c-.1,1.2-.2,2.5-.2,3.8v.4l29.7-17.1A17.482,17.482,0,0,0,442.3,243.9Z" fill="#e59e24"/>
              <path id="XMLID_475_" d="M442.3,312.5c.3.2.7.3,1,.5l2.5,5,19.6-11.3a28.111,28.111,0,0,0,2.5-9.4l-25.9,15A1.436,1.436,0,0,1,442.3,312.5Z" fill="#e59e24"/>
              <path id="XMLID_474_" d="M425.4,242.6h0l-13.3,7.6,1.8,3.6,21.8-12.6A13.386,13.386,0,0,0,425.4,242.6Z" fill="#e59e24"/>
              <path id="XMLID_473_" d="M440.9,296.3l25.9-14.9a57.48,57.48,0,0,0-2-7.1l-19.5,11.3-3.1-1.8,21.5-12.4c-.9-2.2-1.8-4.3-2.9-6.4l-24.9,14.4-3.1-1.8,26.5-15.3a57.931,57.931,0,0,0-3.8-5.8l-29,16.7-3.1-1.8L453.6,254a48.5,48.5,0,0,0-4.9-5.2L417.2,267l-.6-.3c1.1,16.7,10.5,34.9,22.4,43.8l29-16.7v-.5a59.484,59.484,0,0,0-.7-8.4L444,298.1Z" fill="#e59e24"/>
              <path id="XMLID_472_" d="M410.9,255.6l3.1,1.8,1.3-.8-1.4-2.8Z" fill="#ffd884"/>
              <path id="XMLID_471_" d="M435.8,241.2,414,253.8l1.4,2.8,24.4-14.1A30.515,30.515,0,0,0,435.8,241.2Z" fill="#ffd884"/>
              <path id="XMLID_470_" d="M414.1,265.1l2.5,1.5a28.1,28.1,0,0,1-.1-2.9Z" fill="#ffd884"/>
              <path id="XMLID_469_" d="M448.8,248.7a23.212,23.212,0,0,0-2.5-2.1l-29.7,17.1a28.1,28.1,0,0,0,.1,2.9l.6.3Z" fill="#ffd884"/>
              <path id="XMLID_468_" d="M426.6,273.1l29-16.7c-.6-.9-1.3-1.7-1.9-2.5l-30.2,17.4Z" fill="#ffd884"/>
              <path id="XMLID_467_" d="M435.9,279.3l24.9-14.4-1.5-2.7-26.5,15.3Z" fill="#ffd884"/>
              <path id="XMLID_466_" d="M445.2,285.5l19.5-11.3c-.3-1-.7-2-1.1-3l-21.5,12.4Z" fill="#ffd884"/>
              <path id="XMLID_465_" d="M440.9,296.3l3.1,1.8,23.4-13.5c-.2-1.1-.4-2.2-.6-3.2Z" fill="#ffd884"/>
              <path id="XMLID_464_" d="M429,316.1l3.1,1.8,9.8-5.7c-1-.6-1.9-1.2-2.9-1.9Z" fill="#ffd884"/>
              <path id="XMLID_463_" d="M441.9,312.3l25.9-15c.1-1.2.2-2.4.2-3.7l-29,16.7C440,311,440.9,311.7,441.9,312.3Z" fill="#ffd884"/>
              <path id="XMLID_462_" d="M447.1,320.7l10.9-6.3a15.455,15.455,0,0,0,7.4-7.7L445.8,318Z" fill="#ffd884"/>
            </g>
            <g id="XMLID_455_">
              <path id="XMLID_460_" d="M403.7,270.7c0,19,11.5,41,25.7,49.2s25.7-.5,25.7-19.5-11.5-41-25.7-49.2S403.7,251.8,403.7,270.7Z" fill="#febe2b"/>
              <g id="XMLID_456_">
                <path id="XMLID_457_" d="M437.9,317.7a17.093,17.093,0,0,1-8.9-2.8c-11.9-7-21.8-25.8-21.9-41.8h0c-.1-8.6,2.7-15.1,7.5-17.9,4.1-2.3,9.3-1.9,14.6,1.3,11.9,7,21.8,25.8,21.9,41.8.1,8.6-2.7,15.1-7.5,17.9A10.371,10.371,0,0,1,437.9,317.7Zm-17.7-62.3a8.987,8.987,0,0,0-4.9,1.3c-4.4,2.5-6.9,8.6-6.8,16.6h0c.2,15.5,9.7,33.7,21.2,40.5,4.9,2.9,9.5,3.3,13.1,1.3,4.4-2.5,6.9-8.6,6.8-16.6-.2-15.5-9.7-33.7-21.2-40.5A15.668,15.668,0,0,0,420.2,255.4Z" fill="#e59e24"/>
              </g>
            </g>
            <g id="XMLID_452_">
              <path id="XMLID_453_" d="M432.9,280c-1.1-2.1-2-3.4-3.2-4.2-1.4-.8-2.2-.4-2.2,1.7,0,4.3,7.8,8.5,7.8,17.2,0,4.4-1.6,6.9-4.6,6.1v4.8l-2.9-1.7v-4.6a19.787,19.787,0,0,1-5.2-6.5l1.9-3.4c1.5,2.6,2.8,4.3,4.2,5.1,1.7,1,2.4.3,2.4-1.8,0-4.7-7.8-9.1-7.8-17.4,0-4.5,1.7-6.6,4.5-5.8v-4.7l2.9,1.7v4.6a16.234,16.234,0,0,1,4.4,6.3Z" fill="#fff"/>
            </g>
          </g>
          <path id="XMLID_450_" d="M514.7,240.5s-.4,21.3-.8,30c-.1,2.2-.6,6.2-6,10-4.7,3.3-29.6,15.7-33,16.3-6.5,1.1-15.5,1.2-18,.1-3.8-1.7-4.7,1.1-1.4,3.9a9.045,9.045,0,0,0,3.8,1.3s-6.4,4.4-11.6,6.2c-5.8,2-4.9,8.6,4.2,9.8,8.3,1.1,19.5-4.7,22.8-6.2.8-.4,41.9-15.1,46.3-17.3,5.2-2.6,10.9-14.2,13.1-23.7a240.158,240.158,0,0,0,4.2-28.2Z" fill="#d77745"/>
          <path id="XMLID_449_" d="M525.5,199.6c-6.4-2-10.7,11.5-13.1,21.9-2.3,10.4-.7,23.2-.7,23.2a30.029,30.029,0,0,0,13.8,2.4c6.7-.5,17.2-4.5,17.2-4.5S547.3,206.5,525.5,199.6Z" fill="#e59e24"/>
          <path id="XMLID_448_" d="M402.4,264.4c-3.6,1.2-4.1,14.4,1.1,17.7s7-5.4,6.1-10.1S407.1,262.9,402.4,264.4Z" fill="#c15a2a"/>
        </g>
        <g id="XMLID_381_">
          <g id="XMLID_417_">
            <path id="XMLID_445_" d="M263.8,113.8c.2,0,.3.1.4.1a.247.247,0,0,1,.4.1c2.6,2.9,7.9,5.6,8.1,10,.1,1.8-4.2,4.7-4.8,6.6-.8,2.3,1.8,3.6,2.7,4.6,1.3,1.5,4.5,4.6-3.3,9.5-5.3,3.3.7,8-6,9.3-11.1,2-17.2-5.3-17.8-16.2C242.9,127.7,253.1,113.1,263.8,113.8Z" fill="#2d2e2d"/>
            <path id="XMLID_444_" d="M257.7,140.6a20.287,20.287,0,0,1,12.4,2.4c6,3.5,21.3,28.8,24.6,34.2,3.3,5.3,20.6,17.1,20.6,32.3,0,2.7-10.6-.6-10.6-.6s-19.3-16.1-28.1-26.5c-5.2-6.2-5.5-8.4-6.2-9.6C268.4,169.5,257.7,140.6,257.7,140.6Z" fill="#fbc3b2"/>
            <path id="XMLID_443_" d="M278.4,252.6s9,48.7,11.4,54.7.4,9.4-2.7,23-5.7,37-6.7,46.9c-.9,9.2-.7,19.5,2.7,22.9s21,11.3,17.7,13.9-12.8,5.6-17.7,1.5-9.6-5.2-13-6.9c-3.8-2-5.3-5.2-2.3-17.3,2.6-10.5-4.1-40.3-4.1-55.7,0-9.7,2.7-19.1,2.7-19.9C266,307.4,253.4,289.4,278.4,252.6Z" fill="#fbc3b2"/>
            <path id="XMLID_442_" d="M248.4,306.4s-2.4,37.9-4.2,44.8-8.9,43.8-9.5,49.9c-.9,8.4.4,16.5,0,22.7-.3,4.7-1.6,23.1-12.8,17.7-7.6-3.7-2.9-18.3-.6-25.7.9-2.8,3.7-9.5,3.2-17.9-.8-15-2.1-21.3-1.1-34.8a176.119,176.119,0,0,0-.5-24.1c-1.4-15.3-4.2-32.1-2.3-35.6C224,297.4,248.4,306.4,248.4,306.4Z" fill="#fbc3b2"/>
            <path id="XMLID_441_" d="M225.3,235.4s-5.3,9.2-9,24.5c-3,12.6,3.7,34.5,3.6,41.4s.8,22.4.8,22.4,4.8,4.8,14.4,4.8c6.2,0,12.9-5.6,12.9-5.6l5.6-48s5.2,22.2,6.6,26.3a133.222,133.222,0,0,0,5.6,13s5.3,2.1,14.6-.7c3.2-1,9.3-6.7,9.3-6.7l-14.1-65.6C275.4,241.3,243.2,247.5,225.3,235.4Z" fill="#2d2e2d"/>
            <g id="XMLID_438_">
              <path id="XMLID_440_" d="M250.6,165.9c-7.3-2.5-12.4-14.1-14.3-19.2a2.186,2.186,0,0,1,.3-.5c2.3-6.4.8-15.6.8-15.6l16.1,4.4c.2,3.6.2,7.2,2.2,9.3a6.437,6.437,0,0,0,2.6,1.6,82.644,82.644,0,0,1,6,15C265.4,165.6,257.7,168.4,250.6,165.9Z" fill="#f79d8b"/>
              <path id="XMLID_439_" d="M274.4,165.4c2,4.3,4.2,9.7-.7,18.3-2.1,9.2-1,12.4-.8,23.5.1,10.8,5.8,30.1,5.8,30.1S275,247,259.3,248s-37.9-8.6-37.9-8.6,12.4-25.2,10.1-34.4c-4.8-19.3-6.4-23.5-7.5-26.6a45.582,45.582,0,0,1-2-22.7s12.6-5.7,15-10.1c1.9,5.1,6.1,16.7,13.3,19.2,7,2.5,11.4-2.3,10.2-7-.9-3.5-3.4-7-5-10.6a27.392,27.392,0,0,1-1.8-6.1c1-.1,1.5-.9,2.9-.8,1,.1,2.2-.1,3.1,0C261,142.6,270.3,156.8,274.4,165.4Z" fill="#ea2f43"/>
            </g>
            <path id="XMLID_437_" d="M224.1,233.4s19.9,6.7,28.4,6.5c8.5-.3,20.9-3.2,20.9-3.2v-5.9s-14.7,2.7-22,2.7-24.9-5.7-24.9-5.7Z" fill="#fff"/>
            <path id="XMLID_436_" d="M230,217.7s15.9,3.8,22.6,4.5,20.9-.6,20.9-.6V217a205.3,205.3,0,0,1-20.9.2c-7.3-.3-21.5-3.9-21.5-3.9Z" fill="#fff"/>
            <path id="XMLID_435_" d="M231.5,205s19.4.7,26.6.3a108.086,108.086,0,0,0,14.7-1.8l-.3-6.4s-5.6,1.9-15.3,1.9c-8.4,0-27.3.1-27.3.1Z" fill="#fff"/>
            <path id="XMLID_434_" d="M231.1,186.2s18.5-3,27-2.6c8.4.4,15.6.1,15.6.1a27.588,27.588,0,0,0,2.6-6.2c-4.2,0-11,1-19.3.5s-25,1.9-25,1.9Z" fill="#fff"/>
            <path id="XMLID_433_" d="M231.4,170.1l18.2-5.5-3.9-2.9L230.5,166Z" fill="#fff"/>
            <path id="XMLID_432_" d="M260.7,159.1l-.9,3.8,14.6,2.5-2.4-5.1Z" fill="#fff"/>
            <g id="XMLID_428_">
              <path id="XMLID_431_" d="M261.4,103.8c7.6,8,4.6,35.4-6.7,37.3-7.3,1.2-17.5-5.3-21.2-18C230.4,112.4,246.9,88.8,261.4,103.8Z" fill="#fbc3b2"/>
              <path id="XMLID_429_" d="M218.9,129.7c1.3-2,.3-4.7-.3-6.5-1.6-5.3-1.3-7.8,3.8-11.2,2.6-1.7,3.7-12.1,4.7-13.9,2.7-4.7,5-9.7,12.4-5.6,1.8-4.4,8.2-6.5,18.5-1.7,2.9,1.3,4.9,5.4,5.9,8.2,1.9,5.5,3.8,7.1,9.4,8.6-.9,2-4.1,6.2-8.5,4.1-5.3-2.5-15.6,2.8-21.5,1.9-1.6,1.6-2.1,4.1-3,6.5-6.2-4-6.9,3-3.4,6.7,1.4,7.8,4.6,20.3,1.9,23.5-7,8.2-7.5,2.4-14.2,4.2-3.5,1-6.3.9-6.6-4-.2-4.1,6-6.6,2.6-11.1-1.5-2-3.4-.8-4.4-3.8C215.5,132.6,218.6,130.2,218.9,129.7Z" fill="#2d2e2d"/>
            </g>
            <g id="XMLID_421_">
              <path id="XMLID_427_" d="M294.5,219.1l-3.7,28.5H271l-3.7-28.5Z" fill="#f26768"/>
              <ellipse id="XMLID_426_" cx="9.9" cy="5.3" rx="9.9" ry="5.3" transform="translate(271 242.3)" fill="#f26768"/>
              <ellipse id="XMLID_425_" cx="13.6" cy="7.2" rx="13.6" ry="7.2" transform="translate(267.3 211.9)" fill="#f48a8b"/>
              <g id="XMLID_422_">
                <path id="XMLID_424_" d="M270.5,222.1a4.255,4.255,0,0,1-1.7-3c0-3.3,5.4-5.9,12.1-5.9s12.1,2.7,12.1,5.9a3.931,3.931,0,0,1-1.7,3c-2.1-1.8-6-3-10.5-3C276.4,219.1,272.6,220.3,270.5,222.1Z" fill="#f26768"/>
                <path id="XMLID_423_" d="M270.5,222.1c2.1-1.8,6-3,10.5-3s8.3,1.2,10.5,3c-2.1,1.8-6,3-10.5,3C276.4,225.1,272.6,223.9,270.5,222.1Z" fill="#fff"/>
              </g>
            </g>
            <path id="XMLID_420_" d="M211.2,210.3c0-1.8,1.6-12.7,2.2-31.3.4-12.6,2.3-21,6.6-24.4a9.7,9.7,0,0,0,5.6-.3c2.6,3.3,5.6,12.1,6.2,20.1a46.6,46.6,0,0,1-2,16.6c-.5,1.8-1.5,16-1.9,20.2,6.6,3.2,16.2,8,18.6,9.2,5.1,2.8,24.5,13.6,30.9,12.9,13.8-1.3,18.3,7.1,9.6,12.8-6.7,4.5-14.5,2.6-23.2-5.2-.5-.5-10.8-4.9-19.9-7.6-11.1-3.3-25.7-7.1-31-14C211.8,217.5,211.2,212.4,211.2,210.3Z" fill="#fbc3b2"/>
            <path id="XMLID_419_" d="M266.4,396.7s1.5,6.2,11.6,11.4c7.8,4,11.9,4.9,16.3,3.4l4.3-1.5a30.461,30.461,0,0,1,6.6,3.6c2.7,2,.8,3.2-7.6,5.3s-14.5-1.6-19.5-5.3c-4.9-3.7-9.5-3.1-11.6-5.5C263,404,266.4,396.7,266.4,396.7Z" fill="#2d2e2d"/>
            <path id="XMLID_418_" d="M234.6,423.8s-.4,12.5-4.2,16.4-11.5,2.4-13.5-4.4,1.4-9.4,1.4-9.4,2.5,7.9,7.1,7.6C229.9,433.7,234.6,423.8,234.6,423.8Z" fill="#2d2e2d"/>
          </g>
          <path id="XMLID_416_" d="M136,203.2a20.287,20.287,0,0,1,12.4,2.4c6,3.5,21.3,28.8,24.6,34.2,3.3,5.3,21.5,21.3,21.5,21.3L183,271.5s-19.3-16.1-28.1-26.5c-5.2-6.2-5.5-8.4-6.2-9.6C146.7,232.1,136,203.2,136,203.2Z" fill="#fbc3b2"/>
          <g id="XMLID_402_">
            <g id="XMLID_408_">
              <path id="XMLID_415_" d="M157,316.7s8.9,47.8,11.2,53.7.4,9.2-2.7,22.6-5.6,36.3-6.6,46c-.9,9-.7,19.1,2.7,22.4S182.2,472.5,179,475s-12.5,5.5-17.4,1.5-9.5-5.1-12.7-6.8c-3.7-2-5.2-5.1-2.3-17,2.5-10.3-4-39.6-4.1-54.6,0-9.5,2.7-18.7,2.6-19.5C144.7,370.5,132.4,352.8,157,316.7Z" fill="#fbc3b2"/>
              <path id="XMLID_414_" d="M127.5,369.5s-2.3,37.2-4.1,43.9c-1.8,6.8-8.7,43-9.4,49-.9,8.2.4,16.2,0,22.3-.3,4.7-1.6,22.7-12.6,17.4-7.5-3.6-2.8-18-.6-25.2.9-2.7,3.6-9.4,3.2-17.6-.8-14.7-2.1-20.9-1-34.2a168.886,168.886,0,0,0-.5-23.6c-1.4-15-4.1-31.5-2.2-34.9C103.5,360.6,127.5,369.5,127.5,369.5Z" fill="#fbc3b2"/>
              <path id="XMLID_413_" d="M129.4,231.6c-7.1-2.5-12.1-13.8-14-18.8.1-.2.2-.3.3-.5,2.3-6.3.7-15.3.7-15.3l15.8,4.3c.2,3.6.2,7.1,2.1,9.2a8.3,8.3,0,0,0,2.5,1.6,90.463,90.463,0,0,1,5.9,14.7C143.9,231.3,136.3,234,129.4,231.6Z" fill="#f79d8b"/>
              <g id="XMLID_411_">
                <path id="XMLID_412_" d="M140.2,170.7c7.5,7.8,4.5,34.8-6.5,36.6-7.2,1.1-17.2-5.2-20.8-17.7C109.8,179.1,126,155.9,140.2,170.7Z" fill="#fbc3b2"/>
              </g>
              <path id="XMLID_410_" d="M145.1,458.1s1.4,6.1,11.4,11.2c7.6,3.9,11.7,4.8,15.9,3.3l4.2-1.5a31.2,31.2,0,0,1,6.4,3.5c2.6,2,.8,3.1-7.5,5.2s-14.3-1.5-19.1-5.2-9.4-3-11.4-5.4C141.8,465.3,145.1,458.1,145.1,458.1Z" fill="#2d2e2d"/>
              <path id="XMLID_409_" d="M114,484.7s-.4,12.2-4.1,16.1-11.3,2.3-13.2-4.3c-2-6.7,1.4-9.2,1.4-9.2s2.5,7.8,6.9,7.4C109.4,494.4,114,484.7,114,484.7Z" fill="#2d2e2d"/>
            </g>
            <path id="XMLID_407_" d="M157.1,298.4c-1.8-5.9-5.5-21.1-5.6-26.3-.1-10.9.5-11.5,2.6-20.6,4.8-8.4,4.8-14.8,2.8-19-2.5-5.2-8.8-16.1-13.6-20.6-1.5-1.4-4.1-5.4-6.1-6.2a7.29,7.29,0,0,1-4.5,1.6c1.1,5.1,6.2,11.6,7.4,16.6,1.1,4.6-4.1,8.9-11.1,6.5-7.1-2.5-10.7-16.7-12.6-21.7-7.8,3.3-12.3,6.1-16.7,10.5a33.218,33.218,0,0,0,.1,21.9c.7,2,4.6,8.9,7.4,16.6,1.4,3.9,2,8.4,2.9,14.9,1.8,13.8-8.6,19.2-12.8,46.9-4.2,27.8-1.5,49.5,0,65.3.5,5.5,1.1,27.4,1.1,27.4s18.3,8.8,31.5,2.8c13.3-6.1,20.3-14.6,30.6-16.1,12.8-1.9,20-6.8,20-6.8S166.2,328.5,157.1,298.4Z" fill="#70bd4e"/>
            <path id="XMLID_406_" d="M145.5,176.5s-10.4,5.1-22.3,3.3c-1.7,1.7-2.2,4.2-3.2,6.8-6.5-4.1-7.2,3.1-3.6,7,1,1.8-.4,4.5-.4,4.5s-10.2-8.1-8.6-19.9c-.2-2.4-.2-5.6,2.1-7.5.4-5.1,3.7-6.1,6.9-6.2,1.8-3.8,5.7-3.7,9.3-3.8,3.8-.1,10.6,1.6,15.4,3.8C147.7,167.6,145.5,176.5,145.5,176.5Z" fill="#2d2e2d"/>
            <path id="XMLID_405_" d="M131.4,164.6s.1-9.6-4.8-12.3c-4.9-2.6-8.4,0-8.4,0s-2.3-7-5.8-7.5-6.9,3.5-6.9,3.5-3.9-1.7-6.3,0c-4.1,2.9,0,8.9,0,8.9s-7.7-.5-8.3,6.6c-.4,4.6,0,5.9-2,7.5,2,2.2,6.8,1.2,6.8,1.2s-2.4,4.2-1.5,6.5c1,2.3,4.2,3.8,4.2,3.8s-1.8-4.5,1-6.5c2.4,5,10.4,7,10.6,6C110.4,181.4,131.4,164.6,131.4,164.6Z" fill="#2d2e2d"/>
            <path id="XMLID_404_" d="M110.1,280.8l-2.9,6.7a34.974,34.974,0,0,0,21.8,7.6c13.1-.2,25.7-5.5,25.7-5.5l-2-8.8s-15.5,7.6-26.2,6.7C115.8,286.7,110.1,280.8,110.1,280.8Z" fill="#fff"/>
            <path id="XMLID_403_" d="M98.2,404.7s14.2,8,23.5,3.8,24.8-15.9,33.2-18.4c8.3-2.4,24-5.4,24-5.4l-1.4-5.9s-9,2.4-22.7,6.9c-13.6,4.4-26.8,18.1-36.1,18.6S98,401,98,401Z" fill="#fff"/>
          </g>
          <g id="XMLID_384_">
            <path id="XMLID_401_" d="M309.2,267.9l-157.6,91V266.2l157.6-91Z" fill="#428a40"/>
            <g id="XMLID_399_">
              <path id="XMLID_400_" d="M304,251.3V197.8c-4.3.5-7.7-2-9.4-6.8L166.1,265.2a39.982,39.982,0,0,1-9.4,17.6v53.5c4.3-.5,7.7,2,9.4,6.8l128.5-74.2A41.019,41.019,0,0,1,304,251.3Z" fill="#70bd4e"/>
            </g>
            <path id="XMLID_398_" d="M251.9,249.8c0,15.8-9.6,34.1-21.4,40.9s-21.4-.4-21.4-16.2,9.6-34.1,21.4-40.9S251.9,234,251.9,249.8Z" fill="#428a40"/>
            <path id="XMLID_397_" d="M194.4,287.9c0,7.6-4.6,16.5-10.4,19.8-5.7,3.3-10.4-.2-10.4-7.8s4.6-16.5,10.4-19.8C189.7,276.7,194.4,280.2,194.4,287.9Z" fill="#428a40"/>
            <path id="XMLID_396_" d="M191,289.9c0,5.1-3.1,11-6.9,13.2s-6.9-.1-6.9-5.2,3.1-11,6.9-13.2C187.9,282.4,191,284.8,191,289.9Z" fill="#b7da9a"/>
            <path id="XMLID_395_" d="M286.9,234.5c0,7.6-4.6,16.5-10.4,19.8-5.7,3.3-10.4-.2-10.4-7.8s4.6-16.5,10.4-19.8C282.3,223.3,286.9,226.8,286.9,234.5Z" fill="#428a40"/>
            <path id="XMLID_394_" d="M283.5,236.4c0,5.1-3.1,11-6.9,13.2s-6.9-.1-6.9-5.2,3.1-11,6.9-13.2S283.5,231.3,283.5,236.4Z" fill="#b7da9a"/>
            <g id="XMLID_390_">
              <g id="XMLID_391_">
                <path id="XMLID_392_" d="M234.2,251.5c-1.1-.9-2-1.2-3.3-.4-1.5.8-2.2,2.2-2.2,4.3,0,4.4,8-.6,8,8.4,0,4.5-1.6,8.9-4.7,11.7v4.9l-3,1.6v-4.7a5.254,5.254,0,0,1-5.3-.5l1.9-5.7a3.962,3.962,0,0,0,4.3.2,4.9,4.9,0,0,0,2.5-4.6c0-4.8-8-.1-8-8.5a15.252,15.252,0,0,1,4.6-11.3V242l2.9-1.7V245a3.961,3.961,0,0,1,4.5,1.2Z" fill="#fff"/>
              </g>
            </g>
            <path id="XMLID_389_" d="M151.6,358.9l-8.3-5V261.6l8.3,4.6Z" fill="#357338"/>
            <path id="XMLID_388_" d="M143.3,261.6l8.3,4.6,157.6-91-8.2-4.7Z" fill="#b7da9a"/>
            <path id="XMLID_387_" d="M164.5,277.3v4.9l39-22.6v-4.9Z" fill="#428a40"/>
            <path id="XMLID_386_" d="M254.3,225.4v5l39.1-22.7v-4.9Z" fill="#428a40"/>
            <path id="XMLID_385_" d="M167.5,332.3v5L290,267v-4.8Z" fill="#428a40"/>
          </g>
          <path id="XMLID_383_" d="M104.5,217.8c-11.6-.4-9.6,19.9-7.2,30.8,2.3,10.5,5.5,29.4,10,36.7,3.7,5.9,14.9,20.1,23.8,28.2,9.1,8.3,10.8,10.9,16.4,15.1,11,8.2,14.7,2.7,14.6-2.3,0-5.1-7.7-6.4-10.4-9.5-.4-.5,6.5-1.6,5.2-3.3-.7-.9-10.1-2.7-12.5-4.5-10.7-8.4-23.1-32.4-25.1-36.2C116.7,267.8,115.6,218.1,104.5,217.8Z" fill="#fbc3b2"/>
          <path id="XMLID_382_" d="M311,204.3a18.483,18.483,0,0,0-7,13.4c-.3,8.7,5.6,9.1,9.7,4.5C317.8,217.5,316,204.7,311,204.3Z" fill="#fbc3b2"/>
        </g>
        <g id="XMLID_304_">
          <g id="XMLID_330_">
            <g id="XMLID_378_">
              <path id="XMLID_380_" d="M331,627.4V479.6l118-68.2V559Z" fill="#864133"/>
              <path id="XMLID_379_" d="M331,627.4V479.6L213,411.4V559Z" fill="#ab5246"/>
            </g>
            <g id="XMLID_331_">
              <path id="XMLID_377_" d="M222.6,411.4,331,474.1h0V348.8Z" fill="#ab5246"/>
              <path id="XMLID_376_" d="M331,348.8V474.1l108.4-62.7Z" fill="#864133"/>
              <g id="XMLID_356_">
                <g id="XMLID_364_">
                  <path id="XMLID_375_" d="M380.6,422.8a16.932,16.932,0,0,0-1-2.7l-27.4-6.2-.9,3.1a34.369,34.369,0,0,0-2.7,2.7c-.1.1-.2.2-.2.3l33.4,7.6A41.965,41.965,0,0,0,380.6,422.8Z" fill="#e59e24"/>
                  <path id="XMLID_374_" d="M369.1,410.3h0l-14.9-3.4-1.1,3.9,24.6,5.6A14.621,14.621,0,0,0,369.1,410.3Z" fill="#e59e24"/>
                  <path id="XMLID_373_" d="M339.4,470.8c3.4-2,6.7-4,10.1-6l-4.5-1-1.1-3.4,9.4,2.1c3-1.8,6.1-3.5,9.1-5.3l-8-1.8-1.1-3.4,13.2,3c3.1-1.7,6.2-3.4,9.3-5l-24.1-5.5-1.1-3.4,29.4,6.7c.2-.1.3-.2.5-.2a51.943,51.943,0,0,0,1.1-6.5L349,433.7l-1.1-3.4,34,7.7a56.058,56.058,0,0,0,0-7.1l-35.5-8.1-.2-.6c-10.5,13-16,32.7-13.3,47.3Z" fill="#e59e24"/>
                  <path id="XMLID_372_" d="M349.6,410l1.1,3.4,1.5.4.9-3Z" fill="#ffd884"/>
                  <path id="XMLID_371_" d="M377.6,416.4,353,410.8l-.9,3,27.4,6.2A15.467,15.467,0,0,0,377.6,416.4Z" fill="#ffd884"/>
                  <path id="XMLID_370_" d="M345.5,419.2l.9,2.8a20,20,0,0,1,1.9-2.2Z" fill="#ffd884"/>
                  <path id="XMLID_369_" d="M382.1,430.7c-.1-1.1-.2-2.2-.4-3.3l-33.4-7.6c-.6.7-1.3,1.4-1.9,2.2l.2.6Z" fill="#ffd884"/>
                  <path id="XMLID_368_" d="M349.2,433.5l32.6,7.4c.1-1,.2-2.1.3-3.1l-34-7.7Z" fill="#ffd884"/>
                  <path id="XMLID_367_" d="M375.9,449.9c1.4-.7,2.9-1.5,4.3-2.2L350.8,441l1.1,3.4Z" fill="#ffd884"/>
                  <path id="XMLID_366_" d="M362.5,457.2c1.3-.8,2.7-1.5,4.1-2.3l-13.2-3,1.1,3.4Z" fill="#ffd884"/>
                  <path id="XMLID_365_" d="M321.7,466.7l1.1,3.4,11.1,2.5a33.833,33.833,0,0,1-.8-3.4Z" fill="#ffd884"/>
                </g>
                <g id="XMLID_360_">
                  <path id="XMLID_363_" d="M366.2,419.4c-4.9-15.7-19.2-17.1-32.1-3.2-12.5,13.5-19,36.5-14.9,52.2,3.7,2.6,7.5,5,11.2,7.7,10.4-6.2,20.8-12.5,31.3-18.5C367.5,445,369.5,430.2,366.2,419.4Z" fill="#febe2b"/>
                  <g id="XMLID_361_">
                    <path id="XMLID_362_" d="M362.3,423.2c-1.8-6-5.3-9.8-9.9-10.9-5.5-1.2-11.9,1.7-17.7,8-10.7,11.8-16.2,32.3-12.3,45.5a17.874,17.874,0,0,0,4.5,7.9l2.4,1.8c.4.2.7.4,1.1.6a14,14,0,0,0,1.6-1c-3.7-1.1-6.6-4.5-8.2-9.7-3.8-12.8,1.5-32.6,12-44.1,5.4-5.9,11.3-8.7,16.2-7.6a9.864,9.864,0,0,1,4.5,2.4,16.143,16.143,0,0,1,4.3,7.4c3.3,11.1-.3,27.5-8.1,39.2.9-.6,1.9-1.1,2.8-1.7C362.5,449.4,365.5,433.9,362.3,423.2Z" fill="#e59e24"/>
                  </g>
                </g>
                <g id="XMLID_357_">
                  <path id="XMLID_358_" d="M349.1,442.7c.7-2.3.9-3.9.4-5.2-.5-1.6-1.3-1.8-2.7-.3-3,3.2,0,11.6-6,18-3,3.2-5.8,4-7.5,1.3l-3.2,3.5-1-3.2,3.1-3.4a18.747,18.747,0,0,1,.6-8.3l3.7-1.2a14.186,14.186,0,0,0-.4,6.6c.6,1.8,1.5,1.9,3,.3,3.2-3.5.5-12,6.1-18.1,3-3.3,5.7-3.7,7.3-1.2l3.2-3.5,1,3.2-3.1,3.4a17.031,17.031,0,0,1-1,7.6Z" fill="#fff"/>
                </g>
              </g>
              <g id="XMLID_335_">
                <g id="XMLID_343_">
                  <path id="XMLID_355_" d="M329.3,409c-.4-1-.8-1.8-1.2-2.7L300.3,402l-.7,3.1A37.867,37.867,0,0,0,297,408c-.1.1-.1.2-.2.3l33.8,5.3A22.255,22.255,0,0,0,329.3,409Z" fill="#e59e24"/>
                  <path id="XMLID_354_" d="M316.9,397.4h0L301.8,395l-.9,4,24.9,3.9A13.437,13.437,0,0,0,316.9,397.4Z" fill="#e59e24"/>
                  <path id="XMLID_353_" d="M297.4,418.5l34.4,5.4a55.19,55.19,0,0,0-.5-7.1l-35.9-5.6-.2-.6c-7.8,11.1-11.9,26.4-11.2,39.5,6.1,3.8,12.2,7.5,18.2,11.3l16,2.5c.1-.1.2-.3.4-.4a50.28,50.28,0,0,0,4.7-7l-26.7-4.2-1.3-3.3,29.5,4.6a57.855,57.855,0,0,0,2.9-6.8l-22.2-3.5-1.3-3.3,24.6,3.8a52,52,0,0,0,1.7-6.8l-28.4-4.4-1.3-3.3L331,434a53.776,53.776,0,0,0,.7-6.9l-33-5.2Z" fill="#e59e24"/>
                  <path id="XMLID_352_" d="M297.5,398.4l1.3,3.4,1.5.2.7-3.1Z" fill="#ffd884"/>
                  <path id="XMLID_351_" d="M325.8,402.8l-24.9-3.9-.7,3,27.8,4.3A17.905,17.905,0,0,0,325.8,402.8Z" fill="#ffd884"/>
                  <path id="XMLID_350_" d="M294,407.9l1.1,2.7c.6-.8,1.1-1.6,1.7-2.3Z" fill="#ffd884"/>
                  <path id="XMLID_349_" d="M331.3,416.8c-.2-1.1-.4-2.2-.6-3.2l-33.8-5.3a19.523,19.523,0,0,0-1.7,2.3l.2.6Z" fill="#ffd884"/>
                  <path id="XMLID_348_" d="M298.7,421.9l33,5.2c.1-1.1.1-2.1.1-3.1l-34.4-5.4Z" fill="#ffd884"/>
                  <path id="XMLID_347_" d="M302.1,432.6l28.4,4.4c.2-1,.4-2,.6-3.1l-30.2-4.7Z" fill="#ffd884"/>
                  <path id="XMLID_346_" d="M305.4,443.3l22.2,3.5c.4-1,.7-2,1-3L304,440Z" fill="#ffd884"/>
                  <path id="XMLID_345_" d="M295.2,448.9l1.3,3.3,26.7,4.2c.5-.9,1.1-1.9,1.6-2.9Z" fill="#ffd884"/>
                  <path id="XMLID_344_" d="M308.8,465.6l6.8,1.1a35.251,35.251,0,0,0,2.5-2.8l-16-2.5C304.3,462.8,306.6,464.2,308.8,465.6Z" fill="#ffd884"/>
                </g>
                <g id="XMLID_339_">
                  <path id="XMLID_342_" d="M303.1,462c.2-.3.5-.5.7-.8,11.9-14.8,16.8-39.1,10.8-54.5-5.9-15.3-20.4-15.8-32.3-1-7.6,9.4-12.2,22.6-13.2,34.9C280.3,448,291.7,454.9,303.1,462Z" fill="#febe2b"/>
                  <g id="XMLID_340_">
                    <path id="XMLID_341_" d="M273.7,443.6c-.1-11.2,3.9-24.1,10.8-32.9,5-6.3,10.7-9.4,15.7-8.7a10.159,10.159,0,0,1,4.6,2.1,16.5,16.5,0,0,1,4.8,7.1c4.7,12.5.7,32.7-8.9,44.8a24.346,24.346,0,0,1-2.6,2.9c.4.3.9.5,1.3.8.8-.9,1.7-1.8,2.5-2.8,9.9-12.5,14-33.3,9.1-46.3-2.2-5.8-5.9-9.4-10.6-10.2-5.5-.9-11.8,2.5-17.1,9.2-6.9,8.8-10.9,21.6-11.1,32.9C272.8,442.9,273.3,443.3,273.7,443.6Z" fill="#e59e24"/>
                  </g>
                </g>
                <g id="XMLID_336_">
                  <path id="XMLID_337_" d="M299.6,431.1c.5-2.3.6-3.9.1-5.3-.6-1.5-1.5-1.7-2.7-.1-2.7,3.4.8,11.5-4.7,18.3-2.8,3.4-5.5,4.4-7.4,1.8l-3,3.7-1.2-3.1,2.9-3.6a20.946,20.946,0,0,1,0-8.3l3.6-1.5c-.5,3-.5,5.1.1,6.6.7,1.8,1.7,1.8,3,.1,3-3.7-.4-12,4.8-18.4,2.8-3.5,5.5-4.1,7.2-1.7l3-3.7,1.2,3.1-2.9,3.6a17.046,17.046,0,0,1-.5,7.7Z" fill="#fff"/>
                </g>
              </g>
              <path id="XMLID_332_" d="M331,343.2,213,411.4l118,68.2,118-68.2Zm0,130.9L222.6,411.4,331,348.8l108.4,62.7L331,474.1Z" fill="#d26e63"/>
            </g>
          </g>
          <path id="XMLID_329_" d="M213,411.4l-31.2-45.8,118.1-68.3L331,343.2Z" fill="#864133"/>
          <path id="XMLID_328_" d="M449.1,411.4l31.2-45.8L362.2,297.3,331,343.2Z" fill="#ab5246"/>
          <path id="XMLID_327_" d="M331,479.6l35.3-4.9,118-68.7-35.2,5.4Z" fill="#ab5246"/>
          <path id="XMLID_326_" d="M330.7,479.6l-35.3-4.9L177.4,406l35.2,5.4Z" fill="#864133"/>
          <g id="XMLID_305_">
            <g id="XMLID_306_">
              <g id="XMLID_308_" clip-path="url(#clip-path)">
                <path id="XMLID_323_" d="M347.9,544.3V534.1l.8-.5a5.132,5.132,0,0,1,1.2-.5c.3,0,.6,0,.7.2a1.88,1.88,0,0,1,.4,1,8.622,8.622,0,0,1,.1,1.7v2.4a11.483,11.483,0,0,1-.1,1.9,5.734,5.734,0,0,1-.4,1.4,2.836,2.836,0,0,1-.8,1.1,6.235,6.235,0,0,1-1.2.9l-.7.6Zm.8-13.2-3.5,2v15.3l3.5-2a8.7,8.7,0,0,0,2.1-1.7,11.224,11.224,0,0,0,1.6-2.2,8.248,8.248,0,0,0,1-2.6,13.607,13.607,0,0,0,.4-3v-2.4a5.951,5.951,0,0,0-.4-2.5,2.551,2.551,0,0,0-1-1.4,2.129,2.129,0,0,0-1.6-.3,5.556,5.556,0,0,0-2.1.8Z" fill="#fff"/>
                <path id="XMLID_320_" d="M360.4,537.3a1.9,1.9,0,0,1-.9.3.908.908,0,0,1-.7-.3,1.88,1.88,0,0,1-.4-1,8.116,8.116,0,0,1-.1-1.7V532a10.889,10.889,0,0,1,.1-1.9,5.416,5.416,0,0,1,.4-1.5,4.128,4.128,0,0,1,.7-1.1c.3-.3.6-.5.9-.8a1.9,1.9,0,0,1,.9-.3.755.755,0,0,1,.7.4,2.321,2.321,0,0,1,.4,1,9.722,9.722,0,0,1,.1,1.8v2.6a11.483,11.483,0,0,1-.1,1.9,4.673,4.673,0,0,1-.4,1.4,4.128,4.128,0,0,1-.7,1.1,2.178,2.178,0,0,1-.9.7Zm0-13.1a7.419,7.419,0,0,0-2,1.6,8.007,8.007,0,0,0-1.5,2.1,16.931,16.931,0,0,0-1,2.7,15.525,15.525,0,0,0-.3,3.1v2.5a6.163,6.163,0,0,0,.4,2.6,2.84,2.84,0,0,0,1,1.5,1.883,1.883,0,0,0,1.5.3,6.863,6.863,0,0,0,2-.7,9.511,9.511,0,0,0,2-1.5,8.007,8.007,0,0,0,1.5-2.1,20.035,20.035,0,0,0,1-2.6,14.533,14.533,0,0,0,.3-3v-2.5a6.991,6.991,0,0,0-.4-2.7,2.84,2.84,0,0,0-1-1.5,2.41,2.41,0,0,0-1.5-.4,2.628,2.628,0,0,0-2,.6Z" fill="#fff"/>
                <path id="XMLID_319_" d="M376.4,515.1l-2.6,1.5v10.1l-4-7.8-2.7,1.6.1,15.3,2.7-1.6-.1-10,4,7.8,2.7-1.6Z" fill="#fff"/>
                <path id="XMLID_316_" d="M382.1,521.5l1.2-6.2,1.3,4.7-2.5,1.5Zm2.4-11.1-2.5,1.4-4.1,17.7,2.8-1.6.7-3.6,3.7-2.1.7,2.7,2.9-1.7-4.2-12.8Z" fill="#fff"/>
                <path id="XMLID_315_" d="M397.5,502.9l-9.2,5.4v2.5l3.2-1.8.1,12.7,2.7-1.5-.1-12.8,3.3-1.9Z" fill="#fff"/>
                <path id="XMLID_314_" d="M401.9,500.4l-2.7,1.6v15.3l2.7-1.6Z" fill="#fff"/>
                <path id="XMLID_311_" d="M408.8,509.4a1.9,1.9,0,0,1-.9.3.908.908,0,0,1-.7-.3,1.88,1.88,0,0,1-.4-1,8.622,8.622,0,0,1-.1-1.7v-2.6a10.888,10.888,0,0,1,.1-1.9,5.416,5.416,0,0,1,.4-1.5,10.911,10.911,0,0,1,.6-1.1c.3-.3.6-.5.9-.8a1.9,1.9,0,0,1,.9-.3.755.755,0,0,1,.7.4,2.321,2.321,0,0,1,.4,1,9.722,9.722,0,0,1,.1,1.8v2.6a11.482,11.482,0,0,1-.1,1.9,5.733,5.733,0,0,1-.4,1.4,10.911,10.911,0,0,1-.6,1.1,5.492,5.492,0,0,1-.9.7Zm-.1-13.1a7.417,7.417,0,0,0-2,1.6,8.008,8.008,0,0,0-1.5,2.1,16.931,16.931,0,0,0-1,2.7,15.525,15.525,0,0,0-.3,3.1v2.5a6.163,6.163,0,0,0,.4,2.6,2.84,2.84,0,0,0,1,1.5,1.883,1.883,0,0,0,1.5.3,6,6,0,0,0,2-.7,9.509,9.509,0,0,0,2-1.5,8.008,8.008,0,0,0,1.5-2.1,20.034,20.034,0,0,0,1-2.6,14.533,14.533,0,0,0,.3-3v-2.5a6.991,6.991,0,0,0-.4-2.7,2.84,2.84,0,0,0-1-1.5,2.41,2.41,0,0,0-1.5-.4,2.742,2.742,0,0,0-2,.6Z" fill="#fff"/>
                <path id="XMLID_310_" d="M424.8,487.2l-2.7,1.5v10.1l-4-7.8-2.7,1.6.1,15.3,2.7-1.6v-10l3.9,7.8,2.7-1.6Z" fill="#fff"/>
                <path id="XMLID_309_" d="M431.1,483.3a10.916,10.916,0,0,0-1.7,1.3,9.136,9.136,0,0,0-1.3,1.6,6.632,6.632,0,0,0-.9,1.9,6.8,6.8,0,0,0-.3,1.9,3.506,3.506,0,0,0,.3,1.6,2.068,2.068,0,0,0,2,1.2,7.084,7.084,0,0,0,1.4-.1,3.278,3.278,0,0,1,1,0,1.072,1.072,0,0,1,.6.2c.1.1.2.3.3.4,0,.2.1.4.1.7a1.7,1.7,0,0,1-.1.7,1.854,1.854,0,0,1-.2.7c-.1.2-.3.4-.4.6a1.794,1.794,0,0,1-.7.5,5.9,5.9,0,0,1-.8.4.661.661,0,0,1-.6-.1.918.918,0,0,1-.4-.6,3.42,3.42,0,0,1-.1-1.1l-2.7,1.6a3.738,3.738,0,0,0,.4,2,2.132,2.132,0,0,0,1.1,1,2.45,2.45,0,0,0,1.5.1,4.1,4.1,0,0,0,1.7-.7,10.916,10.916,0,0,0,1.7-1.3,10.1,10.1,0,0,0,1.3-1.6,7.1,7.1,0,0,0,.8-1.8,6.447,6.447,0,0,0,.3-2,7.772,7.772,0,0,0-.2-1.6,3.591,3.591,0,0,0-.7-1,1.594,1.594,0,0,0-1.2-.4,9.15,9.15,0,0,0-1.6.1h-.8c-.2,0-.5-.1-.6-.1a1.381,1.381,0,0,1-.4-.3,1.083,1.083,0,0,1-.1-.6,1.7,1.7,0,0,1,.1-.7c.1-.2.2-.5.3-.7a1.47,1.47,0,0,1,.5-.6,1.794,1.794,0,0,1,.7-.5,1.078,1.078,0,0,1,.7-.2c.2,0,.4,0,.5.2a2.185,2.185,0,0,1,.3.5,2.22,2.22,0,0,1,.1.9l2.7-1.5a3.985,3.985,0,0,0-.3-1.7,2.089,2.089,0,0,0-.8-1,1.907,1.907,0,0,0-1.3-.2,2.63,2.63,0,0,0-2.2.3Z" fill="#fff"/>
              </g>
            </g>
          </g>
        </g>
        <g id="XMLID_270_">
          <g id="XMLID_286_">
            <path id="XMLID_303_" d="M607.7,406.5,454.1,495.1V404.8l153.6-88.7Z" fill="#428a40"/>
            <g id="XMLID_301_">
              <path id="XMLID_302_" d="M602.6,390.3V338.2c-4.2.4-7.5-2-9.1-6.6L468.3,403.9a38.7,38.7,0,0,1-9.1,17.1v52.1c4.2-.4,7.5,2,9.1,6.6l125.2-72.3A39.255,39.255,0,0,1,602.6,390.3Z" fill="#70bd4e"/>
            </g>
            <path id="XMLID_300_" d="M551.8,388.8c0,15.4-9.3,33.2-20.9,39.9-11.5,6.7-20.9-.4-20.9-15.8s9.3-33.2,20.9-39.9C542.4,366.4,551.8,373.5,551.8,388.8Z" fill="#428a40"/>
            <path id="XMLID_299_" d="M495.8,425.9c0,7.4-4.5,16.1-10.1,19.3s-10.1-.2-10.1-7.6,4.5-16.1,10.1-19.3C491.2,415.1,495.8,418.5,495.8,425.9Z" fill="#428a40"/>
            <path id="XMLID_298_" d="M492.5,427.9c0,5-3,10.7-6.7,12.9s-6.7-.1-6.7-5.1,3-10.7,6.7-12.9S492.5,422.9,492.5,427.9Z" fill="#b7da9a"/>
            <path id="XMLID_297_" d="M585.9,373.9c0,7.4-4.5,16.1-10.1,19.3s-10.1-.2-10.1-7.6,4.5-16.1,10.1-19.3C581.4,363,585.9,366.4,585.9,373.9Z" fill="#428a40"/>
            <path id="XMLID_296_" d="M582.6,375.8c0,5-3,10.7-6.7,12.9s-6.7-.1-6.7-5.1,3-10.7,6.7-12.9C579.6,368.6,582.6,370.8,582.6,375.8Z" fill="#b7da9a"/>
            <g id="XMLID_292_">
              <g id="XMLID_293_">
                <path id="XMLID_294_" d="M534.5,390.5a2.466,2.466,0,0,0-3.2-.4,4.389,4.389,0,0,0-2.2,4.2c0,4.3,7.8-.5,7.8,8.1a15.527,15.527,0,0,1-4.6,11.4v4.7l-2.9,1.7v-4.5a5.1,5.1,0,0,1-5.2-.5l1.9-5.6a3.8,3.8,0,0,0,4.2.2,4.673,4.673,0,0,0,2.4-4.5c0-4.7-7.8-.1-7.8-8.3a14.656,14.656,0,0,1,4.5-11v-4.7l2.9-1.7v4.6c1.9-.7,3.2,0,4.4,1.2Z" fill="#fff"/>
              </g>
            </g>
            <path id="XMLID_291_" d="M454.1,495.1l-8.1-4.8v-90l8.1,4.5Z" fill="#357338"/>
            <path id="XMLID_290_" d="M446,400.3l8.1,4.5,153.6-88.7-8-4.6Z" fill="#b7da9a"/>
            <path id="XMLID_289_" d="M466.6,415.6v4.8l38.1-22.1v-4.7Z" fill="#428a40"/>
            <path id="XMLID_288_" d="M554.2,365.1v4.8l38-22.1v-4.7Z" fill="#428a40"/>
            <path id="XMLID_287_" d="M469.5,469.2V474l119.4-68.4v-4.7Z" fill="#428a40"/>
          </g>
          <path id="XMLID_285_" d="M607.7,330.1s3.8,4.4,4,14.9c0,3.9-3.3,8-3.3,18.2,0,16.1,1.5,38.8,2,42.2.7,5.3-13.6,4.8-13.6,4.8l-8.9-27Z" fill="#fbc3b2"/>
          <g id="XMLID_271_">
            <g id="XMLID_282_">
              <path id="XMLID_284_" d="M577.5,675.4c-6-3-11.7-6.7-9.9-10.1.8-1.5,2.7-2.2,4.6-2.5a83.625,83.625,0,0,1,8.3,3.1s-.6-32.2-3-45.5c-.8-4.4,20.2-4.6,20.2-4.6.8,3.1,1.4,30.1,0,46.6a47.662,47.662,0,0,0,.2,11.8c-1.4.6-4.4,1.9-6.6,2.9C588.5,678.4,583.5,678.4,577.5,675.4Z" fill="#fbc3b2"/>
              <path id="XMLID_283_" d="M598.3,682.9c-2,4.8-6.6,4.3-16,1a83.328,83.328,0,0,1-21.1-10.7c-5.9-4.4-6-4.9-6.7-7.9-1.1-4.1,4.9-6.5,15-3.3,1,.3,1.9.6,2.8.9-1.8.3-3.8,1-4.6,2.5-1.8,3.4,3.9,7.1,9.9,10.1s10.9,3,13.9,1.6c2.2-1,5.2-2.3,6.6-2.9C598.6,678.2,599.5,680,598.3,682.9Z" fill="#2d2e2d"/>
            </g>
            <g id="XMLID_279_">
              <path id="XMLID_281_" d="M548.3,692.4c-6-3-11.7-6.7-9.9-10.1.8-1.5,2.7-2.2,4.6-2.5a83.625,83.625,0,0,1,8.3,3.1s-3-52-5.3-65.3c-.8-4.4,21.7,3.7,21.7,3.7.8,3.1,2.3,41.6.9,58.1a47.662,47.662,0,0,0,.2,11.8c-1.4.6-4.4,1.9-6.6,2.9C559.2,695.4,554.3,695.4,548.3,692.4Z" fill="#fbc3b2"/>
              <path id="XMLID_280_" d="M569.1,699.9c-2,4.8-6.6,4.3-16,1A83.328,83.328,0,0,1,532,690.2c-5.9-4.4-6-4.9-6.7-7.9-1.1-4.1,4.9-6.5,15-3.3,1,.3,1.9.6,2.8.9-1.9.3-3.8,1-4.6,2.5-1.8,3.4,3.9,7.1,9.9,10.1s10.9,3,13.9,1.6c2.2-1,5.2-2.3,6.6-2.9C569.4,695.1,570.3,697,569.1,699.9Z" fill="#2d2e2d"/>
            </g>
            <path id="XMLID_278_" d="M598.9,476.6a61.631,61.631,0,0,1,7.6,21.7c.9,6.5.5,12.7-.6,21.9-1.4,11.7-6.5,42.6-5.6,52.2,1.6,18.6-2,48.3-2,48.3s-9,6.9-20,0c-2.4-11.3-2.2-39.7-2.5-45.9s.9-45.6.9-45.6-9.8,46.7-9.5,54.4c.5,14.8,1,52.2.8,50,0,0-12,11.1-20.5,2-2.7-17.5-6.7-46.9-6.5-57.9s.3-71.2,4.9-93.1c2-9.6,6.6-23.3,6.6-23.3Z" fill="#2d2e2d"/>
            <path id="XMLID_277_" d="M567.6,321.8c-2.4,1.7-11.3,3.7-13.8,23.3-2.2,17.3,1.6,21.9,5.1,23.3,1.9.8,8.9.8,8.9.8l-.3,14.7s8.6,3.4,16.8,0l8.2-3.4s-3.2-5.5-2.7-15.2c.7-11.9,4.9-28.9,1.9-35.2C586.5,318.7,574.1,317.3,567.6,321.8Z" fill="#fbc3b2"/>
            <path id="XMLID_276_" d="M553.6,456.4c1.1-8.9-1.7-27.7-1.7-27.7s-4.5-18.7,1.6-31.1c6.2-12.4,10.9-16.4,16.8-18.4,6.2-2.1,24.5-3.1,24.5-3.1s16.9,15.6,12.7,34.1c-7,30.9-10.8,36.7-8.6,51.2,0,0,4.8,20,6.6,27.3a69.125,69.125,0,0,1,1.4,19.6s-16.5,11.4-37.2,8.9a76.779,76.779,0,0,1-28.9-9.5S546.7,468.6,553.6,456.4Z" fill="#f05050"/>
            <path id="XMLID_275_" d="M553.3,338.4c.6,6.7,6.1,8.7,11.1,13.9,4.9,5.1,7.5,10,18.3,17.7,3.9,2.8,2.9,24.5,10.4,39.9,8,16.4,3.3,19.4,3.3,19.4s22.7-7.3,13.5-32.7c-3.4-9.3-16.4-16.8-16.8-26.6-.2-4.5,5.8-9,7.7-17.5,6.1-26.7-6.3-34.4-18.1-36.8C561.7,311.1,552,324.6,553.3,338.4Z" fill="#2d2e2d"/>
            <path id="XMLID_274_" d="M559.2,390.6c5.1-.5,10.3,8.7,9.8,20.2-.7,14.7-43.2,42.6-43.2,42.6-10.3,6.1-45.8-4.2-53.3-5.1s-24.4,1.7-28.3-3.2c-3.7-4.7,18-20.2,25.1-15.6,5.3,3.4,4,7.7,8.2,8.3,19.1,2.8,42-.5,42-.5S549.5,391.5,559.2,390.6Z" fill="#fbc3b2"/>
            <path id="XMLID_273_" d="M559,348s5.1-8.8,7.4,0a8.842,8.842,0,0,1-5.1,10.9Z" fill="#fbc3b2"/>
            <path id="XMLID_272_" d="M595,364.7s.3,5.6-.9,6.9c-1.6,1.7-7.5,3.6-9.7,2.8-1.9-.7-4.6-4.5-4.8-6.3A73.848,73.848,0,0,0,595,364.7Z" fill="#ea2f43"/>
          </g>
        </g>
        <g id="XMLID_228_">
          <path id="XMLID_269_" d="M185.7,493.3s14.9-10.4,19.8-16c7.6-8.7,8.9-20.3,10.5-22.4s0-6.8,0-11.3c0-5.3-7.1-6.6-10.2-2.5-5.5,7.3,2.5,8.7,1.9,14.5-.4,3.8-2.9,8.1-7.3,12.2s-20.2,13.3-20.2,13.3Z" fill="#fbc3b2"/>
          <path id="XMLID_268_" d="M171.2,504.1s14.2-6.6,17-8.4,5.9-13.6.9-18.3c-.8-.8-4.5-5.1-4.5-5.1l-16.7,7.6Z" fill="#ea2f43"/>
          <path id="XMLID_267_" d="M168.4,494.4c.9.3,12.6,3.4,17.3,12.2,4.7,8.9-4.5,19.1-4.5,19.1l-14-9.5Z" fill="#ea2f43"/>
          <path id="XMLID_266_" d="M161.8,510.1l-1.4-22.4s-8.7,3.1-11.5,10.2c-2.7,7,0,19.6,0,19.6Z" fill="#ea2f43"/>
          <path id="XMLID_265_" d="M167.1,451.8c8.3.4,18,2.9,21.2,16,4.8,19.9-10.5,24.2-10.5,24.2v15.9h-18l.3-12.2Z" fill="#fbc3b2"/>
          <path id="XMLID_264_" d="M177.8,492s-4.8.5-6.6,3.7c-1.8,3.1-2.3,12.2-2.3,12.2l8.9-2Z" fill="#f79d8b"/>
          <path id="XMLID_263_" d="M169.7,701.5c1.7,4.1,5.7,3.7,13.7.8,7.1-2.6,12.9-5.4,18-9.2,5-3.7,5.1-4.2,5.8-6.7.9-3.5-4.1-4.9-12.8-2.8-12.2,2.9-23.2,11-24.4,10.5C169.4,697.4,168.7,699,169.7,701.5Z" fill="#2d2e2d"/>
          <path id="XMLID_262_" d="M139.9,683.6c1.7,4.1,5.7,3.7,13.7.8,7.1-2.6,12.9-5.4,18-9.2,5-3.7,5.1-4.2,5.8-6.7.9-3.5-4.1-4.9-12.8-2.8-12.2,2.9-23.2,11-24.4,10.5C139.6,679.6,138.9,681.2,139.9,683.6Z" fill="#2d2e2d"/>
          <path id="XMLID_261_" d="M150,549.4a161.578,161.578,0,0,0-8,35.7c-.6,5.8,1.1,17.5,0,30.9-2.6,30.7-3.7,56.7-3.7,56.7s2.5,8,7.1,9.8c9,3.5,16.3-5.6,16.3-5.6l2.6-76.3,1.8,1.1,1.8,87.2a14.9,14.9,0,0,0,7.6,10.1c5.4,2.7,11.9-1.6,16.1-5,5-27.9.6-48.2,1.2-69.3.2-7.6.3-16.3.5-18.2,1.1-17.2.6-40.9.2-49.6C183.1,558.4,150,549.4,150,549.4Z" fill="#702f26"/>
          <path id="XMLID_260_" d="M160.1,495.7c8.2-3.7,18.2-5.4,23.5-20.2,3.8-10.6,2.9-19.2-7.4-24.1-8.9-4.3-20.9.5-25.9,12.8C144.8,477.7,156.7,485.6,160.1,495.7Z" fill="#2d2e2d"/>
          <g id="XMLID_234_">
            <g id="XMLID_244_">
              <path id="XMLID_259_" d="M242,391.2c-.9-.5-1.8-.9-2.6-1.3l-24.4,14,1.4,2.9c-.1,1.2-.2,2.5-.2,3.8v.4l29.7-17.1A45.627,45.627,0,0,0,242,391.2Z" fill="#e59e24"/>
              <path id="XMLID_258_" d="M242,459.9c.3.2.7.3,1,.5l2.5,5,19.6-11.3a28.111,28.111,0,0,0,2.5-9.4l-25.9,15A1.238,1.238,0,0,0,242,459.9Z" fill="#e59e24"/>
              <path id="XMLID_257_" d="M225.1,389.9h0l-13.3,7.6,1.8,3.6,21.8-12.6A14.251,14.251,0,0,0,225.1,389.9Z" fill="#e59e24"/>
              <path id="XMLID_256_" d="M240.5,443.7l25.9-14.9a57.48,57.48,0,0,0-2-7.1L244.9,433l-3.1-1.8,21.5-12.4c-.9-2.2-1.8-4.3-2.9-6.4l-24.9,14.4-3.1-1.8,26.5-15.3a57.928,57.928,0,0,0-3.8-5.8l-29,16.7-3.1-1.8,30.2-17.4a48.5,48.5,0,0,0-4.9-5.2l-31.5,18.2-.6-.3c1.1,16.7,10.5,34.9,22.4,43.8l29-16.7v-.5a59.484,59.484,0,0,0-.7-8.4l-23.4,13.5Z" fill="#e59e24"/>
              <path id="XMLID_255_" d="M210.6,402.9l3.1,1.8,1.3-.8-1.4-2.7Z" fill="#ffd884"/>
              <path id="XMLID_254_" d="M235.4,388.6l-21.8,12.6L215,404l24.4-14.1A16.91,16.91,0,0,0,235.4,388.6Z" fill="#ffd884"/>
              <path id="XMLID_253_" d="M213.8,412.4l2.5,1.5a28.1,28.1,0,0,1-.1-2.9Z" fill="#ffd884"/>
              <path id="XMLID_252_" d="M248.4,396a23.214,23.214,0,0,0-2.5-2.1L216.2,411a28.1,28.1,0,0,0,.1,2.9l.6.3Z" fill="#ffd884"/>
              <path id="XMLID_251_" d="M226.2,420.5l29-16.7c-.6-.9-1.3-1.7-1.9-2.5l-30.2,17.4Z" fill="#ffd884"/>
              <path id="XMLID_250_" d="M235.6,426.7l24.9-14.4-1.5-2.7-26.5,15.3Z" fill="#ffd884"/>
              <path id="XMLID_249_" d="M244.9,432.9l19.5-11.3c-.3-1-.7-2-1.1-3L241.8,431Z" fill="#ffd884"/>
              <path id="XMLID_248_" d="M240.5,443.7l3.1,1.8L267,432c-.2-1.1-.4-2.2-.6-3.2Z" fill="#ffd884"/>
              <path id="XMLID_247_" d="M228.6,463.5l3.1,1.8,9.8-5.7c-1-.6-1.9-1.2-2.9-1.9Z" fill="#ffd884"/>
              <path id="XMLID_246_" d="M241.6,459.6l25.9-15c.1-1.2.2-2.4.2-3.7l-29,16.7A25.142,25.142,0,0,0,241.6,459.6Z" fill="#ffd884"/>
              <path id="XMLID_245_" d="M246.8,468.1l10.9-6.3a15.455,15.455,0,0,0,7.4-7.7l-19.6,11.3Z" fill="#ffd884"/>
            </g>
            <g id="XMLID_238_">
              <path id="XMLID_243_" d="M203.3,418.1c0,19,11.5,41,25.7,49.2s25.7-.5,25.7-19.5-11.5-41-25.7-49.2C214.9,390.4,203.3,399.1,203.3,418.1Z" fill="#febe2b"/>
              <g id="XMLID_239_">
                <path id="XMLID_240_" d="M237.6,465.1a17.093,17.093,0,0,1-8.9-2.8c-11.9-7-21.8-25.8-21.9-41.8h0c-.1-8.6,2.7-15.1,7.5-17.9,4.1-2.3,9.3-1.9,14.6,1.3,11.9,7,21.8,25.8,21.9,41.8.1,8.6-2.7,15.1-7.5,17.9A11.566,11.566,0,0,1,237.6,465.1Zm-17.7-62.4A8.987,8.987,0,0,0,215,404c-4.4,2.5-6.9,8.6-6.8,16.6h0c.2,15.5,9.7,33.7,21.2,40.5,4.9,2.9,9.5,3.3,13.1,1.3,4.4-2.5,6.9-8.6,6.8-16.6-.2-15.5-9.7-33.7-21.2-40.5A16.633,16.633,0,0,0,219.9,402.7Z" fill="#e59e24"/>
              </g>
            </g>
            <g id="XMLID_235_">
              <path id="XMLID_236_" d="M232.5,427.3c-1.1-2.1-2-3.4-3.2-4.2-1.4-.8-2.2-.4-2.2,1.7,0,4.3,7.8,8.5,7.8,17.2,0,4.4-1.6,6.9-4.6,6.1v4.8l-2.9-1.7v-4.6a19.787,19.787,0,0,1-5.2-6.5l1.9-3.4c1.5,2.6,2.8,4.3,4.2,5.1,1.7,1,2.4.3,2.4-1.8,0-4.7-7.8-9.1-7.8-17.4,0-4.5,1.7-6.6,4.5-5.8v-4.7l2.9,1.7v4.6a16.234,16.234,0,0,1,4.4,6.3Z" fill="#fff"/>
            </g>
          </g>
          <path id="XMLID_233_" d="M182.1,504.1s15.3-5.2,20.6-9.7,12.4-9.4,19.2-14.5c6.9-5.1,13.5-8.4,17-14.2,3.5-5.9,1.8-12.6,4.1-11.3,2.3,1.2,2.9,5.8,1.9,8.8s3.7-2.5,11.9-3.6c8.2-1.2,6.3.4,2.8,9.1-2,4.9-6.5,7.5-11.7,7.7s-10.9,7-15.2,12c-4.3,4.9-15.7,15.1-22.4,20.3-6.6,5.2-21.1,11.2-21.1,11.2Z" fill="#fbc3b2"/>
          <g id="XMLID_230_">
            <path id="XMLID_232_" d="M151,571.9c6.5,5.1,18.8,8.2,26.4,8.7s5.2-7.8,4.8-14.6c-.5-6.8-8.7-.6-14.2-.1s-9.6-.5-9.6-4.6c.1-4.1,4.5.5,14.9,0s9-12.5,11.4-17.3c3.4-6.6,1.5-8.9-2.6-6.1-4.1,2.7-6.6,5.6-6.5.2,0-5.4,4.7-4.7,10.1-9.8s11.6-11.5,18.5-15.9c4.6-3,8.6-10.4,10.8-15.1a16.62,16.62,0,0,0-6.9-7.5s-9.1,3.3-18.9,8c-9.5,4.6-11.4,4.7-11.4,4.7s-15.6,5.5-17.8-3.2c-3.8-.4-10.9-.2-12.3,8.6-1.4,8.6,1.8,34.3-2.9,57.9A39.846,39.846,0,0,0,151,571.9Z" fill="#f05050"/>
            <path id="XMLID_231_" d="M165.7,588.2c11.4,4.8,23.1,2.7,28.3-2.8,2.3-24.7-4.2-54.9-1.5-58.4,5.6-7.2,20.9-12.1,22.3-19.1,1.7-4.3,1.4-7.8.2-10.6-2.2,4.7-6.2,12.1-10.8,15.1-7,4.5-13.2,10.9-18.5,15.9-5.4,5.1-10,4.4-10.1,9.8,0,5.4,2.4,2.6,6.5-.2,4.1-2.7,6-.5,2.6,6.1-2.4,4.7-1,16.8-11.4,17.3s-14.9-4.1-14.9,0c-.1,4.1,4.1,5,9.6,4.6,5.5-.5,13.7-6.7,14.2.1s2.9,15-4.8,14.6c-7.6-.5-19.9-3.6-26.4-8.7a52.232,52.232,0,0,1-6.3-6.1c-.1.3-.1.6-.2.9C144.5,575.6,148.8,581,165.7,588.2Z" fill="#ea2f43"/>
          </g>
          <path id="XMLID_229_" d="M207.4,448.9a56.924,56.924,0,0,0,2-5.7c.6-2.3,1.3-2.8,1.3-2.8a4.621,4.621,0,0,1,.9,4.2c-.6,2.7,1.4,5.1,1.2,7.1C212.8,453.8,207.4,448.9,207.4,448.9Z" fill="#fbc3b2"/>
        </g>
        <g id="XMLID_181_">
          <path id="XMLID_227_" d="M107.7,389.2a88.322,88.322,0,0,0-10.5-1.3s.7-.8,1.5-4.5.1-6.3-1.5-3.4c-1.6,3-3.6,7.5-11.5,11.1C78,394.7,55,381.3,55,381.3l-1.4,2c-2.1,16.8,10.8,15.6,10.8,15.6s12,3.2,19.9,2.9c8.9-.4,16.3-1.2,21.4-2.4C117.3,396.5,112.8,390.2,107.7,389.2Z" fill="#c15a2a"/>
          <g id="XMLID_182_">
            <g id="XMLID_224_">
              <path id="XMLID_226_" d="M38.5,625.9c5.8-2.9,11.3-6.4,9.5-9.7-.8-1.5-2.6-2.1-4.4-2.4-5.3,1.8-8,2.9-8,2.9s.6-30.9,2.8-43.7c.8-4.2-19.4-4.4-19.4-4.4-.7,3-1.4,28.9,0,44.7a43.506,43.506,0,0,1-.2,11.3c1.4.6,4.2,1.8,6.3,2.8C28,628.8,32.7,628.8,38.5,625.9Z" fill="#c15a2a"/>
              <path id="XMLID_225_" d="M18.6,633.1c1.9,4.6,6.4,4.2,15.4.9,8-2.9,14.6-6.1,20.2-10.3,5.7-4.2,5.7-4.8,6.5-7.6,1-4-4.8-6.2-14.4-3.2-1,.3-1.8.6-2.7.8,1.8.3,3.6,1,4.4,2.4,1.8,3.3-3.7,6.8-9.5,9.7s-10.5,2.9-13.4,1.6c-2.1-1-4.9-2.2-6.3-2.8C18.2,628.5,17.4,630.3,18.6,633.1Z" fill="#2d2e2d"/>
            </g>
            <g id="XMLID_221_">
              <path id="XMLID_223_" d="M66.6,642.2c5.8-2.9,11.3-6.4,9.5-9.7-.8-1.5-2.6-2.1-4.4-2.4-5.3,1.8-8,2.9-8,2.9s1.5-48.5,3.8-61.3c.8-4.2-19.5,2.1-19.5,2.1-.7,3-2.2,40-.9,55.8a43.506,43.506,0,0,1-.2,11.3c1.4.6,4.2,1.8,6.3,2.8C56.1,645.1,60.8,645.1,66.6,642.2Z" fill="#d77745"/>
              <path id="XMLID_222_" d="M46.7,649.4c1.9,4.6,6.4,4.2,15.4.9,8-2.9,14.6-6.1,20.2-10.3,5.7-4.2,5.7-4.8,6.5-7.6,1-4-4.8-6.2-14.4-3.2-1,.3-1.8.6-2.7.8,1.8.3,3.6,1,4.4,2.4,1.8,3.3-3.7,6.8-9.5,9.7s-10.5,2.9-13.4,1.6c-2.1-1-4.9-2.2-6.3-2.8C46.3,644.8,45.5,646.6,46.7,649.4Z" fill="#2d2e2d"/>
            </g>
            <g id="XMLID_193_">
              <g id="XMLID_205_">
                <path id="XMLID_220_" d="M120.4,346.9c-.9-.5-1.8-.9-2.6-1.3L93.4,359.7l1.4,2.9c-.1,1.2-.2,2.5-.2,3.8v.4l29.7-17.1A20.11,20.11,0,0,0,120.4,346.9Z" fill="#e59e24"/>
                <path id="XMLID_219_" d="M120.4,415.5c.3.2.7.3,1,.5l2.5,5,19.6-11.3a28.111,28.111,0,0,0,2.5-9.4l-25.9,15C120.1,415.4,120.3,415.5,120.4,415.5Z" fill="#e59e24"/>
                <path id="XMLID_218_" d="M103.5,345.6h0l-13.3,7.6,1.8,3.6,21.8-12.6A14.327,14.327,0,0,0,103.5,345.6Z" fill="#e59e24"/>
                <path id="XMLID_217_" d="M119,399.4l25.9-14.9a57.477,57.477,0,0,0-2-7.1l-19.5,11.3-3.1-1.8,21.5-12.4c-.9-2.2-1.8-4.3-2.9-6.4L114,382.4l-3.1-1.8,26.5-15.3a57.925,57.925,0,0,0-3.8-5.8l-29,16.7-3.1-1.8L131.7,357a48.5,48.5,0,0,0-4.9-5.2L95.3,370l-.6-.3c1.1,16.7,10.5,34.9,22.4,43.8l29-16.7v-.5a59.489,59.489,0,0,0-.7-8.4L122,401.4Z" fill="#e59e24"/>
                <path id="XMLID_216_" d="M89,358.6l3.1,1.8,1.3-.8L92,356.8Z" fill="#ffd884"/>
                <path id="XMLID_215_" d="M113.8,344.2,92,356.8l1.4,2.8,24.4-14.1A37.021,37.021,0,0,0,113.8,344.2Z" fill="#ffd884"/>
                <path id="XMLID_214_" d="M92.2,368.1l2.5,1.5a28.1,28.1,0,0,1-.1-2.9Z" fill="#ffd884"/>
                <path id="XMLID_213_" d="M126.9,351.7a23.214,23.214,0,0,0-2.5-2.1L94.7,366.7a28.1,28.1,0,0,0,.1,2.9l.6.3Z" fill="#ffd884"/>
                <path id="XMLID_212_" d="M104.7,376.1l29-16.7c-.6-.9-1.3-1.7-1.9-2.5l-30.2,17.4Z" fill="#ffd884"/>
                <path id="XMLID_211_" d="M114,382.4,138.9,368l-1.5-2.7-26.5,15.3Z" fill="#ffd884"/>
                <path id="XMLID_210_" d="M123.3,388.6l19.5-11.3c-.3-1-.7-2-1.1-3l-21.5,12.4Z" fill="#ffd884"/>
                <path id="XMLID_209_" d="M119,399.4l3.1,1.8,23.4-13.5c-.2-1.1-.4-2.2-.6-3.2Z" fill="#ffd884"/>
                <path id="XMLID_208_" d="M107.1,419.2l3.1,1.8,9.8-5.7c-1-.6-1.9-1.2-2.9-1.9Z" fill="#ffd884"/>
                <path id="XMLID_207_" d="M120,415.3l25.9-15c.1-1.2.2-2.4.2-3.7l-29,16.7A25.137,25.137,0,0,0,120,415.3Z" fill="#ffd884"/>
                <path id="XMLID_206_" d="M125.2,423.7l10.9-6.3a15.455,15.455,0,0,0,7.4-7.7L123.9,421Z" fill="#ffd884"/>
              </g>
              <g id="XMLID_199_">
                <path id="XMLID_204_" d="M81.8,373.7c0,19,11.5,41,25.7,49.2s25.7-.5,25.7-19.5-11.5-41-25.7-49.2C93.3,346.1,81.8,354.8,81.8,373.7Z" fill="#febe2b"/>
                <g id="XMLID_200_">
                  <path id="XMLID_201_" d="M116,420.8a17.093,17.093,0,0,1-8.9-2.8c-11.9-7-21.8-25.8-21.9-41.8h0c-.1-8.6,2.7-15.1,7.5-17.9,4.1-2.3,9.3-1.9,14.6,1.3,11.9,7,21.8,25.8,21.9,41.8.1,8.6-2.7,15.1-7.5,17.9A11.566,11.566,0,0,1,116,420.8ZM98.3,358.4a8.987,8.987,0,0,0-4.9,1.3c-4.4,2.5-6.9,8.6-6.8,16.6h0c.2,15.5,9.7,33.7,21.2,40.5,4.9,2.9,9.5,3.3,13.1,1.3,4.4-2.5,6.9-8.6,6.8-16.6-.2-15.5-9.7-33.7-21.2-40.5A15.668,15.668,0,0,0,98.3,358.4Z" fill="#e59e24"/>
                </g>
              </g>
              <g id="XMLID_196_">
                <path id="XMLID_197_" d="M111,383c-1.1-2.1-2-3.4-3.2-4.2-1.4-.8-2.2-.4-2.2,1.7,0,4.3,7.8,8.5,7.8,17.2,0,4.4-1.6,6.9-4.6,6.1v4.8l-2.9-1.7v-4.6a19.787,19.787,0,0,1-5.2-6.5l1.9-3.4c1.5,2.6,2.8,4.3,4.2,5.1,1.7,1,2.4.3,2.4-1.8,0-4.7-7.8-9.1-7.8-17.4,0-4.5,1.7-6.6,4.5-5.8v-4.7l2.9,1.7v4.6a16.234,16.234,0,0,1,4.4,6.3Z" fill="#fff"/>
              </g>
            </g>
            <path id="XMLID_190_" d="M47,302.7c2.4,1.7,11.3,3.7,13.8,23.3,2.2,17.4-1.6,21.9-5.2,23.4-1.9.8-8.9.8-8.9.8l.3,14.7s-8.6,3.4-16.9,0l-8.3-3.4s3.2-5.6,2.7-15.2c-.7-11.9-4.9-28.9-1.9-35.2C28.1,299.7,40.5,298.2,47,302.7Z" fill="#d77745"/>
            <path id="XMLID_189_" d="M17.5,352.3S41,359.1,47,361.1c5.7,1.9,10.2,5.8,16.1,17.7s1.6,29.9,1.6,29.9l-1.8,32.5s-12.3,14.9-23.2,15.9c-14.9,1.4-16.6-6.8-16.6-6.8s-19-41.6-15.9-61.5C10,370.8,17.5,352.3,17.5,352.3Z" fill="#febe2b"/>
            <path id="XMLID_188_" d="M61.4,319.3c-.6,6.7-6.2,8.7-11.1,13.9-4.9,5.1-5.4,12-6.9,16.6s.6,25.1-6.9,40.5c-8,16.4-18.2,20-18.2,20S4,388.4-1.1,361.8s13.3-61.2,33-65.3C53,292.1,62.7,305.5,61.4,319.3Z" fill="#2d2e2d"/>
            <path id="XMLID_187_" d="M57.7,372c-4.9-.5-9.9,8.4-9.4,19.4.6,14.1,30.1,38.2,30.1,38.2,9.9,5.9,39.7-3.3,46.9-4.2,7.2-.8,11.1-1.3,14.9-6.1,3.6-4.5-5.2-8-5.2-8a9.16,9.16,0,0,0,2.6-8.5c-1.3-6.6-2.7,2.9-6.9,6.4-4.7,3.8-6.1,5.6-10.2,6.2-18.3,2.7-35.6-1.3-35.6-1.3S67,372.9,57.7,372Z" fill="#d77745"/>
            <path id="XMLID_186_" d="M34.1,296.1s19.1,1.6,17.6,18.1-1.4,19-1.4,19a168.388,168.388,0,0,0,5.3-17.4C57.4,308.3,55,291,34.1,296.1Z" fill="#febe2b"/>
            <path id="XMLID_185_" d="M55.6,329s-5.2-8.8-7.4,0a8.993,8.993,0,0,0,5.1,11Z" fill="#d77745"/>
            <path id="XMLID_184_" d="M21.6,434.2S15,453.8,13,465.4c-5,29-3.4,106.5-3.4,106.5s26.2,14.9,44.2,13.7C80.2,583.8,88,571.9,88,571.9s-10.7-75.4-12.5-88.5c-3.5-26-14.8-50.9-14.8-50.9Z" fill="#febe2b"/>
            <path id="XMLID_183_" d="M17.6,447s17.6,6.1,30.3,1.9c12.6-4.3,16.7-6.9,16.7-6.9l-1.5-7.3a85.407,85.407,0,0,1-21.8,5.9c-12.2,1.8-23.6-3.2-23.6-3.2Z" fill="#e59e24"/>
          </g>
        </g>
      </g>
      <g id="XMLID_4_">
        <g id="XMLID_159_">
          <rect id="XMLID_179_" width="74.4" height="9.6" transform="translate(342.5 643.1)" fill="#e59e24"/>
          <g id="XMLID_165_">
            <path id="XMLID_178_" d="M416.9,652.7a10.009,10.009,0,0,0-2.4-6.1v12.1A9,9,0,0,0,416.9,652.7Z" fill="#e59e24"/>
            <path id="XMLID_177_" d="M414.2,646.1c-5.5-6.4-18.9-10.8-34.4-10.8-20.5,0-37.2,7.8-37.2,17.4a10.358,10.358,0,0,0,3.1,7V646.2h2.4v15.6a33.1,33.1,0,0,0,5,3.1V650.3h2.4V666c1.6.6,3.3,1.2,5,1.7V654.3h2.4v14c1.6.4,3.3.7,5,1v-15h2.4v15.3c1.6.2,3.3.4,5,.5V654.3h2.4v15.9c.7,0,1.4.1,2.1.1a28.109,28.109,0,0,0,2.9-.1V654.3h2.4V670c1.7-.1,3.4-.3,5-.5V654.3h2.4v14.9c1.7-.3,3.4-.6,5-1V654.4h2.4v13.2a48.084,48.084,0,0,0,5-1.8V650.5h2.4v14.2a27.088,27.088,0,0,0,5-3.3V646.3h1.9Z" fill="#e59e24"/>
            <path id="XMLID_176_" d="M345.7,646.1v13.5a25.726,25.726,0,0,0,2.4,2.1V646.1Z" fill="#febe2b"/>
            <path id="XMLID_175_" d="M353,650.2v14.6a13.321,13.321,0,0,0,2.4,1V650.1H353Z" fill="#febe2b"/>
            <path id="XMLID_174_" d="M360.4,654.2v13.4c.8.2,1.5.4,2.4.6v-14Z" fill="#febe2b"/>
            <path id="XMLID_173_" d="M367.8,654.2v15l2.4.3V654.2Z" fill="#febe2b"/>
            <path id="XMLID_172_" d="M375.2,654.2V670c.8,0,1.6.1,2.4.1V654.2h-2.4Z" fill="#febe2b"/>
            <path id="XMLID_171_" d="M382.6,654.2v15.9c.8,0,1.6-.1,2.4-.1V654.3h-2.4Z" fill="#febe2b"/>
            <path id="XMLID_170_" d="M390,654.2v15.2a20.016,20.016,0,0,0,2.4-.4V654.1H390Z" fill="#febe2b"/>
            <path id="XMLID_169_" d="M397.4,654.2V668a21.723,21.723,0,0,0,2.4-.7V654.1h-2.4Z" fill="#febe2b"/>
            <path id="XMLID_168_" d="M404.8,650.2v15.3c.8-.4,1.6-.7,2.4-1.1V650.2Z" fill="#febe2b"/>
            <path id="XMLID_167_" d="M414.6,646.1h-.4c.2.2.3.4.4.5Z" fill="#febe2b"/>
            <path id="XMLID_166_" d="M414.6,658.8V646.7a2.181,2.181,0,0,0-.4-.5h-1.9v15.1C413.1,660.4,413.9,659.6,414.6,658.8Z" fill="#febe2b"/>
          </g>
          <ellipse id="XMLID_164_" cx="37.2" cy="17.4" rx="37.2" ry="17.4" transform="translate(342.5 625.7)" fill="#fee7a4"/>
          <ellipse id="XMLID_163_" cx="28.8" cy="13.5" rx="28.8" ry="13.5" transform="translate(350.9 628.9)" fill="#febe2b"/>
          <g id="XMLID_160_">
            <path id="XMLID_161_" d="M388.4,641.2c.5-1.1.6-2-.4-2.7a4.047,4.047,0,0,0-4.2-.3c-3.8,1.5,2.2,6-5.5,9-3.9,1.5-8,1.7-11.1.2L363,649l-2.1-1.7,4-1.5a4.018,4.018,0,0,1-.8-4.3l5.4-.4c-.4,1.5-.3,2.6.8,3.4,1.2,1,2.7,1.1,4.5.4,4.2-1.6-1.7-6.2,5.6-9,3.9-1.5,8-1.5,10.8-.2l4.2-1.6,2.1,1.7-4.1,1.6a3.027,3.027,0,0,1-.1,3.9Z" fill="#fff"/>
          </g>
        </g>
        <g id="XMLID_80_">
          <rect id="XMLID_158_" width="74.4" height="9.6" transform="translate(414.4 618.9)" fill="#e59e24"/>
          <g id="XMLID_86_">
            <path id="XMLID_157_" d="M488.7,628.5a10.009,10.009,0,0,0-2.4-6.1v12.1A9.2,9.2,0,0,0,488.7,628.5Z" fill="#e59e24"/>
            <path id="XMLID_156_" d="M486,621.9c-5.5-6.4-18.9-10.8-34.4-10.8-20.5,0-37.2,7.8-37.2,17.4a10.358,10.358,0,0,0,3.1,7V622h2.4v15.6a33.1,33.1,0,0,0,5,3.1V626h2.4v15.7c1.6.6,3.3,1.2,5,1.7V630h2.4v14c1.6.4,3.3.7,5,1V630h2.4v15.3c1.6.2,3.3.4,5,.5V630h2.4v15.9c.7,0,1.4.1,2.1.1a28.109,28.109,0,0,0,2.9-.1V630h2.4v15.7c1.7-.1,3.4-.3,5-.5V630h2.4v14.9c1.7-.3,3.4-.6,5-1V630h2.4v13.2a48.084,48.084,0,0,0,5-1.8V626h2.4v14.2a27.088,27.088,0,0,0,5-3.3V621.8H486Z" fill="#e59e24"/>
            <path id="XMLID_155_" d="M417.5,621.9v13.5a25.726,25.726,0,0,0,2.4,2.1V621.9Z" fill="#febe2b"/>
            <path id="XMLID_154_" d="M424.9,626v14.6a13.321,13.321,0,0,0,2.4,1V626Z" fill="#febe2b"/>
            <path id="XMLID_153_" d="M432.3,630v13.4c.8.2,1.5.4,2.4.6V630Z" fill="#febe2b"/>
            <path id="XMLID_152_" d="M439.7,630v15l2.4.3V630Z" fill="#febe2b"/>
            <path id="XMLID_151_" d="M447,630v15.8c.8,0,1.6.1,2.4.1V630Z" fill="#febe2b"/>
            <path id="XMLID_150_" d="M454.4,630v15.9c.8,0,1.6-.1,2.4-.1V630Z" fill="#febe2b"/>
            <path id="XMLID_149_" d="M461.8,630v15.2a20.016,20.016,0,0,0,2.4-.4V630Z" fill="#febe2b"/>
            <path id="XMLID_148_" d="M469.2,630v13.8a21.723,21.723,0,0,0,2.4-.7V630Z" fill="#febe2b"/>
            <path id="XMLID_147_" d="M476.6,626v15.3c.8-.4,1.6-.7,2.4-1.1V626Z" fill="#febe2b"/>
            <path id="XMLID_146_" d="M486.4,621.9H486c.2.2.3.4.4.5Z" fill="#febe2b"/>
            <path id="XMLID_145_" d="M486.4,634.5V622.4a2.181,2.181,0,0,0-.4-.5h-2V637A18.781,18.781,0,0,0,486.4,634.5Z" fill="#febe2b"/>
          </g>
          <ellipse id="XMLID_85_" cx="37.2" cy="17.4" rx="37.2" ry="17.4" transform="translate(414.3 601.5)" fill="#fee7a4"/>
          <ellipse id="XMLID_84_" cx="28.8" cy="13.5" rx="28.8" ry="13.5" transform="translate(422.7 604.7)" fill="#febe2b"/>
          <g id="XMLID_81_">
            <path id="XMLID_82_" d="M460.2,617c.5-1.1.6-2-.4-2.7a4.047,4.047,0,0,0-4.2-.3c-3.8,1.5,2.2,6-5.5,9-3.9,1.5-8,1.7-11.1.2l-4.2,1.6-2.1-1.7,4-1.5a4.018,4.018,0,0,1-.8-4.3l5.4-.4c-.4,1.5-.3,2.6.8,3.4,1.2,1,2.7,1.1,4.5.4,4.2-1.6-1.7-6.2,5.6-9,3.9-1.5,8-1.5,10.8-.2l4.2-1.6,2.1,1.7-4.1,1.6a3.027,3.027,0,0,1-.1,3.9Z" fill="#fff"/>
          </g>
        </g>
        <g id="XMLID_59_">
          <rect id="XMLID_79_" width="74.4" height="9.6" transform="translate(366.7 613.4)" fill="#e59e24"/>
          <g id="XMLID_65_">
            <path id="XMLID_78_" d="M441,623a10.009,10.009,0,0,0-2.4-6.1V629A9,9,0,0,0,441,623Z" fill="#e59e24"/>
            <path id="XMLID_77_" d="M438.3,616.4c-5.5-6.4-18.9-10.8-34.4-10.8-20.5,0-37.2,7.8-37.2,17.4a10.358,10.358,0,0,0,3.1,7V616.5h2.4v15.6a33.1,33.1,0,0,0,5,3.1V620.6h2.4v15.7c1.6.6,3.3,1.2,5,1.7V624.6H387v14c1.6.4,3.3.7,5,1v-15h2.4v15.3c1.6.2,3.3.4,5,.5V624.6h2.4v15.9c.7,0,1.4.1,2.1.1a28.109,28.109,0,0,0,2.9-.1V624.6h2.4v15.7c1.7-.1,3.4-.3,5-.5V624.6h2.4v14.9c1.7-.3,3.4-.6,5-1V624.7H424v13.2a48.084,48.084,0,0,0,5-1.8V620.8h2.4V635a27.088,27.088,0,0,0,5-3.3V616.6h1.9Z" fill="#e59e24"/>
            <path id="XMLID_76_" d="M369.8,616.4V630a25.726,25.726,0,0,0,2.4,2.1V616.5h-2.4Z" fill="#febe2b"/>
            <path id="XMLID_75_" d="M377.2,620.5v14.6a13.321,13.321,0,0,0,2.4,1V620.4h-2.4Z" fill="#febe2b"/>
            <path id="XMLID_74_" d="M384.6,624.5v13.4c.8.2,1.5.4,2.4.6v-14Z" fill="#febe2b"/>
            <path id="XMLID_73_" d="M392,624.5v15l2.4.3V624.5Z" fill="#febe2b"/>
            <path id="XMLID_72_" d="M399.3,624.5v15.8c.8,0,1.6.1,2.4.1V624.5h-2.4Z" fill="#febe2b"/>
            <path id="XMLID_71_" d="M406.7,624.5v15.9c.8,0,1.6-.1,2.4-.1V624.6h-2.4Z" fill="#febe2b"/>
            <path id="XMLID_70_" d="M414.1,624.5v15.2a20.016,20.016,0,0,0,2.4-.4V624.4h-2.4Z" fill="#febe2b"/>
            <path id="XMLID_69_" d="M421.5,624.5v13.8a21.723,21.723,0,0,0,2.4-.7V624.4h-2.4Z" fill="#febe2b"/>
            <path id="XMLID_68_" d="M428.9,620.5v15.3c.8-.4,1.6-.7,2.4-1.1V620.5Z" fill="#febe2b"/>
            <path id="XMLID_67_" d="M438.7,616.4h-.4c.2.2.3.4.4.5Z" fill="#febe2b"/>
            <path id="XMLID_66_" d="M438.7,629.1V617a2.181,2.181,0,0,0-.4-.5h-1.9v15.1C437.2,630.7,438,629.9,438.7,629.1Z" fill="#febe2b"/>
          </g>
          <ellipse id="XMLID_64_" cx="37.2" cy="17.4" rx="37.2" ry="17.4" transform="translate(366.6 596)" fill="#fee7a4"/>
          <ellipse id="XMLID_63_" cx="28.8" cy="13.5" rx="28.8" ry="13.5" transform="translate(375 599.3)" fill="#febe2b"/>
          <g id="XMLID_60_">
            <path id="XMLID_61_" d="M412.5,611.5c.5-1.1.6-2-.4-2.7a4.047,4.047,0,0,0-4.2-.3c-3.8,1.5,2.2,6-5.5,9-3.9,1.5-8,1.7-11.1.2l-4.2,1.6-2.1-1.7,4-1.5a4.018,4.018,0,0,1-.8-4.3l5.4-.4c-.4,1.5-.3,2.6.8,3.4,1.2,1,2.7,1.1,4.5.4,4.2-1.6-1.7-6.2,5.6-9,3.9-1.5,8-1.5,10.8-.2l4.2-1.6,2.1,1.7-4.1,1.6a3.027,3.027,0,0,1-.1,3.9Z" fill="#fff"/>
          </g>
        </g>
        <g id="XMLID_6_">
          <rect id="XMLID_57_" width="74.4" height="9.6" transform="translate(381.4 592.7)" fill="#e59e24"/>
          <g id="XMLID_24_">
            <path id="XMLID_56_" d="M455.8,602.3a10.009,10.009,0,0,0-2.4-6.1v12.1A9.747,9.747,0,0,0,455.8,602.3Z" fill="#e59e24"/>
            <path id="XMLID_55_" d="M453,595.7c-5.5-6.4-18.9-10.8-34.4-10.8-20.5,0-37.2,7.8-37.2,17.4a10.358,10.358,0,0,0,3.1,7V595.8h2.4v15.6a33.1,33.1,0,0,0,5,3.1V599.9h2.4v15.7c1.6.6,3.3,1.2,5,1.7V603.9h2.4v14c1.6.4,3.3.7,5,1v-15h2.4v15.3c1.6.2,3.3.4,5,.5V603.9h2.4v15.9c.7,0,1.4.1,2.1.1a28.109,28.109,0,0,0,2.9-.1V603.9h2.4v15.7c1.7-.1,3.4-.3,5-.5V603.9h2.4v14.9c1.7-.3,3.4-.6,5-1V604h2.4v13.2a48.084,48.084,0,0,0,5-1.8V600.1h2.4V614a27.088,27.088,0,0,0,5-3.3V595.6H453Z" fill="#e59e24"/>
            <path id="XMLID_54_" d="M384.5,595.7v13.5a25.726,25.726,0,0,0,2.4,2.1V595.7Z" fill="#febe2b"/>
            <path id="XMLID_53_" d="M391.9,599.8v14.6a13.321,13.321,0,0,0,2.4,1V599.7h-2.4Z" fill="#febe2b"/>
            <path id="XMLID_52_" d="M399.3,603.8v13.4c.8.2,1.5.4,2.4.6v-14Z" fill="#febe2b"/>
            <path id="XMLID_51_" d="M406.7,603.8v15l2.4.3V603.8Z" fill="#febe2b"/>
            <path id="XMLID_50_" d="M414.1,603.8v15.8c.8,0,1.6.1,2.4.1V603.8h-2.4Z" fill="#febe2b"/>
            <path id="XMLID_48_" d="M421.5,603.8v15.9c.8,0,1.6-.1,2.4-.1V603.9h-2.4Z" fill="#febe2b"/>
            <path id="XMLID_31_" d="M428.9,603.8V619a20.016,20.016,0,0,0,2.4-.4V603.7h-2.4Z" fill="#febe2b"/>
            <path id="XMLID_29_" d="M436.3,603.8v13.8a21.723,21.723,0,0,0,2.4-.7V603.7h-2.4Z" fill="#febe2b"/>
            <path id="XMLID_28_" d="M443.7,599.8v15.3c.8-.4,1.6-.7,2.4-1.1V599.8Z" fill="#febe2b"/>
            <path id="XMLID_27_" d="M453.4,595.7H453c.2.2.3.4.4.5Z" fill="#febe2b"/>
            <path id="XMLID_26_" d="M453.4,608.3V596.2a2.181,2.181,0,0,0-.4-.5h-1.9v15.1A17.935,17.935,0,0,0,453.4,608.3Z" fill="#febe2b"/>
          </g>
          <ellipse id="XMLID_23_" cx="37.2" cy="17.4" rx="37.2" ry="17.4" transform="translate(381.4 575.3)" fill="#fee7a4"/>
          <ellipse id="XMLID_22_" cx="28.8" cy="13.5" rx="28.8" ry="13.5" transform="translate(389.8 578.5)" fill="#febe2b"/>
          <g id="XMLID_7_">
            <path id="XMLID_8_" d="M427.3,590.8c.5-1.1.6-2-.4-2.7a4.047,4.047,0,0,0-4.2-.3c-3.8,1.5,2.2,6-5.5,9-3.9,1.5-8,1.7-11.1.2l-4.2,1.6-2.1-1.7,4-1.5a4.018,4.018,0,0,1-.8-4.3l5.4-.4c-.4,1.5-.3,2.6.8,3.4,1.2,1,2.7,1.1,4.5.4,4.2-1.6-1.7-6.2,5.6-9,3.9-1.5,8-1.5,10.8-.2l4.2-1.6,2.1,1.7-4.1,1.6a3.027,3.027,0,0,1-.1,3.9Z" fill="#fff"/>
          </g>
        </g>
      </g>
    </g>
  </g>
</svg>
