<?xml version="1.0" encoding="utf-8"?>
<!-- Generator: Adobe Illustrator 19.0.0, SVG Export Plug-In . SVG Version: 6.00 Build 0)  -->
<svg version="1.1" id="Layer_1" xmlns="http://www.w3.org/2000/svg" xmlns:xlink="http://www.w3.org/1999/xlink" x="0px" y="0px"
	 viewBox="0 0 400 300" style="enable-background:new 0 0 400 300;" xml:space="preserve">
<style type="text/css">
	.st0{opacity:0.39;fill:#2A2766;}
	.st1{fill:#EA443E;}
	.st2{fill:#FCBA72;}
	.st3{fill:#F48B9C;}
	.st4{fill:#FBD237;}
	.st5{fill:#50566B;}
	.st6{fill:#D1744A;}
	.st7{fill:#34384F;}
	.st8{fill:none;stroke:#34384F;stroke-width:9.7637;stroke-miterlimit:10;}
	.st9{fill:#DDA8A1;}
	.st10{fill:#F6958B;}
	.st11{fill:#2A2766;}
	.st12{fill:#2F2F80;}
	.st13{fill:#FFF5E5;}
	.st14{fill:#F9C4BA;}
	.st15{fill:#2D2B6D;}
	.st16{clip-path:url(#XMLID_180_);fill:#473891;}
	.st17{clip-path:url(#XMLID_180_);}
	.st18{fill:none;stroke:#F9C4BA;stroke-width:10;stroke-linecap:round;stroke-linejoin:round;stroke-miterlimit:10;}
	.st19{fill:#FFFFFF;}
	.st20{fill:#965954;}
	.st21{opacity:0.66;fill:#F58776;}
	.st22{fill:none;stroke:#723516;stroke-width:3.9776;stroke-linecap:round;stroke-linejoin:round;stroke-miterlimit:10;}
	.st23{opacity:0.36;}
	.st24{fill:none;stroke:#3F1F22;stroke-width:1.8532;stroke-linecap:round;stroke-linejoin:round;stroke-miterlimit:10;}
	.st25{fill:#473891;}
	.st26{fill:#373A50;}
	.st27{opacity:0.38;fill:#974E61;}
	.st28{fill:#EF423B;}
	.st29{fill:#E9534F;}
	.st30{fill:#974E61;}
	.st31{fill:#F15E5F;}
	.st32{fill:#1E2547;}
	.st33{fill:#A93636;}
	.st34{fill:none;stroke:#F9C4BA;stroke-width:15;stroke-linecap:round;stroke-linejoin:round;stroke-miterlimit:10;}
	.st35{fill:#B78C55;}
	.st36{fill:#C8A16C;}
	.st37{fill:#2C355E;}
	.st38{fill:#F79E95;}
	.st39{opacity:0.3;fill:#F595A4;}
	.st40{fill:#F9C8C1;}
	.st41{fill:#723A1B;}
	.st42{fill:#F69183;}
	.st43{fill:#A65857;}
	.st44{fill:#7D4040;}
	.st45{fill:none;stroke:#34384F;stroke-width:2.6961;stroke-linecap:round;stroke-linejoin:round;stroke-miterlimit:10;}
	.st46{font-family:'Montserrat-SemiBold';}
	.st47{font-size:19.2364px;}
     #XMLID_15_ {
		 <!-- animation : motion 7s infinite -->
		 height:100px
		 
	 }
	  @keyframes motion 
	 {
		0%
		{
			display:none 
		}
		50%
		{
			height:100px

		}
		100%
		{
			display:none
		}
	 }
</style>
<g>
	<path id="XMLID_177_" class="st0" d="M187.4,270.4H2.6c-1.2,0-2.2-1.7-2.2-3.8l0,0c0-2.1,1-3.8,2.2-3.8h184.8
		c1.2,0,2.2,1.7,2.2,3.8l0,0C189.6,268.7,188.6,270.4,187.4,270.4z"/>
	<path id="XMLID_176_" class="st0" d="M396.1,270.4H256.6c-2.1,0-3.8-1.7-3.8-3.8l0,0c0-2.1,1.7-3.8,3.8-3.8h139.5
		c2.1,0,3.8,1.7,3.8,3.8l0,0C399.9,268.7,398.2,270.4,396.1,270.4z"/>
	<g>
		<g>
			
				<rect id="XMLID_175_" x="157.8" y="165.7" transform="matrix(0.9934 -0.1145 0.1145 0.9934 -19.3638 19.4833)" class="st1" width="4.4" height="25.2"/>
			<polygon id="XMLID_174_" class="st2" points="160.7,165.5 156.4,166 157.5,163.5 158.1,162.1 159,163.3 			"/>
			<polygon id="XMLID_173_" class="st1" points="159,163.3 157.5,163.5 158.1,162.1 			"/>
		</g>
		<g>
			
				<rect id="XMLID_172_" x="155.3" y="167.1" transform="matrix(0.9452 -0.3266 0.3266 0.9452 -50.0654 61.2885)" class="st3" width="4.4" height="25.2"/>
			<polygon id="XMLID_171_" class="st2" points="155.5,167.1 151.4,168.5 151.9,165.8 152.2,164.3 153.4,165.3 			"/>
			<polygon id="XMLID_170_" class="st3" points="153.4,165.3 151.9,165.8 152.2,164.3 			"/>
		</g>
		<polygon id="XMLID_169_" class="st4" points="165.6,189.6 155.6,189.6 153.6,176.4 167.6,176.4 		"/>
		<path id="XMLID_168_" class="st5" d="M156.7,265.5L156.7,265.5c-1.9,0-3.4-1.5-3.4-3.4v-70.3c0-1.9,1.5-3.4,3.4-3.4l0,0
			c1.9,0,3.4,1.5,3.4,3.4v70.3C160.1,263.9,158.6,265.5,156.7,265.5z"/>
		<path id="XMLID_167_" class="st6" d="M105.2,204.4L105.2,204.4c-0.7-2.4,0.8-4.9,3.2-5.6l65.5-17.9c2.4-0.7,4.9,0.8,5.6,3.2l0,0
			c0.7,2.4-0.8,4.9-3.2,5.6l-65.5,17.9C108.3,208.2,105.8,206.8,105.2,204.4z"/>
		<path id="XMLID_166_" class="st5" d="M114.4,263.1L114.4,263.1c0-1.9,1.5-3.4,3.4-3.4h59c1.9,0,3.4,1.5,3.4,3.4l0,0
			c0,1.9-1.5,3.4-3.4,3.4h-59C115.9,266.4,114.4,264.9,114.4,263.1z"/>
		<g>
			<path id="XMLID_165_" class="st7" d="M66,266.9L66,266.9c-1,0-1.8-0.8-1.8-1.8v-31.3c0-1,0.8-1.8,1.8-1.8l0,0
				c1,0,1.8,0.8,1.8,1.8v31.3C67.9,266.1,67,266.9,66,266.9z"/>
			<path id="XMLID_164_" class="st7" d="M98.9,266.9L98.9,266.9c-1,0-1.8-0.8-1.8-1.8v-31.3c0-1,0.8-1.8,1.8-1.8l0,0
				c1,0,1.8,0.8,1.8,1.8v31.3C100.7,266.1,99.9,266.9,98.9,266.9z"/>
			<path id="XMLID_163_" class="st7" d="M66,251.6L66,251.6c0-1,0.8-1.8,1.8-1.8h31.3c1,0,1.8,0.8,1.8,1.8l0,0c0,1-0.8,1.8-1.8,1.8
				H67.9C66.9,253.4,66,252.6,66,251.6z"/>
			<path id="XMLID_162_" class="st8" d="M54.3,207.9c0,0.9-0.1,3.3-0.2,5.9c-0.3,6,3.8,11.4,9.7,12.7l2.8,0.6"/>
			<path id="XMLID_161_" class="st1" d="M100.5,234.2h-36c-3.5,0-6.3-2.9-6.3-6.3v0c0-3.5,2.9-6.3,6.3-6.3h36c3.5,0,6.3,2.9,6.3,6.3
				v0C106.9,231.3,104,234.2,100.5,234.2z"/>
			<path id="XMLID_160_" class="st1" d="M54.3,209.6L54.3,209.6c-3.4,0-6.1-2.8-6.1-6.1v-20.3c0-3.4,2.8-6.1,6.1-6.1l0,0
				c3.4,0,6.1,2.8,6.1,6.1v20.3C60.4,206.8,57.6,209.6,54.3,209.6z"/>
		</g>
		<g>
			<g>
				<g>
					<g>
						<path id="XMLID_159_" class="st9" d="M120.1,177.7l1.1-1.1c1.3-1.4,3.6-1.4,4.9,0l0,0c1.4,1.3,1.4,3.6,0,4.9l-1.1,1.1
							c-1.3,1.4-3.6,1.4-4.9,0l0,0C118.8,181.2,118.7,179,120.1,177.7z"/>
						<path id="XMLID_158_" class="st10" d="M124.6,180.2l5-5.1c0.4-0.4,1-0.4,1.3,0l0,0c0.4,0.4,0.4,1,0,1.3l-5,5.1
							c-0.4,0.4-1,0.4-1.3,0l0,0C124.3,181.2,124.3,180.6,124.6,180.2z"/>
						<path id="XMLID_157_" class="st10" d="M124.3,176.9l4-4.1c0.4-0.4,1-0.4,1.3,0l0,0c0.4,0.4,0.4,1,0,1.3l-4,4.1
							c-0.4,0.4-1,0.4-1.3,0l0,0C124,177.9,123.9,177.3,124.3,176.9z"/>
						<path id="XMLID_156_" class="st10" d="M121.8,176.2l4.7-4.8c0.4-0.4,1-0.4,1.3,0l0,0c0.4,0.4,0.4,1,0,1.3l-4.7,4.8
							c-0.4,0.4-1,0.4-1.3,0l0,0C121.4,177.1,121.4,176.5,121.8,176.2z"/>
					</g>
					<g>
						<path id="XMLID_155_" class="st10" d="M106.5,192.1c-11.2,0-20.9-8.4-21.3-8.7c-1.5-1.3-1.6-3.5-0.3-5c1.3-1.5,3.5-1.6,5-0.4
							c0.2,0.1,8.8,7.5,17.6,7c6.4-0.4,12.1-6.9,12.2-6.9c1.3-1.5,3.5-1.7,5-0.4c1.5,1.3,1.7,3.5,0.4,5c-0.3,0.4-7.7,8.8-17.1,9.4
							C107.4,192.1,107,192.1,106.5,192.1z"/>
					</g>
					<path id="XMLID_154_" class="st11" d="M95.6,185.8L95.6,185.8c1-2.7-0.3-5.7-3-6.7l-4.8-2.3c-2.7-1-7.5-1.4-8.5,1.3l-0.9,2.4
						c-1,2.7,3.1,5.6,5.8,6.6l4.7,1.8C91.6,189.9,94.6,188.5,95.6,185.8z"/>
				</g>
				<g>
					<path id="XMLID_153_" class="st12" d="M98.1,222l-29.2-7.9l-2.5-23.5c-0.1-0.7-0.1-1.3-0.1-2c0-5.6,2.4-10.7,6.2-13.6
						c0.4-0.3,0.8-0.6,1.3-0.9c1.5-0.9,3.2-1.5,5-1.7c0.4,0,0.8-0.1,1.3,0c1,0,1.9,0.2,2.8,0.6c0.1,0,0.2,0.1,0.4,0.1
						c1,0.4,1.9,0.9,2.8,1.6c4.1,3.2,6.9,9.1,7.5,15.1l1.3,9.4L98.1,222z"/>
				</g>
				<g>
					<path id="XMLID_152_" class="st10" d="M119.5,243l-7.1,7.7c0,0-3.7-21.6-9-26.5c-4.2-3.8-22-6.7-22-6.7l7.1-7.7
						c0,0,17.6,2.6,21.6,6.3C115.5,221.1,119.5,243,119.5,243z"/>
					<g>
						<g>
							<path id="XMLID_151_" class="st13" d="M109.2,243c0.2,1.1,1.6,7.9,1.6,7.9l12.1-2.6l-1.7-7.9L109.2,243z"/>
						</g>
						<path id="XMLID_150_" class="st11" d="M128.3,250.6l-16.8,3.7l-1.7-7.9l9.3-2c4.4-1,8.3,1.5,9.2,5.9L128.3,250.6z"/>
					</g>
				</g>
				<g>
					<path id="XMLID_149_" class="st14" d="M106.1,245.7l-7.8,6.9c0,0-1.4-21.8-6.2-27.3c-3.7-4.2-21.2-9-21.2-9l9-4.6
						c0,0,16,2.1,19.6,6.2C104.4,223.6,106.1,245.7,106.1,245.7z"/>
					<g>
						<g>
							<path id="XMLID_148_" class="st13" d="M95.8,244.7c0.1,1.1,0.8,8,0.8,8l12.3-1.3l-0.9-8L95.8,244.7z"/>
						</g>
						<path id="XMLID_147_" class="st15" d="M114.1,254.2l-17.1,1.9l-0.9-8l9.4-1c4.5-0.5,8.1,2.4,8.5,6.8L114.1,254.2z"/>
					</g>
				</g>
				<g>
					<defs>
						<path id="XMLID_93_" d="M68.9,213.8l3.7,26.9c0,0,11.6,3.9,26.7-5.7c15-9.5,15.1-21.7,15.1-21.7l-18.5-7.1L68.9,213.8z"/>
					</defs>
					<clipPath id="XMLID_180_">
						<use xlink:href="#XMLID_93_"  style="overflow:visible;"/>
					</clipPath>
					<path id="XMLID_146_" class="st16" d="M68.9,213.8l3.7,26.9c0,0,11.6,3.9,26.7-5.7c15-9.5,15.1-21.7,15.1-21.7l-16-7.9
						L68.9,213.8z"/>
					<g class="st17">
						<g>
							<ellipse id="XMLID_145_" class="st13" cx="70.9" cy="226.8" rx="1.4" ry="1.5"/>
							<ellipse id="XMLID_144_" class="st13" cx="76" cy="230" rx="1.4" ry="1.5"/>
							<ellipse id="XMLID_143_" class="st13" cx="78.4" cy="224.1" rx="1.4" ry="1.5"/>
							<ellipse id="XMLID_142_" class="st13" cx="73" cy="221.7" rx="1.4" ry="1.5"/>
						</g>
						<g>
							<ellipse id="XMLID_141_" class="st13" cx="77.9" cy="218.3" rx="1.4" ry="1.5"/>
							<ellipse id="XMLID_140_" class="st13" cx="83" cy="221.5" rx="1.4" ry="1.5"/>
							<ellipse id="XMLID_139_" class="st13" cx="85.5" cy="215.6" rx="1.4" ry="1.5"/>
							<ellipse id="XMLID_138_" class="st13" cx="80" cy="213.2" rx="1.4" ry="1.5"/>
						</g>
						<g>
							<ellipse id="XMLID_137_" class="st13" cx="79.6" cy="234.7" rx="1.4" ry="1.5"/>
							<ellipse id="XMLID_136_" class="st13" cx="84.7" cy="237.9" rx="1.4" ry="1.5"/>
							<ellipse id="XMLID_135_" class="st13" cx="87.2" cy="232" rx="1.4" ry="1.5"/>
							<ellipse id="XMLID_134_" class="st13" cx="81.7" cy="229.6" rx="1.4" ry="1.5"/>
						</g>
						<g>
							<ellipse id="XMLID_133_" class="st13" cx="87.4" cy="225" rx="1.4" ry="1.5"/>
							<ellipse id="XMLID_132_" class="st13" cx="92.5" cy="228.3" rx="1.4" ry="1.5"/>
							<ellipse id="XMLID_131_" class="st13" cx="95" cy="222.4" rx="1.4" ry="1.5"/>
							<ellipse id="XMLID_130_" class="st13" cx="89.5" cy="220" rx="1.4" ry="1.5"/>
						</g>
						<g>
							<ellipse id="XMLID_129_" class="st13" cx="89.1" cy="211.2" rx="1.4" ry="1.5"/>
							<ellipse id="XMLID_128_" class="st13" cx="94.2" cy="214.4" rx="1.4" ry="1.5"/>
							<ellipse id="XMLID_127_" class="st13" cx="96.7" cy="208.5" rx="1.4" ry="1.5"/>
							<ellipse id="XMLID_126_" class="st13" cx="91.2" cy="206.1" rx="1.4" ry="1.5"/>
						</g>
						<g>
							<ellipse id="XMLID_125_" class="st13" cx="98.9" cy="219.7" rx="1.4" ry="1.5"/>
							<ellipse id="XMLID_124_" class="st13" cx="104" cy="222.9" rx="1.4" ry="1.5"/>
							<ellipse id="XMLID_123_" class="st13" cx="106.5" cy="217" rx="1.4" ry="1.5"/>
							<ellipse id="XMLID_122_" class="st13" cx="101" cy="214.6" rx="1.4" ry="1.5"/>
						</g>
						<g>
							<ellipse id="XMLID_121_" class="st13" cx="102.2" cy="208.9" rx="1.4" ry="1.5"/>
							<ellipse id="XMLID_120_" class="st13" cx="107.2" cy="212.2" rx="1.4" ry="1.5"/>
							<ellipse id="XMLID_119_" class="st13" cx="109.7" cy="206.3" rx="1.4" ry="1.5"/>
							<ellipse id="XMLID_118_" class="st13" cx="104.2" cy="203.9" rx="1.4" ry="1.5"/>
						</g>
						<g>
							<ellipse id="XMLID_117_" class="st13" cx="97.2" cy="232.5" rx="1.4" ry="1.5"/>
							<ellipse id="XMLID_116_" class="st13" cx="102.3" cy="235.8" rx="1.4" ry="1.5"/>
							<ellipse id="XMLID_115_" class="st13" cx="104.8" cy="229.9" rx="1.4" ry="1.5"/>
							<ellipse id="XMLID_114_" class="st13" cx="99.3" cy="227.4" rx="1.4" ry="1.5"/>
						</g>
						<g>
							<ellipse id="XMLID_113_" class="st13" cx="89.4" cy="241.3" rx="1.4" ry="1.5"/>
							<ellipse id="XMLID_112_" class="st13" cx="94.5" cy="244.5" rx="1.4" ry="1.5"/>
							<ellipse id="XMLID_111_" class="st13" cx="96.9" cy="238.6" rx="1.4" ry="1.5"/>
							<ellipse id="XMLID_110_" class="st13" cx="91.5" cy="236.2" rx="1.4" ry="1.5"/>
						</g>
						<g>
							<ellipse id="XMLID_109_" class="st13" cx="107.8" cy="225.3" rx="1.4" ry="1.5"/>
							<ellipse id="XMLID_108_" class="st13" cx="112.8" cy="228.6" rx="1.4" ry="1.5"/>
							<ellipse id="XMLID_107_" class="st13" cx="115.3" cy="222.6" rx="1.4" ry="1.5"/>
							<ellipse id="XMLID_106_" class="st13" cx="109.8" cy="220.2" rx="1.4" ry="1.5"/>
						</g>
						<g>
							<ellipse id="XMLID_105_" class="st13" cx="112.6" cy="214.2" rx="1.4" ry="1.5"/>
							<ellipse id="XMLID_104_" class="st13" cx="117.7" cy="217.4" rx="1.4" ry="1.5"/>
							<ellipse id="XMLID_103_" class="st13" cx="120.1" cy="211.5" rx="1.4" ry="1.5"/>
							<ellipse id="XMLID_102_" class="st13" cx="114.7" cy="209.1" rx="1.4" ry="1.5"/>
						</g>
						<g>
							<ellipse id="XMLID_101_" class="st13" cx="70.5" cy="242.3" rx="1.4" ry="1.5"/>
							<ellipse id="XMLID_100_" class="st13" cx="75.6" cy="245.5" rx="1.4" ry="1.5"/>
							<ellipse id="XMLID_99_" class="st13" cx="78.1" cy="239.6" rx="1.4" ry="1.5"/>
							<ellipse id="XMLID_98_" class="st13" cx="72.6" cy="237.2" rx="1.4" ry="1.5"/>
						</g>
						<g>
							<ellipse id="XMLID_97_" class="st13" cx="67.1" cy="214.3" rx="1.4" ry="1.5"/>
							<ellipse id="XMLID_96_" class="st13" cx="72.2" cy="217.6" rx="1.4" ry="1.5"/>
							<ellipse id="XMLID_95_" class="st13" cx="74.7" cy="211.6" rx="1.4" ry="1.5"/>
							<ellipse id="XMLID_94_" class="st13" cx="69.2" cy="209.2" rx="1.4" ry="1.5"/>
						</g>
					</g>
				</g>
				<g>
					<g>
						<g>
							<path id="XMLID_92_" class="st14" d="M103.7,191.5l1.3-0.9c1.6-1.1,3.8-0.6,4.8,1l0,0c1.1,1.6,0.6,3.8-1,4.8l-1.3,0.9
								c-1.6,1.1-3.8,0.6-4.8-1l0,0C101.6,194.8,102.1,192.6,103.7,191.5z"/>
							<path id="XMLID_91_" class="st14" d="M107.6,195l5.9-3.9c0.4-0.3,1-0.2,1.3,0.3l0,0c0.3,0.4,0.2,1-0.3,1.3l-5.9,3.9
								c-0.4,0.3-1,0.2-1.3-0.3l0,0C107,195.9,107.2,195.3,107.6,195z"/>
							<path id="XMLID_90_" class="st14" d="M108,191.7l4.8-3.1c0.4-0.3,1-0.2,1.3,0.3l0,0c0.3,0.4,0.2,1-0.3,1.3l-4.8,3.1
								c-0.4,0.3-1,0.2-1.3-0.3l0,0C107.4,192.5,107.6,192,108,191.7z"/>
							<path id="XMLID_89_" class="st14" d="M105.7,190.4l5.6-3.7c0.4-0.3,1-0.2,1.3,0.3v0c0.3,0.4,0.2,1-0.3,1.3l-5.6,3.7
								c-0.4,0.3-1,0.2-1.3-0.3l0,0C105.1,191.3,105.3,190.7,105.7,190.4z"/>
							<path id="XMLID_88_" class="st14" d="M103,193.8l2.9-6.1c0.2-0.5,0.8-0.7,1.3-0.4l0,0c0.5,0.2,0.7,0.8,0.4,1.3l-2.9,6.1
								c-0.2,0.5-0.8,0.7-1.3,0.4h0C103,194.9,102.8,194.3,103,193.8z"/>
						</g>
						<path id="XMLID_87_" class="st18" d="M71.2,187.7c0,0,7.8,10.3,18.1,11.9c8,1.2,16-4.9,16-4.9"/>
					</g>
					<path id="XMLID_86_" class="st11" d="M71.4,195.3l-2.4-1.9c-2.5-2-2.9-5.6-0.9-8.1v0c2-2.5,5.6-2.9,8.1-0.9l2.4,1.9
						c2.5,2,2.9,5.6,0.9,8.1l0,0C77.6,196.8,73.9,197.3,71.4,195.3z"/>
				</g>
				<path id="XMLID_85_" class="st19" d="M83.4,174.6c0,3-2.5,5.5-5.5,5.5c-2.9,0-5.2-2.2-5.5-5c0.4-0.3,0.8-0.6,1.3-0.9
					c1.5-0.9,3.2-1.5,5-1.7c0.4,0,0.8-0.1,1.3,0c1,0,1.9,0.2,2.8,0.6c0.1,0,0.2,0.1,0.4,0.1C83.3,173.7,83.4,174.1,83.4,174.6z"/>
				<path id="XMLID_84_" class="st20" d="M83.1,165.8l1.2-0.7c10.2-6.5,13.2-20.1,6.6-30.4l0,0c-6.5-10.2-20.1-13.2-30.4-6.6
					l-1.2,0.7c-10.2,6.5-13.2,20.1-6.6,30.4l0,0C59.3,169.4,72.9,172.4,83.1,165.8z"/>
				<path id="XMLID_83_" class="st14" d="M93.8,138.3L96,144c0.1,0.3,0.1,0.8,0.2,1.1c0.8,2.5,1,5.1,0.9,7.6
					c-0.5,7.6-5.3,14.7-12.8,17.6l-0.6,0.2c-10.3,4-22.3-1.3-26.3-11.5l-2.2-5.7c-4-10.3,1.7-21.3,12-25.3l0.6-0.2
					C78,123.8,89.8,128,93.8,138.3z"/>
				<path id="XMLID_82_" class="st19" d="M90.6,153.3c0.9,2.4-0.3,6.4-3.3,7.5c-3,1.2-6.6-1-7.5-3.3L90.6,153.3z"/>
				<path id="XMLID_81_" class="st21" d="M85.4,151.7l-2.4,0.9c-0.4,0.2-0.9,0-1.1-0.5l0,0c-0.2-0.4,0-0.9,0.5-1.1l2.4-0.9
					c0.4-0.2,0.9,0,1.1,0.5l0,0C86,151.1,85.8,151.6,85.4,151.7z"/>
				<circle id="XMLID_80_" class="st21" cx="71.4" cy="158.4" r="3.8"/>
				<path id="XMLID_79_" class="st21" d="M96,145.2c0.8,2.5,1.1,5,0.9,7.5c-1.7,0.3-3.5-0.7-4.1-2.4c-0.8-1.9,0.2-4.1,2.2-4.9
					C95.3,145.3,95.7,145.2,96,145.2z"/>
				<path id="XMLID_78_" class="st14" d="M78.3,178.8L78.3,178.8c-2,0.2-3.7-1.4-3.9-3.5l-0.9-8.8l7.2-0.7l0.9,8.8
					C81.9,176.7,80.3,178.6,78.3,178.8z"/>
				<path id="XMLID_77_" class="st20" d="M73.5,139l-8.8,5.1c-4.2,2.4-6.2,7.5-4.7,12.1v0l-0.8,9.4c0,0-5.2-3.5-8-11.9
					c-2.8-8.5,0.8-26.7,22.2-27.1L73.5,139z"/>
				<path id="XMLID_76_" class="st14" d="M62.7,157.8c0.9,2.3-0.3,4.9-2.6,5.8l0,0c-2.3,0.9-4.9-0.3-5.8-2.6l0,0
					c-0.9-2.3,0.3-4.9,2.6-5.8l0,0C59.2,154.3,61.8,155.5,62.7,157.8L62.7,157.8z"/>
				<path id="XMLID_75_" class="st22" d="M77.8,149.1c0,0-1.8-1.5-3.7-0.6c-1.9,0.9-1.9,2.8-1.9,2.8"/>
				<path id="XMLID_74_" class="st22" d="M91.1,143.8c0,0-1.8-1.5-3.7-0.6c-1.9,0.9-1.9,2.8-1.9,2.8"/>
				<path id="XMLID_73_" class="st20" d="M67.8,141.2l1.8,5l26.7-10.6c0,0-6.1-13.8-21.9-11C74.4,124.5,63.8,126.1,67.8,141.2z"/>
				<path id="XMLID_72_" class="st20" d="M33.2,149.6c0,0,15.3-3.9,18.2-7.1c2.9-3.2,2.7-8.2-0.5-11.1s-8.2-2.7-11.1,0.5
					C36.8,135,33.2,149.6,33.2,149.6z"/>
				<path id="XMLID_71_" class="st20" d="M60.4,132.4c0,0,14.6-1.4,18-4.1c3.4-2.7,3.9-7.7,1.2-11.1c-2.7-3.4-7.7-3.9-11.1-1.2
					C65.1,118.8,60.4,132.4,60.4,132.4z"/>
				<g>
					<path id="XMLID_70_" class="st4" d="M51.2,133.6l2.3,10.6c0.5,2.2-1.8,3.9-3.7,2.8l-3.2-1.7c-2-1.1-1.8-4,0.3-4.8l10.4-3.6
						c2.1-0.7,2.3-3.7,0.3-4.8l-2.7-1.4C53,129.7,50.8,131.5,51.2,133.6z"/>
					<path id="XMLID_69_" class="st19" d="M51.6,141.7c1.3,0.5,2.7-0.2,3.1-1.4c0.5-1.3-0.2-2.7-1.4-3.2c-1.3-0.5-2.7,0.2-3.1,1.4
						C49.7,139.8,50.4,141.2,51.6,141.7z"/>
				</g>
				<g>
					<path id="XMLID_68_" class="st4" d="M81.4,118.1l-7.9,7.3c-1.6,1.5-4.2,0.5-4.3-1.7l-0.2-3.6c-0.1-2.3,2.6-3.6,4.3-2.1l8.4,7.1
						c1.7,1.5,4.4,0.1,4.3-2.2l-0.2-3.1C85.6,117.7,83,116.7,81.4,118.1z"/>
					<path id="XMLID_67_" class="st19" d="M74.7,122.6c0.2,1.3,1.5,2.2,2.8,2c1.3-0.2,2.3-1.5,2-2.9c-0.2-1.3-1.5-2.2-2.8-2
						C75.3,120,74.4,121.3,74.7,122.6z"/>
				</g>
				<g class="st23">
					<path id="XMLID_66_" class="st24" d="M78.3,128.4c0,0,5.7,2.1,8.6,10.7"/>
					<path id="XMLID_65_" class="st24" d="M73.4,131.2c0,0,4.7,3.2,7.2,10.3"/>
					<path id="XMLID_64_" class="st24" d="M67.5,134.7c0,0,4.4,2.2,6.6,9.3"/>
					<path id="XMLID_63_" class="st24" d="M85.6,127c0,0,5.6,2.9,7.7,9.3"/>
				</g>
				
					<ellipse id="XMLID_62_" transform="matrix(0.9735 -0.2286 0.2286 0.9735 -39.5319 23.3992)" class="st13" cx="81.2" cy="182.3" rx="0.9" ry="1"/>
				
					<ellipse id="XMLID_61_" transform="matrix(0.9735 -0.2286 0.2286 0.9735 -40.4616 23.7509)" class="st13" cx="82.3" cy="186.5" rx="0.9" ry="1"/>
			</g>
			<g>
				
					<rect id="XMLID_60_" x="123.1" y="166.6" transform="matrix(0.9447 -0.3279 0.3279 0.9447 -50.649 50.5791)" class="st25" width="3.1" height="17.8"/>
				<polygon id="XMLID_59_" class="st2" points="123.2,166.5 120.3,167.5 120.7,165.6 120.9,164.6 121.7,165.3 				"/>
				<polygon id="XMLID_58_" class="st25" points="121.7,165.3 120.7,165.6 120.9,164.6 				"/>
			</g>
			<path id="XMLID_57_" class="st10" d="M119.9,180.1l1.6-6.5c0.1-0.5,0.6-0.8,1.1-0.7l0,0c0.5,0.1,0.8,0.6,0.7,1.1l-1.6,6.5
				c-0.1,0.5-0.6,0.8-1.1,0.7l0,0C120.1,181.1,119.8,180.6,119.9,180.1z"/>
		</g>
		
			<rect id="XMLID_56_" x="113.9" y="190.3" transform="matrix(0.9645 -0.264 0.264 0.9645 -45.5523 42.5858)" class="st19" width="43.7" height="1.1"/>
	</g>
</g>
<g>
	<rect id="XMLID_55_" x="197.6" y="31.8" class="st26" width="167.9" height="135.3"/>
	<path class="st27" d="M361.4,34.6H197.6v4.7h161.5v127.8h4.7V37C363.8,35.7,362.7,34.6,361.4,34.6z"/>
	<path class="st28" d="M365.5,167.3H197.6c-0.1,0-0.2-0.1-0.2-0.2V31.8c0-0.1,0.1-0.2,0.2-0.2h167.9c0.1,0,0.2,0.1,0.2,0.2v135.3
		C365.7,167.2,365.6,167.3,365.5,167.3z M197.8,166.9h167.5V32H197.8V166.9z"/>
	<path class="st29" d="M366.1,169.9H198.2c-1.3,0-2.3-1-2.3-2.3V32.3c0-1.3,1-2.3,2.3-2.3h167.9c1.3,0,2.3,1,2.3,2.3v135.3
		C368.4,168.9,367.4,169.9,366.1,169.9z M200.5,165.3h163.2V34.7H200.5V165.3z"/>
	<path id="XMLID_49_" class="st30" d="M364.7,170.7H199.3c-2.1,0-3.8-1.7-3.8-3.8v0c0-2.1,1.7-3.8,3.8-3.8h165.3
		c2.1,0,3.8,1.7,3.8,3.8v0C368.5,169,366.8,170.7,364.7,170.7z"/>
	<path id="XMLID_48_" class="st31" d="M368.5,165.7v-0.6c0-1.2-0.9-2.1-2.1-2.1H197.6c-1.2,0-2.1,0.9-2.1,2.1v0.6H368.5z"/>
</g>
<g>
	<g>
		<g>
			<path id="XMLID_47_" class="st32" d="M358.2,191.4v12.3c0,7.2-5.5,13.1-12.5,13.8h-38.5l-8.3,39.1h-21.8
				c0-0.3,13.7-59.4,13.7-59.4c1.1-3.6,4.3-5.7,8.1-5.7l2.3,0H358.2z"/>
		</g>
		<g>
			<path id="XMLID_46_" class="st7" d="M378.5,266.5L378.5,266.5c1,0,1.8-0.8,1.8-1.8v-35.1c0-1-0.8-1.8-1.8-1.8l0,0
				c-1,0-1.8,0.8-1.8,1.8v35.1C376.7,265.7,377.5,266.5,378.5,266.5z"/>
			<path id="XMLID_45_" class="st7" d="M345.6,266.5L345.6,266.5c1,0,1.8-0.8,1.8-1.8v-35.1c0-1-0.8-1.8-1.8-1.8l0,0
				c-1,0-1.8,0.8-1.8,1.8v35.1C343.8,265.7,344.6,266.5,345.6,266.5z"/>
			<path id="XMLID_44_" class="st7" d="M378.5,247.4L378.5,247.4c0-1-0.8-1.8-1.8-1.8h-30.6c-1,0-1.8,0.8-1.8,1.8l0,0
				c0,1,0.8,1.8,1.8,1.8h30.6C377.7,249.2,378.5,248.4,378.5,247.4z"/>
			<path id="XMLID_43_" class="st8" d="M392.9,203.8c0,0.9,0.1,3.3,0.2,5.9c0.2,4.5-10.8,12.9-9.7,12.7l-2.8,0.6"/>
			<path id="XMLID_42_" class="st1" d="M344,229.2h36c3.5,0,6.3-2.9,6.3-6.3l0,0c0-3.5-2.9-6.3-6.3-6.3h-36c-3.5,0-6.3,2.9-6.3,6.3
				l0,0C337.7,226.3,340.5,229.2,344,229.2z"/>
			<path id="XMLID_41_" class="st33" d="M396.4,179v20.3c0,2.6-1.7,4.9-4.1,5.8c-0.6,0.2-1.3,0.4-2.1,0.4c-3.4,0-6.1-2.8-6.1-6.1
				V179c0-1.7,0.7-3.2,1.8-4.3c1.1-1.1,2.6-1.8,4.3-1.8c0.7,0,1.4,0.1,2.1,0.4C394.7,174.1,396.4,176.3,396.4,179z"/>
			<path id="XMLID_40_" class="st1" d="M396.4,179v20.3c0,2.6-1.7,4.9-4.1,5.8c-2.4-0.9-4.1-3.1-4.1-5.8V179c0-1.7,0.7-3.2,1.8-4.3
				c0.6-0.6,1.4-1.1,2.3-1.4C394.7,174.1,396.4,176.3,396.4,179z"/>
		</g>
		<g>
			<g>
				<path id="XMLID_39_" class="st14" d="M284.5,142.9l-2.5-0.7c-2.9-0.8-6,0.9-6.8,3.9h0c-0.8,2.9,0.9,6,3.9,6.8l2.5,0.7
					c2.9,0.8,6-0.9,6.8-3.9l0,0C289.2,146.8,287.5,143.7,284.5,142.9z"/>
				<path id="XMLID_38_" class="st14" d="M280.3,150.1l-10.9-3c-0.8-0.2-1.6,0.3-1.8,1.1v0c-0.2,0.8,0.3,1.6,1.1,1.8l10.9,3
					c0.8,0.2,1.6-0.3,1.8-1.1h0C281.6,151.2,281.1,150.4,280.3,150.1z"/>
				<path id="XMLID_37_" class="st14" d="M278,145.3l-8.8-2.4c-0.8-0.2-1.6,0.3-1.8,1.1l0,0c-0.2,0.8,0.3,1.6,1.1,1.8l8.8,2.4
					c0.8,0.2,1.6-0.3,1.8-1.1v0C279.3,146.3,278.8,145.5,278,145.3z"/>
				<path id="XMLID_36_" class="st14" d="M280.9,142.2l-10.4-2.9c-0.8-0.2-1.6,0.3-1.8,1.1l0,0c-0.2,0.8,0.3,1.6,1.1,1.8l10.4,2.9
					c0.8,0.2,1.6-0.3,1.8-1.1l0,0C282.2,143.3,281.7,142.5,280.9,142.2z"/>
				<path id="XMLID_35_" class="st14" d="M287.9,145.7l-7.5-7.8c-0.6-0.6-1.5-0.6-2.1,0l0,0c-0.6,0.6-0.6,1.5,0,2.1l7.5,7.8
					c0.6,0.6,1.5,0.6,2.1,0l0,0C288.5,147.3,288.5,146.3,287.9,145.7z"/>
			</g>
			<path id="XMLID_34_" class="st34" d="M341.6,133.4c0,0-11.7,12.3-28,15.9c-12.6,2.8-28.3-0.6-28.3-0.6"/>
			<path id="XMLID_33_" class="st35" d="M335.3,150.1l-10.6-14.4l22.5-17c3.5-3,8.8-2.6,11.8,0.9l0,0c3,3.5-6.4,17.3-9.9,20.3
				L335.3,150.1z"/>
		</g>
		<path id="XMLID_32_" class="st36" d="M385,148v55.2c0,7.2-6,13.2-13.6,13.9c-0.5,0-1,0.1-1.5,0.1h-16.3c-0.5,0-1,0-1.5-0.1
			c-7.6-0.7-13.6-6.6-13.6-13.9v-66.8c0-7.8,3.1-12.3,7.6-16.5c1.1-1,2.3-1.9,3.6-2.8c0,0,0.1,0,0.1-0.1c0.1-0.1,0.2-0.1,0.3-0.2
			c0.2-0.1,0.4-0.2,0.6-0.3c0,0,0,0,0,0l0,0v0c0.2-0.1,0.5-0.3,0.7-0.4l0,0c0,0,0.1,0,0.1,0c0,0,0.1,0,0.1,0
			c0.4-0.2,0.7-0.4,1.1-0.5c2.7-1.3,8-2.1,11.2-2.3c0.1,0,0.2,0,0.2,0c0.2,0,0.3,0,0.5,0c0.2,0,0.4,0,0.6,0.1c0.2,0,0.3,0,0.4,0.1
			c0.2,0,0.3,0,0.5,0.1c0.2,0,0.4,0.1,0.7,0.1c0.2,0,0.4,0.1,0.6,0.1c0.2,0,0.4,0.1,0.6,0.1c0.2,0,0.3,0.1,0.5,0.1
			c0.3,0.1,0.5,0.1,0.8,0.2c0.1,0,0.3,0.1,0.4,0.1c0.5,0.1,0.9,0.3,1.4,0.5c0.1,0,0.3,0.1,0.4,0.2c0.3,0.1,0.7,0.3,1,0.4
			c0.1,0.1,0.3,0.1,0.4,0.2c0.4,0.2,0.8,0.4,1.1,0.5c0,0,0.1,0,0.1,0c0,0,0.1,0,0.1,0l0,0c0.2,0.1,0.5,0.3,0.7,0.4v0l0,0
			c0,0,0,0,0,0c0.2,0.1,0.4,0.2,0.6,0.3c1.5,0.9,2.8,1.9,4,3c4.6,4.2,7.6,8.7,7.6,16.5L385,148z"/>
		<polygon id="XMLID_31_" class="st37" points="352.1,182.3 357.2,125.5 358.8,125 360.6,125.5 365.6,182.3 358.8,189 		"/>
		<g>
			<path id="XMLID_30_" class="st37" d="M380.7,190.8c1.3,0,3.7-0.2,4.3-0.8v13.2c0,7.2-5.4,13.1-12.4,13.9c-0.1,0-0.2,0-0.3,0
				h-36.4c-1.1,0-2.1,0.8-2.4,1.9l-7.2,35.6c-0.2,1.1-1.2,1.9-2.4,1.9h-20.8v0.1c-0.1-0.3,0-0.7,0.1-1l13.7-59c0-0.1,0-0.1,0.1-0.2
				c1.2-3.5,4.3-5.6,8.1-5.6h2.3L380.7,190.8z"/>
		</g>
		<g>
			<path id="XMLID_29_" class="st19" d="M281.7,149.2l-2.8,1.1c-0.6,0.2-1.2-0.1-1.5-0.6l-5.7-14.2c-0.2-0.6,0.1-1.2,0.6-1.5
				l2.8-1.1c0.6-0.2,1.2,0.1,1.5,0.6l5.7,14.2C282.6,148.3,282.3,148.9,281.7,149.2z"/>
		</g>
		<g>
			<g>
				<path id="XMLID_28_" class="st14" d="M366.9,195.8l-1.6,2c-1.9,2.4-1.4,5.9,1,7.8l0,0c2.4,1.9,5.9,1.4,7.8-1l1.6-2
					c1.9-2.4,1.4-5.9-1-7.8l0,0C372.3,192.9,368.8,193.4,366.9,195.8z"/>
				<path id="XMLID_27_" class="st14" d="M372,202.5l-6.9,9c-0.5,0.7-0.4,1.6,0.3,2.1v0c0.7,0.5,1.6,0.4,2.1-0.3l6.9-9
					c0.5-0.7,0.4-1.6-0.3-2.1l0,0C373.5,201.7,372.5,201.8,372,202.5z"/>
				<path id="XMLID_26_" class="st14" d="M366.6,202.7l-5.5,7.2c-0.5,0.7-0.4,1.6,0.3,2.1l0,0c0.7,0.5,1.6,0.4,2.1-0.3l5.5-7.2
					c0.5-0.7,0.4-1.6-0.3-2.1l0,0C368.1,201.9,367.1,202,366.6,202.7z"/>
				<path id="XMLID_25_" class="st14" d="M364.9,198.9l-6.6,8.5c-0.5,0.7-0.4,1.6,0.3,2.1l0,0c0.7,0.5,1.6,0.4,2.1-0.3l6.6-8.5
					c0.5-0.7,0.4-1.6-0.3-2.1l0,0C366.4,198.1,365.4,198.2,364.9,198.9z"/>
				<path id="XMLID_24_" class="st14" d="M370.7,195.1l-10,4c-0.8,0.3-1.1,1.2-0.8,2l0,0c0.3,0.8,1.2,1.1,2,0.8l10-4
					c0.8-0.3,1.1-1.2,0.8-2l0,0C372.3,195.1,371.4,194.7,370.7,195.1z"/>
			</g>
			<path id="XMLID_23_" class="st34" d="M378.2,133.3c0,0,5.2,14.7,4.6,31.4c-0.6,18.4-10.3,32.6-10.3,32.6"/>
			<path id="XMLID_22_" class="st35" d="M391.1,146.3l-16.4,3.4l-3.4-16c-1-4.5,1.9-8.9,6.5-9.9h0c4.5-1,8.9,1.9,9.9,6.5
				L391.1,146.3z"/>
		</g>
	</g>
	<path id="XMLID_21_" class="st37" d="M361.5,130.3h-5.2c-0.3,0-0.6-0.2-0.7-0.5l-2.5-8.4c0-0.1,0.1-0.1,0.2-0.1h10.9
		c0.1,0,0.2,0.1,0.2,0.1l-2.2,8.4C362.1,130.1,361.8,130.3,361.5,130.3z"/>
	<path id="XMLID_20_" class="st19" d="M372.6,115.3l-6.2,11.9l-7.2-5.1l-9.8,4.2c0,0,0-5,0.5-9.3c0.1-0.1,0.2-0.1,0.3-0.2
		c0.2-0.1,0.4-0.2,0.6-0.3c0,0,0,0,0,0l0,0v0c0.2-0.1,0.5-0.3,0.7-0.4l0,0c0,0,0.1,0,0.1,0c0,0,0.1,0,0.1,0c0.4-0.2,0.7-0.4,1.1-0.5
		c2.7-1.3,8-2.1,11.2-2.3c0.1,0,0.2,0,0.2,0c0.2,0,0.3,0,0.5,0c0.2,0,0.4,0,0.6,0.1c0.2,0,0.3,0,0.4,0.1c0.2,0,0.3,0,0.5,0.1
		c0.2,0,0.4,0.1,0.7,0.1c0.2,0,0.4,0.1,0.6,0.1c0.2,0,0.4,0.1,0.6,0.1c0.2,0,0.3,0.1,0.5,0.1c0.3,0.1,0.5,0.1,0.8,0.2
		c0.1,0,0.3,0.1,0.4,0.1c0.5,0.1,0.9,0.3,1.4,0.5c0.1,0,0.3,0.1,0.4,0.2C371.9,115,372.3,115.1,372.6,115.3z"/>
	<g>
		<path id="XMLID_19_" class="st38" d="M354.2,96.4l0,19.5c0,3,2.4,5.4,5.4,5.4l0,0c3,0,5.4-2.4,5.4-5.4l0-19.5c0-3-2.4-5.4-5.4-5.4
			h0C356.6,91,354.2,93.4,354.2,96.4z"/>
		<path id="XMLID_18_" class="st39" d="M354.2,91l-0.1,13.9c0,0.2,0.8,0,1.3,0c3.8,0,7-4.7,9.3-13.9L354.2,91z"/>
		<g class="face">
			<path id="XMLID_17_" class="st40" d="M370.4,77.9c0,0.6,0.1,1.3,0.3,1.8c0.2,0.7,0.6,1.4,1.1,2c0.9,1,2.2,1.7,3.6,1.7l5.5,0.1
				l0.2-10.5l-5.5-0.1c-2.2,0-4.1,1.3-4.9,3.2C370.5,76.6,370.4,77.3,370.4,77.9z"/>
			<path id="XMLID_16_" class="st40" d="M332.9,85.4c-0.2,11.6,8.1,21.5,19.3,23.7c0.3,0.1,0.6,0.1,0.9,0.2c1.1,0.2,2.2,0.3,3.3,0.3
				c1.1,0,2.2,0,3.2-0.2c11.1-1.3,20-10.1,21.1-21.2c0.1-0.6,0.1-1.3,0.1-1.9l0.2-9.8l0-2.3l0-0.9c0.1-2.8-0.6-5.5-1.5-8.1
				c-0.1-0.2-0.1-0.3-0.2-0.5c-0.3-0.8-0.7-1.7-1.1-2.4c0,0,0,0,0,0c-1.8-3.6-4.5-6.7-7.9-9c-3.8-2.6-8.4-4.2-13.3-4.3
				c-6.6-0.1-12.7,2.4-17.2,6.6c-2.4,2.3-4,5-5.3,8.1c-0.5,1.2-0.8,2.4-1.1,3.6c-0.3,1.6-0.4,3.3-0.5,5L332.9,85.4z"/>
			<path id="XMLID_15_" class="st19" d="M343.4,91.7c-0.1,3.2,2.8,5.7,6.5,5.7c3.6,0.1,6.6-2.3,6.7-5.5L343.4,91.7z"/>
			<g>
				<path id="XMLID_14_" class="st41" d="M359,80.4L359,80.4c1.1,0,2-0.9,2-2l0-2.6c0-1.1-0.9-2-2-2l0,0c-1.1,0-2,0.9-2,2l0,2.6
					C357,79.5,357.9,80.4,359,80.4z"/>
			</g>
			<g>
				<path id="XMLID_13_" class="st41" d="M340.6,80.4L340.6,80.4c0.9,0,1.7-0.7,1.7-1.6l0.1-3.2c0-0.9-0.7-1.7-1.6-1.7h0
					c-0.9,0-1.7,0.7-1.7,1.6l-0.1,3.2C338.9,79.7,339.6,80.4,340.6,80.4z"/>
			</g>
			<path id="XMLID_12_" class="st42" d="M349.6,86.7l0-0.1c2,0,3.6-1,3.6-3.6l-7.1-0.1C346,85.4,347.6,86.7,349.6,86.7z"/>
			<g>
				<path id="XMLID_11_" class="st39" d="M333.7,67.3c0.4,0,0.8,0.1,1.1,0.1l35.5,0.7l8.7,0.2l0-0.5c0-1.9-0.2-3.7-0.6-5.5
					c0,0,0,0,0,0c-1.8-3.6-4.5-6.7-7.9-9c-3.8-2.6-8.4-4.2-13.3-4.3c-6.6-0.1-12.7,2.4-17.2,6.6c-2.4,2.3-4,5-5.3,8.1
					C334.2,64.9,333.9,66.1,333.7,67.3z"/>
			</g>
			<path id="XMLID_10_" class="st43" d="M336.9,65.6l43.7,0.8l0-0.1c0.3-13-10.1-23.8-23.1-24l-20.4-0.4c-6.5-0.1-11.8,5.1-12,11.5
				l0,0C325.1,60,330.4,65.4,336.9,65.6z"/>
			<path id="XMLID_9_" class="st43" d="M372.3,48.2l-0.5,28.4c-0.1,5.8,4,10.7,9.2,10.8l-0.1,0l0.6-28.7c0.1-5.1-3.2-9.4-7.7-10.3
				C373.3,48.3,373.6,48.3,372.3,48.2z"/>
			<path id="XMLID_8_" class="st40" d="M378.5,88.2l1.9,0c0.1,0,0.3,0,0.4,0c3.1-0.2,5.7-2.8,5.7-6c0-1.6-0.6-3-1.7-4.1
				c-1-1-2.3-1.6-3.7-1.7c-0.2,0-0.3,0-0.5,0l-1.9,0L378.5,88.2z"/>
			<path id="XMLID_7_" class="st39" d="M378.5,88.2l1.9,0c0.1,0,0.3,0,0.4,0c3.1-0.2,5.7-2.8,5.7-6c0-1.6-0.6-3-1.7-4.1
				c-1-1-2.3-1.6-3.7-1.7c-0.2,0-0.3,0-0.5,0l-1.9,0L378.5,88.2z"/>
		</g>
	</g>
	<g>
		<path id="XMLID_6_" class="st44" d="M267.5,266.5h29.8v-10.3h-19.2c-5.9,0-10.6,4.6-10.6,10.4V266.5z"/>
		<line id="XMLID_5_" class="st45" x1="278.3" y1="259.1" x2="275.4" y2="256.4"/>
		<line id="XMLID_4_" class="st45" x1="275.6" y1="260.3" x2="272.9" y2="257.5"/>
		<path id="XMLID_3_" class="st43" d="M294,266.5h29.8v-10.3h-19.2c-5.9,0-10.6,4.6-10.6,10.4V266.5z"/>
		<line id="XMLID_2_" class="st45" x1="304.7" y1="259.1" x2="301.8" y2="256.4"/>
		<line id="XMLID_1_" class="st45" x1="302" y1="260.3" x2="299.3" y2="257.5"/>
	</g>
</g>
<text id="XMLID_178_" transform="matrix(1 0 0 1 215.779 84.7538)"><tspan x="0" y="0" class="st19 st46 st47">   LOGIN </tspan><tspan x="0" y="23.1" class="st19 st46 st47">YOURSELF</tspan></text>
</svg>
