<?xml version="1.0" encoding="utf-8"?>
<!-- Generator: Adobe Illustrator 19.0.0, SVG Export Plug-In . SVG Version: 6.00 Build 0)  -->
<svg version="1.1" id="Layer_1" xmlns="http://www.w3.org/2000/svg" xmlns:xlink="http://www.w3.org/1999/xlink" x="0px" y="0px"
	 viewBox="0 0 60 60" style="enable-background:new 0 0 60 60;" xml:space="preserve">
<style type="text/css">
	.st0{fill:#FFFFFF;}
	.st1{display:none;}
	.st2{display:inline;}
	.st3{fill:#B6936D;}
	.st4{fill:#9D223F;}
	.st5{fill:#262537;}
	.st6{display:none;fill:#B6936D;}
</style>
<g id="XMLID_1_">
	<g id="XMLID_3_">
		<circle id="XMLID_313_" class="st0" cx="30.3" cy="22.3" r="7.8"/>
		<g id="XMLID_4_" class="st1">
			<g id="XMLID_11_" class="st2">
				<g id="XMLID_191_">
					<path id="XMLID_192_" class="st0" d="M30,54.2L6.6,30.8L30,7.5l23.4,23.4L30,54.2z M8.8,30.8L30,52.1l21.2-21.2L30,9.6
						L8.8,30.8z"/>
				</g>
			</g>
			<g id="XMLID_15_" class="st2">
				<g id="XMLID_16_">
					<g id="XMLID_17_">
						<g id="XMLID_20_">
							<g id="XMLID_68_">
								
									<rect id="XMLID_147_" x="28.9" y="3.5" transform="matrix(0.7071 -0.7071 0.7071 0.7071 5.5481 22.555)" class="st3" width="2.3" height="2.3"/>
							</g>
						</g>
						<g id="XMLID_23_">
							<g id="XMLID_72_">
								
									<rect id="XMLID_146_" x="29.4" y="0.4" transform="matrix(0.7071 -0.7071 0.7071 0.7071 8.107 21.4948)" class="st4" width="1.1" height="1.1"/>
							</g>
						</g>
					</g>
					<g id="XMLID_24_">
						<g id="XMLID_27_">
							<g id="XMLID_75_">
								
									<rect id="XMLID_145_" x="28.9" y="55.9" transform="matrix(-0.7071 0.7071 -0.7071 -0.7071 91.5716 76.2206)" class="st3" width="2.3" height="2.3"/>
							</g>
						</g>
						<g id="XMLID_30_">
							<g id="XMLID_79_">
								
									<rect id="XMLID_144_" x="29.4" y="60.1" transform="matrix(-0.7071 0.7071 -0.7071 -0.7071 94.1306 82.3987)" class="st4" width="1.1" height="1.1"/>
							</g>
						</g>
					</g>
				</g>
				<g id="XMLID_31_">
					<g id="XMLID_32_">
						<g id="XMLID_35_">
							<g id="XMLID_91_">
								
									<rect id="XMLID_143_" x="55.1" y="29.7" transform="matrix(0.7071 0.7071 -0.7071 0.7071 38.2731 -30.7437)" class="st3" width="2.3" height="2.3"/>
							</g>
						</g>
						<g id="XMLID_38_">
							<g id="XMLID_106_">
								
									<rect id="XMLID_142_" x="59.3" y="30.3" transform="matrix(0.7071 0.7071 -0.7071 0.7071 39.333 -33.3027)" class="st4" width="1.1" height="1.1"/>
							</g>
						</g>
					</g>
					<g id="XMLID_39_">
						<g id="XMLID_42_">
							<g id="XMLID_108_">
								
									<rect id="XMLID_141_" x="2.6" y="29.7" transform="matrix(-0.7071 -0.7071 0.7071 -0.7071 -15.3929 55.2797)" class="st3" width="2.3" height="2.3"/>
							</g>
						</g>
						<g id="XMLID_45_">
							<g id="XMLID_115_">
								
									<rect id="XMLID_140_" x="-0.4" y="30.3" transform="matrix(-0.7071 -0.7071 0.7071 -0.7071 -21.5712 52.7205)" class="st4" width="1.1" height="1.1"/>
							</g>
						</g>
					</g>
				</g>
			</g>
			<g id="XMLID_46_" class="st2">
				<g id="XMLID_47_">
					<g id="XMLID_48_">
						<g id="XMLID_51_">
							<g id="XMLID_117_">
								<rect id="XMLID_139_" x="47.4" y="11.1" class="st3" width="2.3" height="2.3"/>
							</g>
						</g>
						<g id="XMLID_54_">
							<g id="XMLID_121_">
								<rect id="XMLID_138_" x="50.6" y="9.1" class="st4" width="1.1" height="1.1"/>
							</g>
						</g>
					</g>
					<g id="XMLID_55_">
						<g id="XMLID_58_">
							<g id="XMLID_123_">
								<rect id="XMLID_137_" x="10.3" y="48.3" class="st3" width="2.3" height="2.3"/>
							</g>
						</g>
						<g id="XMLID_61_">
							<g id="XMLID_124_">
								<rect id="XMLID_136_" x="8.3" y="51.4" class="st4" width="1.1" height="1.1"/>
							</g>
						</g>
					</g>
				</g>
				<g id="XMLID_62_">
					<g id="XMLID_63_">
						<g id="XMLID_66_">
							<g id="XMLID_127_">
								<rect id="XMLID_135_" x="47.4" y="48.3" class="st3" width="2.3" height="2.3"/>
							</g>
						</g>
						<g id="XMLID_69_">
							<g id="XMLID_128_">
								<rect id="XMLID_134_" x="50.6" y="51.4" class="st4" width="1.1" height="1.1"/>
							</g>
						</g>
					</g>
					<g id="XMLID_70_">
						<g id="XMLID_73_">
							<g id="XMLID_131_">
								<rect id="XMLID_132_" x="10.3" y="11.1" class="st3" width="2.3" height="2.3"/>
							</g>
						</g>
						<g id="XMLID_76_">
							<g id="XMLID_133_">
								<rect id="XMLID_148_" x="8.3" y="9.1" class="st4" width="1.1" height="1.1"/>
							</g>
						</g>
					</g>
				</g>
			</g>
			<g id="XMLID_82_" class="st2">
				<g id="XMLID_188_">
					<path id="XMLID_189_" class="st0" d="M46.5,47.3h-33v-33h33V47.3z M15,45.8h30v-30H15V45.8z"/>
				</g>
			</g>
		</g>
		<g id="XMLID_86_">
			<g id="XMLID_87_">
				<g id="XMLID_88_">
					<g id="XMLID_89_">
						<path id="XMLID_92_" class="st5" d="M30.3,25.6c0,0-1.7-2.4-5.1-2.7c-3.4-0.3-7,2.3-14.1,2.7L0.8,44.1c0,0,8,1.4,14.7-2.2
							c7.7-4.1,14.7,0.4,14.7,0.4V25.6z"/>
						<path id="XMLID_98_" class="st0" d="M4.6,45.2c-2.3,0-3.8-0.3-4-0.3c-0.3,0-0.5-0.2-0.6-0.5c-0.1-0.2-0.1-0.5,0-0.7l10.2-18.4
							c0.1-0.2,0.4-0.4,0.7-0.4c3.7-0.2,6.5-1.1,8.8-1.7c2-0.6,3.8-1.1,5.5-1c3.7,0.3,5.6,2.9,5.7,3c0.1,0.1,0.2,0.3,0.2,0.5v16.6
							c0,0.3-0.2,2-0.4,2.1C30.4,44.5,7.7,45.2,4.6,45.2z M2.1,43.4c2.4,0.2,8.1,0.4,13.1-2.3c6.1-3.3,11.9-1.4,14.3-0.3V25.9
							c-0.5-0.5-2-2-4.4-2.2c-1.4-0.1-2.9,0.3-4.9,0.9c-2.2,0.7-5,1.5-8.7,1.8L2.1,43.4z"/>
					</g>
					<g id="XMLID_101_">
						<path id="XMLID_104_" class="st5" d="M30.3,23.9c0,0-1.4-2.4-4.2-2.7c-2.8-0.3-5.7,2.3-11.6,2.7L6.9,40.4
							c0,0,5.6,0.4,11.5-2.4c5.8-2.9,12,2.5,12,2.5V23.9z"/>
						<path id="XMLID_110_" class="st0" d="M7.7,41.2c-0.5,0-0.9,0-0.9,0c-0.3,0-0.5-0.2-0.6-0.4c-0.1-0.2-0.1-0.5,0-0.8l7.6-16.5
							c0.1-0.3,0.4-0.5,0.7-0.5c3-0.2,5.3-1,7.1-1.7c1.7-0.6,3.2-1.2,4.6-1c3.1,0.4,4.7,3,4.8,3.1c0.1,0.1,0.1,0.3,0.1,0.4v16.6
							c0,0.3-0.2,0.6-0.5,0.7c-0.3,0.1-0.6,0.1-0.9-0.1c-0.1,0-5.8-4.9-11.1-2.3C14.1,41,9.6,41.2,7.7,41.2z M15.1,24.6l-6.9,15
							c1.9,0,5.8-0.4,9.8-2.4c4.6-2.3,9.3,0.1,11.5,1.6V24.1c-0.4-0.5-1.6-1.9-3.5-2.1c-1.1-0.1-2.3,0.3-3.9,0.9
							C20.3,23.5,18.1,24.4,15.1,24.6z"/>
					</g>
				</g>
				<g id="XMLID_113_">
					<g id="XMLID_114_">
						<path id="XMLID_172_" class="st5" d="M30.3,25.5c0,0,1.7-2.4,5.1-2.7c3.4-0.3,7,2.3,14.1,2.7L59.8,44c0,0-8,1.4-14.7-2.2
							c-7.7-4.1-14.7,0.4-14.7,0.4V25.5z"/>
						<path id="XMLID_119_" class="st0" d="M29.9,44.2c-0.3-0.1-0.4-1.8-0.4-2.1V25.5c0-0.2,0.1-0.3,0.2-0.5c0.1-0.1,2-2.7,5.7-3
							c1.7-0.2,3.5,0.4,5.5,1c2.2,0.7,5,1.5,8.8,1.7c0.3,0,0.5,0.2,0.7,0.4l10.2,18.4c0.1,0.2,0.1,0.5,0,0.7
							c-0.1,0.2-0.3,0.4-0.6,0.5c-0.1,0-1.7,0.3-4,0.3C52.9,45.1,30.2,44.4,29.9,44.2z M49.1,26.3c-3.7-0.3-6.5-1.1-8.7-1.8
							c-1.9-0.6-3.5-1-4.9-0.9c-2.4,0.2-3.9,1.7-4.4,2.2v14.9c2.5-1.1,8.2-3,14.3,0.3c4.9,2.7,10.7,2.5,13.1,2.3L49.1,26.3z"/>
					</g>
					<g id="XMLID_120_">
						<path id="XMLID_130_" class="st5" d="M30.3,23.7c0,0,1.4-2.4,4.2-2.7s5.7,2.3,11.6,2.7l7.6,16.5c0,0-5.6,0.4-11.5-2.4
							c-5.8-2.9-12,2.5-12,2.5V23.7z"/>
						<path id="XMLID_125_" class="st0" d="M41.9,38.6c-5.3-2.6-11,2.3-11.1,2.3c-0.2,0.2-0.6,0.3-0.9,0.1c-0.3-0.1-0.5-0.4-0.5-0.7
							V23.7c0-0.1,0-0.3,0.1-0.4c0.1-0.1,1.7-2.7,4.8-3.1c1.5-0.2,2.9,0.4,4.6,1c1.8,0.7,4.1,1.5,7.1,1.7c0.3,0,0.6,0.2,0.7,0.5
							L54.4,40c0.1,0.2,0.1,0.5,0,0.8c-0.1,0.2-0.4,0.4-0.6,0.4c-0.1,0-0.4,0-0.9,0C51,41.1,46.5,40.9,41.9,38.6z M38.5,22.8
							c-1.6-0.6-2.8-1-3.9-0.9c-1.9,0.2-3.1,1.6-3.5,2.1v14.7c2.2-1.5,6.9-3.8,11.5-1.6c4,2,7.9,2.3,9.8,2.4l-6.9-15
							C42.5,24.2,40.3,23.4,38.5,22.8z"/>
					</g>
				</g>
			</g>
			<rect id="XMLID_81_" x="25.8" y="43.5" class="st0" width="9" height="2"/>
		</g>
		<rect id="XMLID_77_" x="29.9" y="21.4" class="st4" width="0.2" height="2"/>
		<path id="XMLID_6_" class="st6" d="M30.8,21.1c0.2-0.1,0.4-0.2,0.6-0.4c-0.1,0.4-0.5,0.7-0.9,0.9c-0.8,0.3-1.6-0.1-1.8-0.9
			c-0.3-0.8,0.1-1.6,0.9-1.8c0.4-0.1,0.9-0.1,1.2,0.1c-0.2-0.1-0.5-0.1-0.7,0c-0.6,0.2-0.9,0.8-0.7,1.4S30.2,21.3,30.8,21.1z"/>
	</g>
</g>
</svg>
