<?xml version="1.0" encoding="utf-8"?>
<!-- Generator: Adobe Illustrator 19.0.0, SVG Export Plug-In . SVG Version: 6.00 Build 0)  -->
<svg version="1.1" id="Layer_1" xmlns="http://www.w3.org/2000/svg" xmlns:xlink="http://www.w3.org/1999/xlink" x="0px" y="0px"
	 viewBox="0 0 400 400" style="enable-background:new 0 0 400 400;" xml:space="preserve">
<style type="text/css">
	.st0{fill:#EF3834;}
	.st1{fill:url(#XMLID_374_);}
	.st2{fill:url(#XMLID_375_);}
	.st3{fill:#F26A6B;}
	.st4{opacity:0.33;}
	.st5{fill:#FFFFFF;}
	.st6{fill:#893494;}
	.st7{fill:url(#XMLID_376_);}
	.st8{fill:url(#XMLID_377_);}
	.st9{fill:#9A4D9E;}
	.st10{opacity:0.5;fill:#010101;}
	.st11{fill:#F3B51B;}
	.st12{fill:url(#XMLID_378_);}
	.st13{fill:url(#XMLID_379_);}
	.st14{fill:#FFC927;}
	.st15{fill:#D58A28;}
	.st16{opacity:0.35;fill:#FFFFFF;}
	.st17{fill:#24536F;}
	.st18{fill:#E5E5E5;}
	.st19{fill:#DEDDDD;}
	.st20{fill:#006FA6;}
	.st21{fill:#60AACE;}
	.st22{fill:#B5B5B6;}
	.st23{fill:#EFEFEF;}
	.st24{fill:#1B7BAD;}
	.st25{opacity:0.5;fill:#FFFFFF;}
	.st26{fill:#752A15;}
	.st27{fill:#FBC1A0;}
	.st28{opacity:0.19;fill:#822018;}
	.st29{fill:#7C4696;}
	.st30{fill:url(#XMLID_380_);}
	.st31{fill:#8854A2;}
	.st32{fill:#0D88BA;}
	.st33{fill:#E5D8C0;}
	.st34{fill:url(#XMLID_381_);}
	.st35{fill:#1DA7D3;}
	.st36{fill:#2BA05A;}
	.st37{fill:url(#XMLID_382_);}
	.st38{fill:#52B77D;}
	.st39{fill:#134345;}
	.st40{fill:#67375B;}
	.st41{fill:#8F52A0;}
	.st42{opacity:0.16;}
	.st43{fill:#010101;}
	.st44{fill:#F06691;}
	.st45{fill:#E82C6F;}
	.st46{fill:#D3DAE5;}
	.st47{fill:#E0956C;}
	.st48{fill:#E02526;}
	.st49{fill:#EF3936;}
	.st50{fill:#79B743;}
	.st51{fill:#B32025;}
	.st52{opacity:0.19;fill:#010101;}
	.st53{fill:#F3B18C;}
	.st54{fill:#F59597;}
	.st55{fill:#6F1911;}
	.st56{fill:#DD6B5B;}
	.st57{fill:#C4735B;}
	.st58{fill:#681F0F;}
	.st59{fill:#F9FDFF;}
	.st60{fill:#773320;}
	.st61{fill:#621B10;}
	.st62{fill:#F89521;}
	.st63{fill:#1A3940;}
	.st64{fill:#F8E8A6;}
	.st65{fill:#F04F23;}
	.st66{fill:#B12D24;}
	.st67{fill:#2B535E;}
	.st68{fill:#F05323;}
	.st69{fill:#9F3121;}
	.st70{opacity:0.35;}
	.st71{fill:#CDCCCC;}
	.st72{fill:#481B52;}
	.st73{fill:#F27293;}
	.st74{fill:#BF3653;}
	.st75{opacity:0.56;fill:#FAA62A;}
	.st76{fill:#B32349;}
	.st77{opacity:0.26;fill:#010101;}
	.st78{fill:#84241A;}
	.st79{fill:#48140E;}
	.st80{fill:#B04935;}
	.st81{opacity:0.11;fill:#010101;}
	.st82{fill:#61524B;}
	.st83{fill:#EE3661;}
	.st84{opacity:0.22;fill:#010101;}
	.st85{opacity:0.19;fill:#5E1C0D;}
	.st86{fill:#FFF8EA;}
	.st87{fill:#F6E3BF;}
	.st88{fill:#F8E7D4;}
	.st89{fill:#BA7EB6;}
	.st90{fill:#B81E45;}
	.st91{fill:#F4898B;}
	.st92{fill:#9A4939;}
	.st93{fill:#621E0E;}
	.st94{fill:#72221A;}
	.st95{fill:#FBA919;}
	.st96{fill:#234A66;}
	.st97{fill:#117DA9;}
	.st98{fill:#E3F3F7;}
	.st99{opacity:0.22;fill:#44130F;}
	.st100{opacity:0.16;fill:#6C140F;}
	.st101{opacity:0.46;fill:#086994;}
	.st102{fill:#D5DEE1;}
	.st103{opacity:0.8;}
	.st104{fill:#086994;}
	.st105{fill:#F8E6D7;}
	.st106{fill:#723C28;}
	.st107{opacity:0.35;fill:#661212;}
	.st108{fill:#F26E6F;}
	.st109{fill:#BF2526;}
	.st110{fill:#D3D3D3;}
	.st111{fill:#FFDE56;}
   .motions  
	 {
     transform :translate(10px -100px);
		 animation : motion 7s infinite;

	 }
	 

	 @keyframes motion 
	 {
		0%
		{
			 transform :translate(0px 0px);
		}
		50%
		{
			transform:translate(0px ,-20px);

		}
		100%
		{
			transform:translate(0px 30px);
		}
	 }
</style>
<g>
	<g class="motions">
		<path id="XMLID_372_" class="st0" d="M336.5,363.5l-115.9,9.8l-8-4.6l115.1-8.1L336.5,363.5z"/>
		
			<linearGradient id="XMLID_374_" gradientUnits="userSpaceOnUse" x1="276.8356" y1="-102.1984" x2="281.0617" y2="-109.6996" gradientTransform="matrix(0.9999 -1.150000e-002 -8.000000e-003 -0.6903 -19.8813 259.4538)">
			<stop  offset="0" style="stop-color:#DCC399"/>
			<stop  offset="1" style="stop-color:#E5D8C1"/>
		</linearGradient>
		<path id="XMLID_371_" class="st1" d="M219.7,339.4l114.1-10.3l-0.8,32.6l-112.3,9.5L219.7,339.4z"/>
		
			<linearGradient id="XMLID_375_" gradientUnits="userSpaceOnUse" x1="185.153" y1="-60.8519" x2="191.4639" y2="-72.0536" gradientTransform="matrix(0.9999 -1.150000e-002 -8.000000e-003 -0.6903 -19.8813 259.4538)">
			<stop  offset="0" style="stop-color:#DCC399"/>
			<stop  offset="1" style="stop-color:#E5D8C1"/>
		</linearGradient>
		<path id="XMLID_370_" class="st2" d="M219.7,339.4l114.1-10.3l-152.9-2.5L56.1,339.4H219.7z"/>
		<path id="XMLID_369_" class="st0" d="M43.3,339.4c0,2.3,0.7,32.3,0.6,34h177.2c-1.1-3,0.2-15.2-0.1-20.8
			c-0.2-5.5-0.9-10.9-0.3-13.7C213.2,339,63.1,335.5,43.3,339.4z"/>
		<path id="XMLID_368_" class="st3" d="M43.5,339.2h174.1l121.3-11.3l-158.4-3L43.5,339.2z"/>
		<g class="st4">
			<rect id="XMLID_367_" x="51.3" y="339.3" class="st5" width="2.2" height="34.2"/>
			<rect id="XMLID_366_" x="57.5" y="339.3" class="st5" width="2.2" height="34.2"/>
			<rect id="XMLID_365_" x="204.1" y="339.3" class="st5" width="2.2" height="34.2"/>
			<rect id="XMLID_364_" x="210.3" y="339.3" class="st5" width="2.2" height="34.2"/>
			<path class="st5" d="M182,366.3H76.5v-20.1H182V366.3z M78.3,364.1h101.9v-15.7H78.3V364.1z"/>
		</g>
	</g>
	<g class="motions">
		<path id="XMLID_361_" class="st6" d="M4.1,339l100.6,1.4l6.7-3.8H11.6L4.1,339z"/>
		
			<linearGradient id="XMLID_376_" gradientUnits="userSpaceOnUse" x1="1336.6573" y1="-38.504" x2="1340.1149" y2="-44.6411" gradientTransform="matrix(-0.9989 4.610000e-002 -3.180000e-002 -0.6896 1403.5056 218.2438)">
			<stop  offset="0" style="stop-color:#DCC399"/>
			<stop  offset="1" style="stop-color:#E5D8C1"/>
		</linearGradient>
		<path id="XMLID_360_" class="st7" d="M104,315.9l-99.1-1.9l2,23.7l97.5,1.3L104,315.9z"/>
		
			<linearGradient id="XMLID_377_" gradientUnits="userSpaceOnUse" x1="1255.9298" y1="-3.5138" x2="1261.481" y2="-13.3671" gradientTransform="matrix(-0.9989 4.610000e-002 -3.180000e-002 -0.6896 1403.5056 218.2438)">
			<stop  offset="0" style="stop-color:#DCC399"/>
			<stop  offset="1" style="stop-color:#E5D8C1"/>
		</linearGradient>
		<path id="XMLID_359_" class="st8" d="M104,315.9l-99.1-1.9l132.1-9.4l108.5,3L104,315.9z"/>
		<path id="XMLID_358_" class="st6" d="M320.4,304.5c0.9,2.1-0.5,8.2-0.6,13.5c-0.1,6.6,1.1,10.5-0.1,11.5l-215.5,10.9
			c0.8-2.2-0.8-10.9-0.8-15c0-4,0.3-7.9-0.3-10C109.6,315.1,303.1,302.7,320.4,304.5z"/>
		<path id="XMLID_357_" class="st9" d="M320.2,304.6l-214.4,10.8L0.5,313.3l140.9-17.5L320.2,304.6z"/>
		<ellipse id="XMLID_356_" class="st10" cx="119.3" cy="327.3" rx="6.1" ry="6"/>
		<ellipse id="XMLID_355_" class="st10" cx="303.5" cy="318.3" rx="6.1" ry="6"/>
	</g>
	<g class="motions">
		<path id="XMLID_354_" class="st11" d="M325.2,304l-138,6.2l-7.4-4.1l137.3-4.6L325.2,304z"/>
		
			<linearGradient id="XMLID_378_" gradientUnits="userSpaceOnUse" x1="253.1849" y1="58.7524" x2="257.7874" y2="50.5829" gradientTransform="matrix(0.9999 -1.150000e-002 -9.200000e-003 -0.7982 -18.9458 311.0224)">
			<stop  offset="0" style="stop-color:#DCC399"/>
			<stop  offset="1" style="stop-color:#E5D8C1"/>
		</linearGradient>
		<path id="XMLID_353_" class="st12" d="M186.4,279.7l136.3-6.4l-0.7,29.2l-134.7,5.9L186.4,279.7z"/>
		
			<linearGradient id="XMLID_379_" gradientUnits="userSpaceOnUse" x1="185.4238" y1="89.4123" x2="191.5027" y2="78.6222" gradientTransform="matrix(0.9999 -1.150000e-002 -9.200000e-003 -0.7982 -18.9458 311.0224)">
			<stop  offset="0" style="stop-color:#DCC399"/>
			<stop  offset="1" style="stop-color:#E5D8C1"/>
		</linearGradient>
		<path id="XMLID_352_" class="st13" d="M186.4,279.7l136.3-6.4l-141.9-4.9L64.9,279.7H186.4z"/>
		<path id="XMLID_351_" class="st11" d="M54.3,279.6c-0.8,2.6,0,8.8,0.2,15.2c0.2,6.1-0.4,14.2,0.9,15.4h132.3
			c-1-2.7,0.1-13.5-0.1-18.4c-0.2-5-0.8-9.7-0.3-12.3C180.3,279.5,72.7,276.1,54.3,279.6z"/>
		<path id="XMLID_350_" class="st14" d="M54.5,279.5h129.9l143-7.3l-147.1-5.4L54.5,279.5z"/>
		<path id="XMLID_349_" class="st15" d="M205.7,307.3l-4.5-4.4l-4.5,4.4c0,0,0.1-17.8-1.3-19.2h8.9
			C206.5,289.3,205.7,307.3,205.7,307.3z"/>
		<g>
			<rect id="XMLID_348_" x="69.6" y="279.5" class="st16" width="3.3" height="30.7"/>
			<rect id="XMLID_347_" x="78.7" y="279.5" class="st16" width="3.3" height="30.7"/>
			<rect id="XMLID_346_" x="163.4" y="279.5" class="st16" width="3.3" height="30.7"/>
			<rect id="XMLID_345_" x="172.5" y="279.5" class="st16" width="3.3" height="30.7"/>
		</g>
	</g>
	<g class="motions">
		<ellipse id="XMLID_344_" class="st17" cx="222" cy="156.2" rx="9.7" ry="3.7"/>
		<polygon id="XMLID_343_" class="st17" points="204.6,266.7 284.2,266.7 286,265.1 233,156.9 150.9,156.9 		"/>
		<polygon id="XMLID_342_" class="st18" points="197.3,270.9 279.4,270.9 223.6,156.9 141.5,156.9 		"/>
		<path id="XMLID_341_" class="st19" d="M191.6,272.1c1.6,0,71.3,0.8,78.9,0.7c-13.6-25.8-43.3-93.2-47-115.9l-76.8,1.3
			C151.6,180.7,179.3,250.5,191.6,272.1z"/>
		<path id="XMLID_340_" class="st5" d="M265.9,272.8l4.6,0.1c-12.2-29.2-39.4-91.9-47-115.9l-0.5,0.1
			C228.3,181.4,253.8,246.1,265.9,272.8z"/>
		<path id="XMLID_339_" class="st20" d="M143.1,150.4c-0.7,0-1.4-0.1-2.2-0.1c-5.5,0-10,1-10,6.7l0,0.7c0,0,80.9,0.3,82.1,0
			c1.7-5.7,2.6-6.4,12.1-7.3H143.1z"/>
		<polygon id="XMLID_338_" class="st5" points="279.4,270.9 284.2,266.7 230.6,156.9 223.6,156.9 		"/>
		<polygon id="XMLID_337_" class="st21" points="286,265.1 284.2,266.7 230.6,156.9 233,156.9 		"/>
		<path class="st22" d="M250.7,266.3c-11.7-25.4-30.2-71.9-38.1-98.1c-0.1-0.2-0.2-0.3-0.4-0.2c-0.2,0.1-0.2,0.2-0.2,0.4
			c7.9,26.2,26.4,72.7,38.1,98.2c0.1,0.1,0.2,0.2,0.3,0.2c0,0,0.1,0,0.1,0C250.7,266.6,250.7,266.4,250.7,266.3z M203.9,167.6
			c-0.1-0.2-0.2-0.3-0.4-0.2c-0.2,0.1-0.2,0.2-0.2,0.4c7.9,26.2,26.4,72.7,38.1,98.2c0.1,0.1,0.2,0.2,0.3,0.2c0,0,0.1,0,0.1,0
			c0.1-0.1,0.2-0.3,0.1-0.4C230.4,240.3,211.8,193.8,203.9,167.6z M195.8,167.6c-0.1-0.2-0.2-0.3-0.4-0.2c-0.2,0.1-0.2,0.2-0.2,0.4
			c7.9,26.2,26.4,72.7,38.1,98.2c0.1,0.1,0.2,0.2,0.3,0.2c0,0,0.1,0,0.1,0c0.1-0.1,0.2-0.3,0.1-0.4
			C222.2,240.3,203.7,193.8,195.8,167.6z M187.3,167.6c-0.1-0.2-0.2-0.3-0.4-0.2c-0.2,0.1-0.2,0.2-0.2,0.4
			c7.9,26.2,26.4,72.7,38.1,98.2c0.1,0.1,0.2,0.2,0.3,0.2c0,0,0.1,0,0.1,0c0.1-0.1,0.2-0.3,0.1-0.4
			C213.7,240.3,195.2,193.8,187.3,167.6z M178.4,167.7c-0.1-0.2-0.2-0.3-0.4-0.2c-0.2,0.1-0.2,0.2-0.2,0.4
			c7.9,26.2,26.4,72.7,38.1,98.2c0.1,0.1,0.2,0.2,0.3,0.2c0,0,0.1,0,0.1,0c0.1-0.1,0.2-0.3,0.1-0.4
			C204.8,240.3,186.3,193.8,178.4,167.7z M169.6,167.7c-0.1-0.2-0.2-0.3-0.4-0.2c-0.2,0.1-0.2,0.2-0.2,0.4
			c7.9,26.2,26.4,72.7,38.1,98.2c0.1,0.1,0.2,0.2,0.3,0.2c0,0,0.1,0,0.1,0c0.1-0.1,0.2-0.3,0.1-0.4
			C196.1,240.3,177.5,193.8,169.6,167.7z M161.1,167.7c-0.1-0.2-0.2-0.3-0.4-0.2c-0.2,0.1-0.2,0.2-0.2,0.4
			c7.9,26.2,26.4,72.7,38.1,98.2c0.1,0.1,0.2,0.2,0.3,0.2c0,0,0.1,0,0.1,0c0.1-0.1,0.2-0.3,0.1-0.4
			C187.5,240.3,169,193.8,161.1,167.7z"/>
		<polygon id="XMLID_329_" class="st5" points="170.8,276.1 171.3,277.6 224.3,159.7 223.6,156.9 		"/>
		<polygon id="XMLID_328_" class="st18" points="170.8,276.1 161.3,276.3 162.7,277.6 171.3,277.6 		"/>
		<polygon id="XMLID_327_" class="st23" points="170.8,276.1 161.3,276.3 215.1,156.9 223.6,156.9 		"/>
		<polygon id="XMLID_326_" class="st5" points="164.5,278.1 161.1,267.8 215.1,156.9 223.6,156.9 		"/>
		<polygon id="XMLID_325_" class="st21" points="159.4,266.7 161.2,268 215.5,156.9 213,156.9 		"/>
		<polygon id="XMLID_324_" class="st18" points="164.5,278.1 82.9,278.1 79.6,268 161.2,268 		"/>
		<polygon id="XMLID_323_" class="st21" points="159.4,266.7 77.3,266.7 79.1,268 161.2,268 		"/>
		<polygon id="XMLID_322_" class="st24" points="159.4,266.7 77.3,266.7 130.9,156.9 213,156.9 		"/>
		<path class="st25" d="M154.2,259.8H87.9l-0.7-1.1l46.2-94.5l0.7-0.4h66.3l0.7,1.1l-46.2,94.5L154.2,259.8z M89.1,258.3h64.6
			l45.4-93h-64.6L89.1,258.3z"/>
		<path id="XMLID_319_" class="st21" d="M223,153c4,0,7.3,0.7,7.5,4.1c1.5,0,2.5,0,2.5,0c0-5.6-4.5-6.7-10-6.7c-5.5,0-10,1-10,6.7
			c0,0,1,0,2.5,0C215.7,153.6,219,153,223,153z"/>
	</g>
	<g class="motions">
		<path class="st26" d="M274.8,214.6c-0.9-0.5-3.6-2.2-3.2-7.1c0.2-1.8-1.1-2.4-2.2-2.8c-1.5-0.6-2.8-1.2-1.6-4.5
			c1.4-4.1,0.2-7.5-3.1-8.8c-2.6-1-5.4-3.2-7.8-6.1c-1-1.7-1.8-3.3-2.3-4.5c-14.1-1.6-33.6,5.2-40.4,8.8l-3.9-0.1
			c-0.1,3.6-3.3,7.1-4.9,9.6c-2,3.1-2.7,6.2-1,9.3c0.7,1.2,1.2,2.3,0.9,3.3c-0.3,0.9-1.1,1.6-2.6,2.4c-1.5,0.8-2.4,1.6-2.7,2.7
			c-0.4,1.5,0.4,2.9,1.1,4.2c0.5,0.9,0.6,2.3,0.4,3.1c-0.7,2.8-1.5,3.9-0.9,5.7c-0.3-2,0.7-3.2,1.3-5.5c0.2-0.9,0.3-2.3-0.7-3.9
			c-0.7-1.2-1.1-2.2-0.8-3.4c0.3-0.9,1.1-1.7,2.4-2.4c1.7-0.8,2.6-1.7,2.9-2.7c0.1-0.4,0.1-0.8,0-1.2c1,1.8,1.1,3.4-2,5.2
			c-5.8,3.4,0.5,7.1-0.2,9.1c-1.2,3.4-1.6,4-1.2,6.5c0.5,2.9,2.7,4.4,4.7,4.8c0-0.5-2.2-2.9-1-7.4c0.6,2.4,3.4,7.8,4,7.9
			c10.3,1.3,40.8,1.2,51.2-5.1c2-1.2,1.2-6,1.6-7.4c0.3-1,1.6,4.5,2.2,5.9c11.3-8.4,5.3-11.6,4.3-12.3c-1.2-0.7-1.7-2.3,0.6-9.4
			c1.2-3.6-5.9-1.2-3.8-7.4c1.3-3.7,0.3-6.6-3-8.4c-1.1-0.6-2.2-1.7-3.2-2.9c1.5,1,3.1,1.8,4.5,2.4c3.1,1.2,4.3,4,2.9,7.9
			c-1.3,3.8,0.5,4.5,1.9,5.2c1.1,0.5,2,0.9,1.9,2.3C270.6,212.9,274.3,214.5,274.8,214.6z M204.3,207.4c-1.1-2.6-0.6-5.1,1.1-7.8
			c1-1.5,2.6-2.8,3.8-4.4C207.9,200.2,204,203.8,204.3,207.4z"/>
		<path id="XMLID_316_" class="st27" d="M253.5,262.2c0.2,0.5,8.1,0.2,8-0.3c-1.7-7.3-4.7-19.4-5.1-21.5c0,0-7.4-2.4-7.7,3.2
			C248.6,246.2,250.8,255.4,253.5,262.2z"/>
		<polygon id="XMLID_315_" class="st28" points="261.5,261.6 257,261.5 257.1,258.1 260.4,257.5 		"/>
		<g>
			<g>
				<polygon id="XMLID_314_" class="st29" points="284.7,276.4 286.6,275.2 255.5,273.7 252.3,274.8 				"/>
				
					<linearGradient id="XMLID_380_" gradientUnits="userSpaceOnUse" x1="1427.3445" y1="-195.3402" x2="1427.9733" y2="-196.8491" gradientTransform="matrix(-2.4715 -4.430000e-002 9.100000e-003 -0.5102 3810.874 230.5286)">
					<stop  offset="0" style="stop-color:#DCC399"/>
					<stop  offset="1" style="stop-color:#E5D8C0"/>
				</linearGradient>
				<path id="XMLID_313_" class="st30" d="M284.9,276.3l-31.4-1.6l0.2-5.6c0,0,25.5,0.8,31,1.7C286,271.2,286.1,276,284.9,276.3z"/>
				<path id="XMLID_312_" class="st31" d="M252.7,269.2l17.5-5.5l22.9,0.8l-7.8,6.3L252.7,269.2z"/>
				<path id="XMLID_311_" class="st29" d="M284.6,276.4c0.6,0,2-0.3,2.8-1.1l6.1-5.7c0.8-0.7,0.9-4.5-0.7-4.9l-8.6,6
					C285.9,271,285.5,276.2,284.6,276.4z"/>
			</g>
			<g>
				<path id="XMLID_310_" class="st32" d="M296.8,266l-14.7,4.4l-1.2-0.4l14.3-4.3L296.8,266z"/>
				<path id="XMLID_309_" class="st33" d="M257.9,266.7l24.2,3.5l14.2-8.8l-22.9-2.4l-15.4,4.4L257.9,266.7z"/>
				
					<linearGradient id="XMLID_381_" gradientUnits="userSpaceOnUse" x1="-3578.7434" y1="-323.5543" x2="-3578.2996" y2="-324.3424" gradientTransform="matrix(0.7951 -1.630000e-002 -8.900000e-003 -0.4327 3130.3169 66.1274)">
					<stop  offset="0" style="stop-color:#DCC399"/>
					<stop  offset="1" style="stop-color:#E5D8C0"/>
				</linearGradient>
				<path id="XMLID_308_" class="st34" d="M282.1,266.6l14.2-5.2l-0.3,4.6l-14,4.2V266.6z"/>
				<path id="XMLID_307_" class="st32" d="M257.3,263.5c0,0.5,0.2,0.9,0.2,1.7c0.1,1.1-0.2,2,0.1,2.2l24.5,3c-0.2-0.3,0-1.5-0.1-2.1
					c0-0.6-0.4-1.4-0.3-1.8c5.1-1.8,9.1-3,14.5-5.1l-23-3.1C267.5,260.4,263.2,261.4,257.3,263.5z"/>
				<path id="XMLID_306_" class="st35" d="M257.5,263.5l24.4,3.1l14.4-5.1l-22.9-3.1L257.5,263.5z"/>
			</g>
			<g>
				<path id="XMLID_305_" class="st36" d="M274.6,265.3l16.9-6l-14.5-4.3l-19.4,8.1L274.6,265.3z"/>
				
					<linearGradient id="XMLID_382_" gradientUnits="userSpaceOnUse" x1="-1719.0408" y1="39.6511" x2="-1720.4363" y2="36.9573" gradientTransform="matrix(1.5222 1.390000e-002 3.100000e-003 -0.3373 2884.6638 298.3245)">
					<stop  offset="0" style="stop-color:#DCC399"/>
					<stop  offset="1" style="stop-color:#E5D8C0"/>
				</linearGradient>
				<path id="XMLID_304_" class="st37" d="M258.1,262.9l16.7,2.2c0.6-0.8,0.3-3.8,0-4.6l-16.7-2.3
					C258.3,259,258.3,262.3,258.1,262.9z"/>
				<path id="XMLID_303_" class="st36" d="M291.9,260.9l0.1-4.6l-17.3,4.3c0.8,1.6,0.3,4.4-0.1,4.7L291.9,260.9z"/>
				<path id="XMLID_302_" class="st38" d="M257.7,258.3l17,2.2l17.2-4.3l-16.1-1.5L257.7,258.3z"/>
			</g>
			<path id="XMLID_301_" class="st38" d="M271.6,264.1l0.7-0.8l1.1,0.9c0,0-0.2-2.6,0.3-2.8c-0.1,0-1.8-0.3-1.8-0.3
				C271.3,261.5,271.6,264.1,271.6,264.1z"/>
		</g>
		<polygon id="XMLID_300_" class="st27" points="266.7,268.9 259.3,268.9 260.5,261.9 269.6,265.4 		"/>
		<path id="XMLID_299_" class="st39" d="M243,272.7c0.3,1.7,0.1,3.4-2.7,3.9s-7.3,0.1-7.5-1.6c-0.3-1.7,1.9-4.1,4.7-4.6
			C240.2,269.9,242.7,270.9,243,272.7z"/>
		<path id="XMLID_298_" class="st40" d="M260.7,274.5c-1.6-4.8,0.9-10.9,6-10.2c0.2-1-8.7-3.4-15.8-5.5c-1.6-0.4-15.2,0.4-18.4,0.7
			c-0.4,5.9-0.4,10.3,2.3,13c1.6,1.5,13,1.8,15.6,1.9C255,274.4,257.9,274.5,260.7,274.5z"/>
		<path id="XMLID_297_" class="st41" d="M257.7,241.8c-2.8,1.8-6.2,2.7-8.9,3.5c-1.4-6.4-3.6-15.1-3.6-15.6c3.9,0.5,5.9,0.7,7,1.3
			C254.1,233.3,255.1,235.8,257.7,241.8z"/>
		<path id="XMLID_296_" class="st41" d="M220.4,261.4c6.7-0.2,15.5,1.6,20.6,1.1c4.9-0.5,5.4-2.4,11.9-3c1-1.2-1.8-2-1.8-2.6
			c-0.5-9-0.8-20.6-1.3-26.5c-2.7-0.5-17.6-2.9-26.5,0.7C221.7,236.8,220.3,253.8,220.4,261.4z"/>
		<path id="XMLID_295_" class="st27" d="M245.8,231.1c0-0.4-0.1-1-0.1-1.4c-0.3-0.1-0.7-0.1-1-0.2c-4-0.5-9.5-0.8-14.7-0.1
			c0,0.1,0,0.2,0,0.2c-0.3,3.3,2.9,6.6,7.3,7C241.6,237,245.4,234.4,245.8,231.1z"/>
		<path id="XMLID_294_" class="st27" d="M243.8,221.4v9.7c0,2.1-2.6,3.8-5.9,3.8c-3.3,0-5.9-1.7-6-3.8v-9.7H243.8z"/>
		<path id="XMLID_293_" class="st28" d="M250.9,225.9c0.1-0.5,0.1-1,0.1-1.5c-5.1-1.3-12.8-2.9-18.4-3.4c-0.1,0.2-0.2,0.4-0.3,0.6
			c-0.9,3.9,2.5,8.1,7.6,9.3C245,232.1,249.9,229.9,250.9,225.9z"/>
		<path id="XMLID_292_" class="st27" d="M216.5,254.3c0,0.5,7.4,3.3,7.5,2.8c1.4-7,3.4-18.9,3.9-20.8c0,0-5.8-5-8.3-0.2
			C218.4,238.4,216.7,247.3,216.5,254.3z"/>
		<path id="XMLID_291_" class="st41" d="M215.7,243.7c2.8,1.2,10.7,2.8,12.8,2.8c0-5.5,0.1-15-0.6-14.9c-1.2-0.3-3.8-0.5-4.7-0.6
			C218.5,232.8,217.8,236.3,215.7,243.7z"/>
		<path id="XMLID_290_" class="st27" d="M267.2,265.3c4.1-0.4,5.6,1.8,5.7,5.1c0.2,3.7-2.7,6-5.3,6c-7.5-0.1-17.5,0.2-19.6,0.2
			c-0.2-0.8-0.7-8.8-0.6-9.2C250.4,267,262.4,265.7,267.2,265.3z"/>
		<path id="XMLID_289_" class="st5" d="M245.3,266.1c-0.2,0,0,10.5,0.2,10.5c1.9,0.2,6.4,0.1,7.5,0.2l-0.9-11.3
			C250.1,265.8,246.6,265.9,245.3,266.1z"/>
		<g class="st42">
			<path id="XMLID_288_" class="st43" d="M247.3,267.1c-2.3-3.6-8-4.6-12.5-5.6c-0.8,0.1-1.5,0.2-2,0.2c0,0.7-0.1,1.3-0.1,2
				c0.5,4.1,1.6,7.5,3.5,10.1c1,1.3,2,2.2,3.1,2.7c1.1,0.2,2.2,0.2,3.2,0.3c4.2,0,4.9,0.1,7.5,0.1
				C249.8,272.9,248.8,269.4,247.3,267.1z"/>
		</g>
		<path id="XMLID_287_" class="st27" d="M248.2,272.6c-1.1-5.1-2.1-6.1-4-7.3c-1.5-0.9-3.6-1-5.1-1.3c-6.6,2.2-3.5,10.9-3,11.8
			c1.7-0.2,2.2,0.5,2.2,0.5c1.4,6.7,3,14.4,3.5,16.4c0.8,0,8.8-1.7,9.2-1.8C250.5,288.1,249,276.6,248.2,272.6z"/>
		<path id="XMLID_286_" class="st5" d="M240.7,296.7c0,0.2,11.1,0,11.1-0.2c0.2-1.7,0.1-5.6,0.2-6.6l-11.9,0.8
			C240.4,292.5,240.6,295.6,240.7,296.7z"/>
		<g>
			<path id="XMLID_285_" class="st44" d="M253.1,295.5c-0.1-0.6-0.3-1.3-0.5-2c-0.1-0.5-4.8-1-5,0.2c0,0.3-0.1,0.6-0.1,0.8
				c-0.8-0.1-1.7-0.2-2.6-0.3c-2-0.3-3.8-0.7-5-1c-0.3,1.8-0.5,5-0.8,7c0,0,20.5,6.4,24.1,3.7C264.4,303.1,259.6,298.7,253.1,295.5z
				"/>
			<path id="XMLID_284_" class="st45" d="M239.4,298.9c-0.1,0.5-0.1,0.9-0.2,1.3c0,0,20.5,6.4,24.1,3.7c0.1-0.1,0.2-0.3,0.1-0.5
				C257.5,303.9,244.5,300.4,239.4,298.9z"/>
			<path class="st46" d="M254.5,296.3c0.2,0.1,0.3,0,0.4-0.2c0.1-0.2,0-0.3-0.2-0.4c-1.2-0.4-2.7,0-3.6,1c-0.1,0.1-0.1,0.3,0,0.4
				c0,0,0.1,0.1,0.2,0.1c0.1,0,0.2,0,0.3-0.1C252.3,296.3,253.6,296,254.5,296.3z M256.1,297.2c0.2,0,0.3-0.1,0.4-0.2
				c0-0.2-0.1-0.3-0.2-0.4c-1.3-0.3-2.6,0-3.6,0.9c-0.1,0.1-0.1,0.3,0,0.4c0,0.1,0.1,0.1,0.2,0.1c0.1,0,0.2,0,0.2-0.1
				C254.2,297,255.4,297.1,256.1,297.2z M257.8,297.7c-1.1-0.3-2.7,0-3.8,0.9c-0.1,0.1-0.2,0.3-0.1,0.4c0,0.1,0.1,0.1,0.2,0.1
				c0.1,0,0.2,0,0.2-0.1c0.9-0.7,2.3-1.1,3.2-0.8c0.2,0,0.3,0,0.4-0.2C258,297.9,257.9,297.7,257.8,297.7z"/>
		</g>
		<path id="XMLID_280_" class="st40" d="M236.7,276.7c-1.4-4.9-0.6-8.8,1.6-10.6c2.4-2.1,5.8-1.3,7.5,0.5c0.7-1.5-3.9-3.1-13.5-5.7
			c-1.6-0.4-8.4,0.2-11.6,0.5c-0.6,5.9-0.8,10.3,1.9,13.1c1.5,1.6,4.7,2,7.2,2.1C232.4,276.6,233.8,276.6,236.7,276.7z"/>
		<path id="XMLID_279_" class="st41" d="M236.9,261.7c-4.9-1.1-8.4-0.3-11.3,2.4c-2,1.9-6.1,2-6,0.1c0.1-2,0.7-6.5,0.8-8.1
			C223.3,256.2,237.2,257.8,236.9,261.7z"/>
		<path id="XMLID_278_" class="st27" d="M236.3,259.9c0.5,0,0.9-5.6,0.5-5.6c-7.1-0.7-18-4.1-20-4.4c-0.4,3.1-0.8,5.8,1.3,7.4
			C220.1,258.7,229.3,259.5,236.3,259.9z"/>
		<path id="XMLID_277_" class="st47" d="M246.5,250c0.5,1.1-1.5,2.5-3.3,2.3c-1.8-0.1-4.7-1.3-4.6-2.5
			C239.5,248.9,245.5,247.8,246.5,250z"/>
		<g>
			<path id="XMLID_276_" class="st48" d="M254.1,245.3c-0.6-0.8-2.1-1.5-3.4-1.5c-1.5,0-1.8,0.9-3.3,0.8c-1.1,0-2-0.7-3.1-0.9
				c-2-0.5-4.2,1-5,2.9c-0.9,1.9-0.7,4.1-0.1,6.2c0.7,2.8,2.4,5.6,5.1,6.4c0.7,0.2,1.6,0.3,2.2-0.1c0.2-0.1,0.4-0.3,0.6-0.4
				c0.4-0.1,0.9,0,1.3,0.1c1.3,0.3,2.8-0.2,3.8-1.1c1-0.9,1.7-2.1,2.3-3.4C255.8,251.4,256,247.9,254.1,245.3z"/>
			<path id="XMLID_275_" class="st49" d="M254.4,245.7c-0.6-0.8-1.7-1.6-2.7-1.8c-2.7-0.4-3,0.9-4,0.8c-3.1-0.4-7.7-1.1-7.4,4.9
				c0.4,7.7,5,7,7.2,8.1c2.9,1.5,6.5-2.1,7-3.4C255.8,251.3,256.3,248.3,254.4,245.7z"/>
			<path id="XMLID_274_" class="st50" d="M245.4,240.9c-0.1,0-0.1,0-0.2,0.1c-0.2,0.1-0.3,0.2-0.5,0.3c0.8,0.6,1.4,1.6,1.9,2.6
				c0.2,0.5,0.4,1.2,0.5,1.8c0.2,0,0.4,0.1,0.6,0c0.1-0.1-0.1-0.4-0.1-0.5c-0.4-1.7-1.7-3.7-1.8-3.9
				C245.6,241.1,245.6,240.9,245.4,240.9z"/>
			<path id="XMLID_273_" class="st50" d="M249.3,242.4c-0.6,0.4-1.4,0.6-2.1,0.7c-0.1,0-0.1,0-0.2,0c0,0-0.1,0-0.1,0
				c-0.1,0-0.1-0.1-0.1-0.2c-0.1-0.7-0.2-1.3-0.2-2c0-0.7,0.2-1.4,0.7-1.9c0.7-0.9,2-1.1,3.1-1.3c0.2,0.8,0.3,1.7,0.2,2.5
				C250.4,241.1,250,241.9,249.3,242.4z"/>
			<path id="XMLID_272_" class="st51" d="M245.2,245c0,0,0.9,0.6,2.2,0.6c0.9,0,1.8-0.8,1.8-0.8s-0.2,1.1-2,1.1
				C245.8,245.8,245.2,245,245.2,245z"/>
		</g>
		<g>
			<path id="XMLID_271_" class="st52" d="M234.3,252.7c0.8-0.7,2.3-2,4.9-3.3c0.1,0,2.6,0.4,4.4,1c1.6,0.5,5.5,1.9,5.7,2.5
				c0.1,0.2,0.1,0.5-0.1,0.7c-0.5,0.8-1.3,1.1-2.2,1.1c0.4,0.3,0.7,0.5,0.8,0.8c0.1,0.2,0.1,0.4,0,0.6c-0.5,1.1-1.3,1.3-2.2,1.2
				c0.2,0.2,0.3,0.5,0.3,0.8c0,0.2-0.1,0.4-0.2,0.6c-0.3,0.3-0.8,0.4-1.8,0.5c0.1,0.2,0.2,0.4,0.3,0.7c0,0.1,0,0.3-0.1,0.5
				c-0.1,0.1-3.7,1.2-5.4,0.8c-0.1,0-3.3-0.8-3.5-0.8c0.1-0.6,3.2-2.1,2.7-2.5C236.5,256.7,234.3,252.7,234.3,252.7z"/>
			<path id="XMLID_270_" class="st27" d="M242,256.6c1,0.1,3.4,0.1,3.5,1.4c0,0.6-2.1,0.5-4.1,0.5c-0.7,0-0.9-0.2-2.8-0.7
				c-0.1,0.2,0.8,0.7,2,1c0.7,0.2,2.9-0.6,3.2,1c0.1,0.3-2.8,0.7-3.4,0.8c-1.1,0.2-7-0.8-7.3-1c-1.2-0.9-1.6-2.3-0.9-4.2
				c0.7-1.4,3.9-4.6,6.7-5.8c2.1,0.1,3.4,0.4,4.9,0.7c3.7,1.6,5.5,2.2,5.1,2.9c-0.9,1.6-3.9,0.3-5.5-0.2c-1.3-0.3-2.8-0.4-3.5-0.4
				c-0.2,0.3,2.1,0.6,3.4,0.8c1,0.3,4.5,1.6,4.2,2.3c-0.8,1.7-2.2,0.6-4.9,0c-1.1-0.1-3.2-0.2-3.3-0.1
				C239.3,256.1,239.9,256.2,242,256.6z"/>
		</g>
		<g>
			<path id="XMLID_269_" class="st53" d="M263.5,208.8c-0.7,5.1-4.9,8.6-8.4,8.4c-3.5-0.2-4.6-4.2-4.5-9c0.1-4.8,3-8.6,6.5-8.4
				C261.9,200,264.2,204,263.5,208.8z"/>
			<path id="XMLID_268_" class="st26" d="M209.7,194.2c-0.1,18.3,14.8,28.7,30,27.1c15.2-1.6,24.9-15.4,21.5-32.8
				c-1.9-9.7-11.6-16.9-26-15.3C219.6,174.9,209.7,180,209.7,194.2z"/>
			<path id="XMLID_267_" class="st27" d="M216,189.5c-1,3.2,3.9,30,7.4,33.4c3.7,3.6,18,5.4,20.8,5.1c3-0.3,12.6-5,14.7-9.7
				c2.5-5.5,1.1-28.8-0.2-31.5c-4.3-9.3-12.7-8.7-23.6-7.5C224.9,180.5,218.7,181.3,216,189.5z"/>
			<path id="XMLID_266_" class="st27" d="M210.7,215.6c1.9,5.1,7.4,7.8,11.1,6.8c3.7-0.9,1.5-16.4-5.5-16.9
				C210.5,205,208.9,210.8,210.7,215.6z"/>
			<path id="XMLID_265_" class="st47" d="M214.9,214.9c0.5,2.2,3.2,3.7,5,2.9c0.7-0.3-1.4-7.9-2.5-7.7
				C215.4,210.3,214.4,212.7,214.9,214.9z"/>
			
				<ellipse id="XMLID_264_" transform="matrix(-0.9986 5.218532e-002 -5.218532e-002 -0.9986 464.9506 418.481)" class="st54" cx="227" cy="215.3" rx="3.4" ry="2"/>
			
				<ellipse id="XMLID_263_" transform="matrix(-0.9886 0.1507 -0.1507 -0.9886 540.0245 383.5349)" class="st54" cx="255.5" cy="212.2" rx="2.7" ry="1.8"/>
			<g>
				<path id="XMLID_262_" class="st55" d="M250.4,214.5c-0.5-1.7-3.1-1-7.5-0.7c-0.2,0-1.1,0.1-1.4,0.1c-4.4,0.4-7.1,0.2-7.3,2
					c-0.4,3.4,4.2,6.7,8.7,6.4l0.1,0C247.4,221.9,251.4,217.8,250.4,214.5z"/>
				<path id="XMLID_261_" class="st56" d="M243,222.3L243,222.3c-1.5,0.1-3.1-0.2-4.5-0.8l-0.1,0l0.1-0.1c1.1-1.1,2.6-1.8,4.3-2
					c1.7-0.1,3.3,0.3,4.5,1.2l0.1,0.1l-0.1,0.1C245.9,221.7,244.5,222.2,243,222.3z"/>
				<path id="XMLID_260_" class="st5" d="M242.5,216.1c-3.1,0.3-5.7-0.5-6.1-1.7l0-0.1l11.9-1l0,0.1
					C248,214.7,245.5,215.9,242.5,216.1z"/>
			</g>
			<path id="XMLID_259_" class="st57" d="M240.8,211.8c0.1,0,0.2-0.1,0.2-0.2c0.1-0.9,0.7-1.5,1.6-1.6c0.9-0.1,1.7,0.4,1.9,1.2
				c0,0.1,0.2,0.2,0.3,0.2c0.1,0,0.2-0.2,0.2-0.3c-0.3-1.1-1.3-1.7-2.4-1.6c-1.2,0.1-2,1-2.1,2.1
				C240.5,211.7,240.6,211.8,240.8,211.8L240.8,211.8z"/>
			<path id="XMLID_258_" class="st58" d="M222.3,198.9c0.2,0,0.4-0.1,0.5-0.3c1.7-2.1,5.5-3.3,8.8-2.8c0.5,0.1,0.9-0.2,1-0.7
				c0.1-0.4-0.2-0.9-0.7-1c-3.9-0.7-8.3,0.8-10.4,3.4c-0.3,0.4-0.2,0.9,0.1,1.2C221.8,198.8,222.1,198.9,222.3,198.9z"/>
			<path id="XMLID_257_" class="st58" d="M257.3,194.4c0.2,0,0.4-0.1,0.5-0.3c0.2-0.3,0.2-1-0.1-1.2c-2.2-1.7-5.9-1.9-8.9-0.5
				c-0.3,0.2-0.5,0.8-0.3,1.1c0.2,0.3,0.6,0.5,0.9,0.3c2.5-1.1,5.7-1,7.4,0.4C256.9,194.4,257.1,194.4,257.3,194.4z"/>
			<path id="XMLID_256_" class="st26" d="M252.9,178.8c-4.4-1.5-12.1-1.4-18.9-0.3c-7.4,1.1-14.8,3.3-18.5,6.6
				c-2.4,2.2-3.5,15.6-2.4,14.4c1.3-1.4,3.5-2.9,6.1-4.2c0.1-1.5,1.5-5.4,1.8-5.9c0,0.8,0.2,3.5,0.3,4.9c3.4-1.5,7.3-2.8,11.2-3.7
				c-0.3-1.5,0.1-3.6,0.1-3.7c0.5,0.4,1.8,2.3,2.3,3.2c0.6-0.1,1.2-0.2,1.8-0.3c5.3-0.8,9.3-1.1,12.6-1c-0.9-4.6-1.2-6.1-1.2-5.7
				c0.7,0.9,1.9,3.6,2.3,5.8c1.2,0.1,2.3,0.2,3.4,0.4c-0.1-1.4-0.2-3.6-0.2-4c0.5,0.2,1.7,3,2.2,4.4c1.8,0.5,3.3,1.1,5,1.8
				C262.8,192.2,256.5,180,252.9,178.8z"/>
			<g>
				<path id="XMLID_255_" class="st59" d="M248.3,209.3c0,0,6.7,1.7,8.7-2.5c2.4-5.2-2.6-8.5-5.4-7.5
					C248.8,200.3,246.7,203.4,248.3,209.3z"/>
				<path id="XMLID_254_" class="st60" d="M256.7,200.5c-1.4-1.6-3-2-4.8-1.6c-1.7,0.4-3.4,2.1-3.7,3.7c0.8-1.8,2.3-2.6,3.3-3
					c1.6-0.6,3.8,0,5,1.7c1,1.5,1.2,3.8,0.3,5.7C258,205.6,258.1,202.2,256.7,200.5z"/>
				<path id="XMLID_253_" class="st61" d="M249.1,203.9c-0.4,1.8,0.6,3.7,2.1,4.3c1.6,0.5,3.1-0.5,3.5-2.3c0.4-1.8-0.6-3.7-2.1-4.3
					C251.1,201,249.5,202.1,249.1,203.9z"/>
				<path id="XMLID_252_" class="st5" d="M249.3,203.3c-0.1,0.5,0.2,1,0.6,1.2c0.4,0.1,0.9-0.1,1-0.6c0.1-0.5-0.2-1-0.6-1.2
					C249.9,202.5,249.4,202.8,249.3,203.3z"/>
			</g>
			<g>
				<path id="XMLID_251_" class="st59" d="M236.8,210.6c0,0-7.3,3.3-10.7-0.4c-4.1-4.5,0.9-8.9,4.5-8.6
					C233.9,202,237.2,204.5,236.8,210.6z"/>
				<path id="XMLID_250_" class="st60" d="M224.9,204.1c1.2-1.9,3-2.7,5.1-2.7c2.1,0,4.4,1.2,5.2,2.7c-1.3-1.6-3.3-2-4.6-2.1
					c-2-0.2-4.4,1-5.3,2.8c-0.8,1.7-0.5,4,1,5.6C224.6,209.3,223.6,206.1,224.9,204.1z"/>
				<circle id="XMLID_249_" class="st61" cx="230.4" cy="207.2" r="3.4"/>
				<circle id="XMLID_248_" class="st5" cx="228.3" cy="206" r="1"/>
			</g>
			<g>
				<path id="XMLID_247_" class="st62" d="M207.4,197.3c0,0-1,4.1,1.3,3.7s4-2.3,3.7-4.4c-0.3-2.1-2.4-3.6-4.8-3.3
					C205.3,193.7,207.4,197.3,207.4,197.3z"/>
				<path id="XMLID_246_" class="st62" d="M219.9,195.6c0,0,2.1,3.6-0.2,4c-2.3,0.3-4.5-1.1-4.8-3.3c-0.3-2.1,1.3-4.1,3.7-4.4
					C220.9,191.5,219.9,195.6,219.9,195.6z"/>
				
					<ellipse id="XMLID_245_" transform="matrix(0.9902 -0.1394 0.1394 0.9902 -25.3058 31.6932)" class="st62" cx="213.6" cy="196.5" rx="1.6" ry="1.8"/>
			</g>
		</g>
	</g>
	<g class="motions">
		<path id="XMLID_244_" class="st27" d="M207.6,129.5c-0.7,1.4-3.3,3-7.1,4.1c-1.4-7-3.8-20.2-4.3-22.1c0,0,5.1-4.3,7.6,0.5
			C204.9,114.2,209.4,126,207.6,129.5z"/>
		<path id="XMLID_243_" class="st63" d="M178.6,146.4c-0.3,1.7-0.1,3.4,2.7,3.9c2.8,0.4,7.3,0.1,7.5-1.6c0.3-1.7-1.9-4.1-4.7-4.6
			C181.3,143.6,178.8,144.6,178.6,146.4z"/>
		<g>
			<path id="XMLID_242_" class="st63" d="M162.7,146.1c-0.3,1.7-2.4,4.3,0.4,4.2c2.7-0.1,9.1,0.5,9.3-1.1c0.2-1.7-1.3-4.7-4.1-5.3
				C165.5,143.4,163,144.4,162.7,146.1z"/>
			<path id="XMLID_241_" class="st27" d="M157.1,147.2c0.5-5.2,1.6-6.3,3.4-7.7c1.3-1.1,3.1-1.4,4.6-1.9c2.5-0.8,6.1-1.2,11.7-2.3
				c1.4-0.3,8.7,0.1,11.6,0.4c-1.2,6.3-0.6,7.6-3.6,10.7c-1.7,1.8-12.4,2.6-15.2,2.6c-1.7,0-2.1,0.8-2.1,0.8
				c-0.5,6.8-1.1,14.7-1.3,16.7c-0.8,0.1-9-0.5-9.4-0.6C156.8,162.8,156.8,151.2,157.1,147.2z"/>
			<path id="XMLID_240_" class="st64" d="M167.5,169.1c0,0.2-11,1.4-11.1,1.2c-0.4-1.6-0.9-5.6-1.1-6.5l11.9-0.7
				C167.3,164.9,167.5,167.9,167.5,169.1z"/>
			<g>
				<path id="XMLID_239_" class="st65" d="M155,169.5c0-0.6,0.1-1.3,0.2-2c0.1-0.5,4.7-1.6,5-0.5c0.1,0.3,0.1,0.5,0.2,0.8
					c0.8-0.2,1.6-0.4,2.5-0.7c1.9-0.6,3.6-1.2,4.8-1.7c0.5,1.8,1.1,4.9,1.7,6.8c0,0-19.5,8.9-23.4,6.8
					C144.9,178.4,149.1,173.4,155,169.5z"/>
				<path id="XMLID_238_" class="st66" d="M169.1,171c0.1,0.4,0.2,0.9,0.3,1.2c0,0-19.5,8.9-23.4,6.8c-0.2-0.1-0.2-0.3-0.2-0.5
					C151.8,178.4,164.2,173.2,169.1,171z"/>
				<path class="st46" d="M156.8,170.8c0.1,0.1,0.2,0.1,0.3,0.1c0.1,0,0.1,0,0.1-0.1c0.1-0.1,0.1-0.3,0-0.4
					c-1.1-0.9-2.6-1.1-3.7-0.5c-0.1,0.1-0.2,0.2-0.1,0.4c0.1,0.1,0.2,0.2,0.4,0.1C154.7,169.9,155.9,170.1,156.8,170.8z
					 M155.5,171.9c0.1,0,0.2,0.1,0.2,0c0.1,0,0.1-0.1,0.2-0.1c0.1-0.1,0-0.3-0.1-0.4c-1.1-0.7-2.5-0.9-3.7-0.4
					c-0.2,0.1-0.2,0.2-0.2,0.4c0.1,0.2,0.2,0.2,0.4,0.2C153,171.3,154.2,171,155.5,171.9z M150.5,172.6c0.1,0.1,0.2,0.2,0.4,0.2
					c0.9-0.4,2.3-0.3,3.3,0.3c0.1,0,0.2,0.1,0.2,0c0.1,0,0.1-0.1,0.2-0.1c0.1-0.1,0-0.3-0.1-0.4c-1.2-0.7-2.8-0.9-3.8-0.4
					C150.5,172.2,150.5,172.4,150.5,172.6z"/>
			</g>
			<path id="XMLID_234_" class="st67" d="M168.9,150.3c1.6-4.8,0.9-8.1-1.2-10c-2.4-2.1-6.1-2-7.7-0.5c-0.7-1.7,7.4-3,17.1-5.3
				c1.6-0.4,8.4,0.5,11.6,0.9c0.4,5.9,0.4,10.3-2.3,13c-1.6,1.5-4.7,1.8-7.3,1.9C174.5,150.2,171.6,150.3,168.9,150.3z"/>
		</g>
		<path id="XMLID_233_" class="st27" d="M144.5,97.4c-0.7-0.4,2.8-5.9,3.5-5.5c10.4,5.5,23.8,11.6,26.7,12.6l-4.3,7.3
			C164.5,108.6,153.4,102.8,144.5,97.4z"/>
		<path id="XMLID_232_" class="st68" d="M162.6,98.3c-1.3,2.5-3.3,8.3-4.5,11c5.6,2.8,10.3,4.8,10.7,4.8c4.7-0.5,8.2-9.6,8.6-10.1
			C174.4,103,168.1,100.9,162.6,98.3z"/>
		<path id="XMLID_231_" class="st27" d="M139.4,95.3c-0.2,0.4-0.9,0.5-2,0.8c-0.9,0.2-2.3,0.5-2.8,1.1c-0.5,0.6,0.1,1.1,1.2,1.2
			c1.8,0.2,6,0.5,8.1,0.5c3.5,0.2,6.9-2.3,7-5.7c0.2-5,0-6.9,0-10c0-0.8-1.6-0.1-1.9,0.9c-0.8,2-0.5,2.8-1,3.8
			c-0.5,1-1.4,0.7-2.2,0.1c-3.3-4.3-4.7-7.1-6.3-6.8c-1.3,0.5,0.6,3.7,2.9,7.3c-3.7-2.7-7-4.5-7.5-3.4c-0.6,1.3,2.5,3.6,5.2,6.1
			c-3.5-0.1-7.1-1.3-7.2,0.5C132.7,93,140,94.2,139.4,95.3z"/>
		<path id="XMLID_230_" class="st68" d="M201.2,135c-6.7-0.2-15.5,1.6-20.6,1.1c-4.9-0.5-5.6-3.1-12.1-3.7c-0.3-0.9,1.9-2.5,1.9-3.1
			c0.5-9,0.9-19.5,1.4-25.4c2.7-0.5,17.6-2.9,26.5,0.7C199.8,110.5,201.3,127.5,201.2,135z"/>
		<path id="XMLID_229_" class="st69" d="M175.8,104.8c0-0.4,0.1-1,0.1-1.4c0.3-0.1,0.7-0.1,1-0.2c4-0.5,9.5-0.8,14.7-0.1
			c0,0.1,0,0.2,0,0.2c0.3,3.3-2.9,6.6-7.3,7C180,110.7,176.1,108.1,175.8,104.8z"/>
		<path id="XMLID_228_" class="st27" d="M177.7,95v9.7c0,2.1,2.6,3.8,5.9,3.8c3.3,0,5.9-1.7,6-3.8V95H177.7z"/>
		<path id="XMLID_227_" class="st28" d="M177.7,100.4c-0.1-0.3-0.1-0.7-0.1-1c3.5-0.9,8.7-1.9,12.5-2.3c0.1,0.1,0.1,0.3,0.2,0.4
			c0.6,2.7-1.7,5.5-5.2,6.3C181.7,104.6,178.3,103.1,177.7,100.4z"/>
		<g class="st70">
			<path id="XMLID_226_" class="st43" d="M172.7,141.5c3-4.1,9.5-5.4,13.9-6.4c0.8,0.1,1.5,0.2,2,0.2c0,0.7,0.1,1.3,0.1,2
				c-0.5,4-1.6,7.4-3.5,9.9c-1,1.3-2,2.1-3.1,2.7c-1.1,0.2-2.2,0.2-3.2,0.3c-4.2,0-6.9,0.1-9.5,0.1
				C170.7,146.3,171.5,143.2,172.7,141.5z"/>
		</g>
		<path id="XMLID_225_" class="st27" d="M173.4,146.3c1.1-5.1,2.1-6.1,4-7.3c1.5-0.9,3.6-1,5.1-1.3c6.6,2.2,3.5,10.9,3,11.8
			c-1.7-0.2-2.2,0.5-2.2,0.5c-1.4,6.7-3,14.4-3.5,16.4c-0.8,0-8.8-1.7-9.2-1.8C171,161.8,172.5,150.2,173.4,146.3z"/>
		<path id="XMLID_224_" class="st64" d="M180.8,170.4c0,0.2-11.1,0-11.1-0.2c-0.2-1.7-0.1-5.6-0.2-6.6l11.9,0.8
			C181.1,166.2,181,169.3,180.8,170.4z"/>
		<g>
			<path id="XMLID_223_" class="st65" d="M168.4,169.2c0.1-0.6,0.3-1.3,0.5-2c0.1-0.5,4.8-1,5,0.2c0,0.3,0.1,0.6,0.1,0.8
				c0.8-0.1,1.7-0.2,2.6-0.3c2-0.3,3.8-0.7,5-1c0.3,1.8,0.5,5,0.8,7c0,0-20.5,6.4-24.1,3.7C157.2,176.8,162,172.4,168.4,169.2z"/>
			<path id="XMLID_222_" class="st66" d="M182.2,172.6c0.1,0.5,0.1,0.9,0.2,1.3c0,0-20.5,6.4-24.1,3.7c-0.1-0.1-0.2-0.3-0.1-0.5
				C164.1,177.6,177.1,174.1,182.2,172.6z"/>
			<path class="st46" d="M170,170.8c0.1,0.1,0.2,0.1,0.3,0.1c0.1,0,0.1,0,0.2-0.1c0.1-0.1,0.1-0.3,0-0.4c-0.9-1-2.4-1.4-3.6-1
				c-0.2,0.1-0.2,0.2-0.2,0.4c0.1,0.2,0.2,0.2,0.4,0.2C168,169.6,169.2,170,170,170.8z M168.6,171.7c0.1,0.1,0.2,0.1,0.2,0.1
				c0.1,0,0.1,0,0.2-0.1c0.1-0.1,0.1-0.3,0-0.4c-1-0.9-2.4-1.2-3.6-0.9c-0.2,0-0.3,0.2-0.2,0.4c0,0.2,0.2,0.3,0.4,0.2
				C166.1,170.8,167.4,170.7,168.6,171.7z M163.6,171.7c0,0.2,0.2,0.2,0.4,0.2c1-0.3,2.3,0,3.2,0.8c0.1,0.1,0.1,0.1,0.2,0.1
				c0.1,0,0.1,0,0.2-0.1c0.1-0.1,0.1-0.3-0.1-0.4c-1.1-0.8-2.6-1.2-3.8-0.9C163.6,171.4,163.5,171.6,163.6,171.7z"/>
		</g>
		<path id="XMLID_218_" class="st67" d="M184.9,150.4c1.4-4.9,0.6-8.8-1.6-10.6c-2.4-2.1-5.8-1.3-7.5,0.5c-0.7-1.5,3.9-3.1,13.5-5.7
			c1.6-0.4,8.4,0.2,11.6,0.5c0.6,5.9,0.8,10.3-1.9,13.1c-1.5,1.6-4.7,2-7.2,2.1C189.2,150.3,187.8,150.3,184.9,150.4z"/>
		<path id="XMLID_217_" class="st68" d="M184.7,135.3c4.9-1.1,8.4-0.3,11.3,2.4c2,1.9,6.1,2,6,0.1c-0.1-2-0.7-6.5-0.8-8.1
			C198.3,129.9,184.3,131.5,184.7,135.3z"/>
		<path id="XMLID_216_" class="st68" d="M200.1,105.1c1.8,1,4.1,5.6,9.4,13.4c-3,2.8-11.9,6.1-12.3,6.1c-3-5.1-2-20.8-2.2-20.9
			C196,103.9,199.1,104.6,200.1,105.1z"/>
		<g>
			<g>
				<g>
					<g>
						<path id="XMLID_215_" class="st5" d="M159.3,132.1c-1.2-4-3.4-30.3-2.9-32.1c4.3,3.3,14,4.8,14.3,15.6L159.3,132.1z"/>
						<path class="st71" d="M159.3,132.4l-0.1-0.3c-1.2-4.3-3.4-30.5-2.9-32.2l0-0.2l0.1,0.1c1,0.8,2.4,1.5,3.8,2.2
							c4.6,2.3,10.3,5.2,10.5,13.5L159.3,132.4z M156.5,100.2c-0.3,2.8,1.7,26.8,2.9,31.6l11.2-16.2c-0.2-8.1-5.8-11-10.3-13.3
							C158.9,101.6,157.6,100.9,156.5,100.2z"/>
					</g>
					<g>
						<path id="XMLID_212_" class="st5" d="M159.3,132.1c-1.2-4-7-27.3-7-28.3c9-2.6,17.8,6.1,18.4,11.8c0,0.1-4.4,16.4-4.7,17.9
							C164.7,132.4,161.1,131.2,159.3,132.1z"/>
						<path class="st71" d="M166.1,133.7l-0.2-0.1c-1.3-1.1-4.9-2.2-6.5-1.4l-0.1,0.1l0-0.1c-1.2-4-7-27.3-7-28.4l0-0.1l0.1,0
							c3.8-1.1,7.9-0.3,11.6,2.2c3.7,2.5,6.6,6.5,6.9,9.7c0,0.1-0.2,0.9-1.6,5.9C168,126.5,166.1,133.7,166.1,133.7z M161.3,131.7
							c1.7,0.1,3.6,0.9,4.6,1.6c0.3-1.4,4.6-17.4,4.7-17.7c-0.3-3.1-3.1-7.1-6.8-9.5c-3.6-2.5-7.7-3.2-11.3-2.2
							c0.3,1.9,5.8,23.9,7,28.1C160,131.7,160.6,131.6,161.3,131.7z"/>
					</g>
					<g>
						<path id="XMLID_209_" class="st5" d="M159.6,132.3c-1.2-4-10.2-23.8-10.2-24.8c12-4.3,20.4,3.9,21.3,8.2
							c0,0.1-4.4,16.4-4.7,17.9C164.7,132.4,161.4,131.4,159.6,132.3z"/>
						<path class="st71" d="M166.1,133.7l-0.2-0.1c-1.3-1.1-4.5-2.1-6.2-1.2l-0.1,0.1l0-0.1c-0.6-2.2-3.5-8.9-6.1-14.8
							c-2.5-5.9-4.1-9.6-4.1-10l0-0.1l0.1,0c6.7-2.4,11.9-0.8,15,1c3.8,2.1,6,5.3,6.4,7.3c0,0-0.2,0.9-1.6,5.9
							C168,126.5,166.1,133.7,166.1,133.7z M161.7,131.8c1.5,0.1,3.2,0.7,4.2,1.5c0.3-1.4,4.6-17.4,4.7-17.7c-0.4-2-2.6-5-6.3-7.1
							c-3.1-1.7-8.1-3.3-14.7-1c0.2,0.8,2.1,5.2,4.1,9.8c2.5,5.8,5.3,12.4,6.1,14.7C160.3,131.8,161,131.8,161.7,131.8z"/>
					</g>
					<g>
						<path id="XMLID_206_" class="st5" d="M187.2,132.9c2.8-3.8,5.9-3.4,5.8-9.7c0-1.2,0.3-13.9,0.2-17.7
							c-10-0.6-20.8,2.1-23.1,8.6c0,0.1,0.7,16.8,0.9,18.3c2.3-0.9,4.9-1.4,7.6-1.4C181.8,131.1,184.7,131.8,187.2,132.9z"/>
						<path class="st71" d="M171,132.6l0-0.2c-0.2-1.6-0.9-18.3-0.9-18.4c2.4-6.9,13.7-9.3,23.2-8.7l0.1,0c0,0-0.2,17.4-0.2,17.8
							c0.1,4.4-1.3,5.6-3.2,7.1c-0.8,0.7-1.8,1.5-2.6,2.7l-0.1,0.1l-0.1,0c-2.6-1.2-5.5-1.8-8.5-1.8c-2.6,0-5.2,0.4-7.6,1.4
							L171,132.6z M170.3,114.2c0,0.5,0.7,15.8,0.9,18.1c2.4-0.9,4.9-1.3,7.5-1.3c3,0,5.9,0.6,8.5,1.8c0.9-1.2,1.8-2,2.6-2.7
							c1.8-1.5,3.1-2.7,3.1-6.9c0-0.4,0.3-15.1,0.2-17.6C183.7,105,172.6,107.5,170.3,114.2z"/>
					</g>
					<g>
						<path id="XMLID_203_" class="st5" d="M187.2,132.9c2.8-3.8,4.8-7.4,7.9-11c0.8-0.9-0.2-10.1-0.4-13.4c-6-2-19.8-2.4-24.6,5.7
							c0,0.1,0.7,16.8,0.9,18.3c2.3-0.9,4.9-1.4,7.6-1.4C181.8,131.1,184.7,131.8,187.2,132.9z"/>
						<path class="st71" d="M171,132.6l0-0.2c-0.2-1.6-0.9-18.3-0.9-18.4l0,0c4.8-8.2,18.7-7.7,24.7-5.7l0.1,0c0,0,0.1,1.6,0.2,2.6
							c0.4,5.4,0.8,10.3,0.1,11c-1.9,2.2-3.3,4.4-4.8,6.6c-1,1.4-1.9,2.9-3,4.4l-0.1,0.1l-0.1,0c-2.6-1.2-5.5-1.8-8.5-1.8
							c-2.6,0-5.2,0.4-7.6,1.4L171,132.6z M170.3,114.2c0,0.6,0.7,15.8,0.9,18.1c2.4-0.9,4.9-1.3,7.5-1.3c3,0,5.9,0.6,8.5,1.8
							c1.1-1.4,2-2.9,3-4.3c1.5-2.3,3-4.4,4.9-6.7c0.6-0.7,0.1-7-0.2-10.8c-0.1-1-0.1-1.8-0.2-2.4
							C188.6,106.6,175,106.2,170.3,114.2z"/>
					</g>
					<g>
						<path id="XMLID_200_" class="st5" d="M187.2,132.9c2.8-3.8,6.6-7.5,9.6-11.1c0.8-0.9-0.4-7.5-0.4-9.1c-4.6-4-17-7-26.3,1.4
							c0,0.1,0.7,16.8,0.9,18.3c2.3-0.9,4.9-1.4,7.6-1.4C181.8,131.1,184.7,131.8,187.2,132.9z"/>
						<path class="st71" d="M171,132.6l0-0.2c-0.2-1.6-0.9-18.3-0.9-18.4l0,0c9.7-8.7,22.2-5.1,26.5-1.4l0,0.1
							c0,0.5,0.1,1.5,0.3,2.6c0.4,3.2,0.7,5.9,0.1,6.5c-1.2,1.4-2.5,2.8-3.7,4.2c-2,2.2-4.2,4.6-5.9,6.9l-0.1,0.1l-0.1,0
							c-2.6-1.2-5.5-1.8-8.5-1.8c-2.6,0-5.2,0.4-7.6,1.4L171,132.6z M170.3,114.2c0,0.9,0.7,15.8,0.9,18.1c2.4-0.9,4.9-1.3,7.5-1.3
							c3,0,5.9,0.6,8.5,1.8c1.7-2.3,3.8-4.6,5.9-6.9c1.2-1.4,2.5-2.8,3.7-4.2c0.5-0.6,0.1-4.1-0.2-6.4c-0.1-1.1-0.2-2.1-0.3-2.6
							C192.1,109.1,179.8,105.6,170.3,114.2z"/>
					</g>
					<path id="XMLID_197_" class="st72" d="M172.6,114.1c0.2,0.4-1.6,1.6-3.3,1.6c-1.8,0-3.2-1.1-3.2-1.5
						C166,114,172.5,113.9,172.6,114.1z"/>
					<path id="XMLID_196_" class="st73" d="M200.1,138c-0.7-5.8-1.4-16.7-2.1-22.7c-7.3-6.7-22.6-3.3-25.3-1.7l-0.2,0.1
						c-1.8,1.4-5.2,1.2-6.2,0c-2.3-2.7-9.8-6.6-16.8-2.6c0,0-0.3,0.6-0.2,0.6c1.9,4.9,7.9,19,10.3,24.1c1.9-2.4,11.2-1.8,14.6,1.7
						c0.3,0.9,3.3,1.3,4.8,0.2c10.6-4.2,18.1-0.7,20.8,0.5C199.7,138.2,200,138,200.1,138z"/>
					<path id="XMLID_195_" class="st74" d="M159.4,136.1c-2.4-5.1-8.4-19.6-10.2-24.3c7.4-4.4,15.6,0.1,17.3,2.8
						c0,0.1,7.8,21.7,7.4,23.2C170.5,134.3,161.3,133.7,159.4,136.1z"/>
					<path class="st75" d="M171.1,134.2l-0.4,0.2c-2.8-2.4-8.6-2.3-11-0.6l-0.3-0.1c-1.9-4.2-6.7-16-8-19.7l0.1-0.3
						c3.1-1.9,6.2-1.7,8.2-1.2c2.8,0.7,5,2.3,5.8,3.5c0,0,0.7,2.2,1.5,4.6L171.1,134.2z M164.6,132.1c2.1,0,4.3,0.5,5.9,1.5
						c-0.6-2.1-5.4-17.1-5.5-17.3c-0.7-1.1-2.8-2.6-5.5-3.3c-1.9-0.5-4.8-0.7-7.7,1c1.4,3.8,5.9,14.9,7.9,19.2
						C160.9,132.6,162.7,132.2,164.6,132.1z"/>
					<path id="XMLID_192_" class="st74" d="M199.6,138.2c-0.7-5.7-1.4-16.5-2.1-22.5c-7.2-6.6-22.4-3.2-25.1-1.6
						c0,0.1,5.8,22.3,6,23.9C189.2,133.7,197.1,137.1,199.6,138.2z"/>
					<path class="st75" d="M197.2,135.6c-2.3-1-8.5-3.2-16.6-0.2l-0.3-0.2c-0.1-0.8-2.4-9.6-3.7-14.8c-1-4-1-4-1-4.1l0.1-0.2
						c2.2-1.3,14.3-4,20.1,1.3l0.1,0.1c0.3,2.4,0.6,5.7,0.8,9c0.3,3.2,0.5,6.5,0.8,8.8L197.2,135.6z M180.7,135
						c2.9-1.1,5.6-1.5,8-1.5c3.8,0,6.7,0.9,8.3,1.6c-0.3-2.2-0.5-5.4-0.8-8.4c-0.3-3.2-0.5-6.5-0.8-8.9c-5.6-5-17.1-2.4-19.4-1.3
						c0.1,0.5,0.5,2,1,3.9L180.7,135z"/>
					<path id="XMLID_189_" class="st76" d="M173.8,137.8c0.3,0.9,3.3,1.3,4.7,0.2c-0.1-0.3-6-23.9-6-23.9c-1.7,1.5-5.5,1.3-6.5,0.1
						L173.8,137.8z"/>
				</g>
				<path class="st77" d="M173.2,116.8l-0.1,0.1c-1,0.9-2.6,1.1-3.9,1c-1-0.1-1.9-0.4-2.3-0.8l0.2,0.7c0.5,0.3,1.2,0.5,2,0.6
					c0.2,0,0.4,0,0.7,0c1.2,0,2.5-0.3,3.4-1.1C173.3,117.1,173.3,117,173.2,116.8z M177.7,134.5c-1,0.6-2.3,0.8-3.3,0.7
					c-0.6,0-1.1-0.2-1.5-0.3l0.2,0.5c0.4,0.1,0.8,0.2,1.3,0.3c0.2,0,0.5,0,0.7,0c0.9,0,2-0.2,2.8-0.7
					C177.8,134.8,177.7,134.7,177.7,134.5z"/>
			</g>
			<path id="XMLID_186_" class="st27" d="M188.4,128.7c0.1,0.3,0.2,1,2.5,1.3c0.4,0.1-1.8,0-1.5,0.4c0.9,1,2.4,2.5,5.3,3
				c6.8,1.3,9.9-1.2,10.6-2.7c0.5-1.1-1.3-7.2-6.6-8.4c0,0.8,0.4,3.4-0.1,3.6c-0.7,0.3-2.4-0.4-4.2-0.7c-3.7-0.5-6.4,0.3-5.6,1.3
				c0.3,0.4,6.3,1.6,6.3,1.8C195.1,128.7,188.4,128.5,188.4,128.7z"/>
		</g>
		<g>
			<path id="XMLID_185_" class="st27" d="M160,74.2c4.1-0.5,8,3.5,8.6,8.9c0.6,5.4-0.2,10-4.3,10.5c-4.1,0.5-9.5-3.1-10.9-8.7
				C152.1,79.6,154.4,74.9,160,74.2z"/>
			
				<ellipse id="XMLID_184_" transform="matrix(-0.9409 0.3386 -0.3386 -0.9409 343.6907 111.5302)" class="st47" cx="162.1" cy="85.7" rx="3.8" ry="4.3"/>
			<path id="XMLID_183_" class="st27" d="M208.1,74.2c-4.1-0.5-8,3.5-8.6,8.9c-0.6,5.4,0.2,10,4.3,10.5c4.1,0.5,9.5-3.1,10.9-8.7
				C216,79.6,213.7,74.9,208.1,74.2z"/>
			
				<ellipse id="XMLID_182_" transform="matrix(0.9409 0.3386 -0.3386 0.9409 41.2026 -64.6931)" class="st47" cx="206" cy="85.7" rx="3.8" ry="4.3"/>
			<path id="XMLID_181_" class="st78" d="M156.3,64c-1.7,19.1,12.1,31.4,27.9,31.1c15.7-0.3,28.4-14.4,26.5-32.9
				C209.6,52,198.9,43,183.9,43.4C168.2,43.8,157.6,50.5,156.3,64z"/>
			<path id="XMLID_180_" class="st27" d="M206.4,61.4c-3.4-9.5-11.6-9.6-22.4-9.6s-19,0.1-22.4,9.6c-1,2.9-0.1,26.5,2.8,31.8
				c2.5,4.5,12.1,8.9,18.7,8.9c0.3,0,1.5,0,1.7,0c6.7,0,16.2-4.4,18.7-8.9C206.6,87.8,207.5,64.2,206.4,61.4z"/>
			
				<ellipse id="XMLID_179_" transform="matrix(-0.9983 -5.912559e-002 5.912559e-002 -0.9983 330.7212 184.8088)" class="st54" cx="168.1" cy="87.5" rx="3.4" ry="2"/>
			
				<ellipse id="XMLID_178_" transform="matrix(-0.9967 8.071744e-002 -8.071744e-002 -0.9967 405.6229 158.6677)" class="st54" cx="199.6" cy="87.5" rx="3.4" ry="2"/>
			<g>
				<path id="XMLID_177_" class="st55" d="M193.2,88.6c-0.4-1.9-3.3-1.4-8-1.4c-0.2,0-1.2,0-1.5,0c-4.7,0-7.6-0.5-8,1.4
					c-0.7,3.6,3.9,7.6,8.7,7.6h0.1C189.3,96.2,193.8,92.3,193.2,88.6z"/>
				<path id="XMLID_176_" class="st56" d="M184.5,96.3L184.5,96.3c-1.6,0-3.3-0.4-4.8-1.3l-0.1,0l0.1-0.1c1.3-1.1,2.9-1.7,4.7-1.7
					c1.8,0,3.5,0.6,4.7,1.7l0.1,0.1l-0.1,0C187.6,95.9,186,96.3,184.5,96.3z"/>
				<path id="XMLID_175_" class="st5" d="M184.4,89.6c-3.3,0-6.1-1-6.4-2.4l0-0.1h12.9l0,0.1C190.5,88.6,187.7,89.6,184.4,89.6z"/>
			</g>
			<path id="XMLID_174_" class="st57" d="M182,84.9c0.1,0,0.2-0.1,0.2-0.2c0.1-0.9,0.8-1.5,1.7-1.5c0.9,0,1.7,0.5,1.8,1.4
				c0,0.1,0.2,0.2,0.3,0.2c0.1,0,0.2-0.2,0.2-0.3c-0.2-1.1-1.1-1.9-2.3-1.8c-1.2,0-2.1,0.8-2.2,1.9C181.7,84.7,181.8,84.8,182,84.9
				L182,84.9z"/>
			<path id="XMLID_173_" class="st78" d="M152,73.5c3.3-1.2,5.3-3.3,5.5-8.6c-1.9-0.4-2.8-1-4.6-1.6c7.1-1.8,6-11.9,15.2-16.1
				c15.1-5.7,28.9-1.5,32.9,0.8c7.3,4.3,8.2,10,8.7,16.4c1,5.8,2.3,7.5,5.4,8.9c-3.3,0.9-5.2,0.1-6.3-1c0.3,3.7,2,4.8,3.9,6.5
				c-5.1,0.3-8-4-8.9-7.7c-1-4.1,0.6-8.6-0.1-10.2c-0.4-0.9-3.7-6.3-5.2-6.3c-3.1-0.1-6.5,10.6-17.3,10.4c4.4-2.4,6.8-5.7,9.2-10.5
				c-0.9,0.5-1.7,1.1-2.6,1.9c-8.9,7.9-18.5,9.1-26.2,8.4c1.3,6.2,3.1,12.8-6.6,15.8c0.9-1.1,2.2-4.4,2.4-6.9
				C156.5,74.2,154.6,74.8,152,73.5z"/>
			<path id="XMLID_172_" class="st79" d="M166.2,69.1c-0.2,0-0.4-0.1-0.6-0.3c-0.3-0.3-0.3-0.8,0.1-1.1c2.4-2.2,6.6-2.8,10.2-1.5
				c0.4,0.2,0.6,0.6,0.5,1c-0.2,0.4-0.6,0.6-1,0.5c-3-1.1-6.6-0.6-8.5,1.2C166.6,69.1,166.4,69.1,166.2,69.1z"/>
			<path id="XMLID_171_" class="st79" d="M201.5,69.1c0.2,0,0.4-0.1,0.6-0.3c0.3-0.3,0.3-0.8-0.1-1.1c-2.4-2.2-6.6-2.8-10.2-1.5
				c-0.4,0.2-0.6,0.6-0.5,1c0.2,0.4,0.6,0.6,1,0.5c3-1.1,6.6-0.6,8.5,1.2C201.2,69.1,201.4,69.1,201.5,69.1z"/>
			<g>
				<path id="XMLID_170_" class="st59" d="M189.7,83.1c0,0,7.6,2.4,10.5-1.6c3.5-4.9-1.9-8.7-5.4-8
					C191.6,74.3,188.7,77.1,189.7,83.1z"/>
				<path id="XMLID_169_" class="st60" d="M200.8,75.4c-1.4-1.8-3.3-2.3-5.3-2.1c-2.1,0.2-4.2,1.7-4.8,3.2c1.1-1.7,3.1-2.4,4.3-2.6
					c1.9-0.4,4.5,0.4,5.6,2.2c1,1.5,0.9,3.9-0.4,5.7C201.6,80.5,202.2,77.2,200.8,75.4z"/>
				<circle id="XMLID_168_" class="st61" cx="194.6" cy="79.3" r="3.4"/>
				<circle id="XMLID_167_" class="st5" cx="192.6" cy="77.9" r="0.9"/>
			</g>
			<g>
				<path id="XMLID_166_" class="st59" d="M178.3,83.2c0,0-7.6,2.4-10.5-1.6c-3.5-4.9,1.9-8.7,5.4-8
					C176.4,74.3,179.3,77.1,178.3,83.2z"/>
				<path id="XMLID_165_" class="st60" d="M167.2,75.4c1.4-1.8,3.3-2.3,5.3-2.1c2.1,0.2,4.2,1.7,4.8,3.2c-1.1-1.7-3.1-2.4-4.3-2.6
					c-1.9-0.4-4.5,0.5-5.6,2.2c-1,1.5-0.9,3.9,0.4,5.7C166.4,80.5,165.8,77.2,167.2,75.4z"/>
				<circle id="XMLID_164_" class="st61" cx="173.6" cy="79.4" r="3.4"/>
				<circle id="XMLID_163_" class="st5" cx="171.5" cy="77.9" r="0.9"/>
			</g>
		</g>
	</g>
	<g class="motions">
		<path id="XMLID_162_" class="st80" d="M107.9,261.1c0,0,0.4,0.5,0.6,3.2c5.3-5.1,6.8-15.6,5.8-38.8L58.6,225
			c-1.7,27-4.9,36.9,6,41.8c0.2-0.6,0.2-3.7,0.6-4.3c0.2,1.7,1,4.2,1.4,4.8c7.3,1.3,28.4,2.5,34.6,0.9c2.2-0.6,4-1.3,5.6-2.4
			C107.1,262.6,107.9,261.1,107.9,261.1z"/>
		<path id="XMLID_161_" class="st81" d="M81.7,320.2c0.3-0.2,6.9,2.4,9.7,3c3.4,0.8,12-2.1,10.6-3.6c-3.2-3.1-16-7.2-18-6.2
			c-3.7,1.8-12.4,4-12.6,7c-0.1,1.5,4.9,2.9,7,1.8C80,321.4,80.8,320.8,81.7,320.2z"/>
		<ellipse id="XMLID_160_" class="st81" cx="85.9" cy="313.6" rx="18.1" ry="2.3"/>
		<path id="XMLID_159_" class="st82" d="M109,296.2c-1.6-0.9-4.7-1.5-8.2,0.9c-2.1,0.1-29,1-31.1,0.9c-3.5-2.4-6.6-1.9-8.2-0.9
			c-1.7,1.1-3.9,4.2-2.2,7.8c1.5,3.3,11.2,9.1,14.3,9.2c2.9,0.1,20.2,0.1,23.1,0c3-0.1,13.1-6.3,14.6-9.6
			C112.9,300.8,110.9,297.2,109,296.2z"/>
		<path id="XMLID_158_" class="st83" d="M59,276.8c2.6,1.5,8,5.1,10.9,5.9c3.9-4.9,7.5-20,7.5-20.5c-3.4,0.2-7.3,0.7-8.4,1.3
			C67,266,61.7,272.6,59,276.8z"/>
		<path id="XMLID_157_" class="st83" d="M113,276.8c-2.6,1.5-8,5.1-10.9,5.9c-3.9-4.9-7.5-20-7.5-20.5c3.4,0.2,7.3,0.7,8.4,1.3
			C104.9,266.1,110.2,272.7,113,276.8z"/>
		<path id="XMLID_156_" class="st84" d="M103.8,295.7c-0.2-0.3-0.6-1-0.8-1.3c-6,0.1-28.6,0.7-35,0.9c-0.1,0.6-0.2,1.1-0.3,1.7
			C74.9,302.1,88.8,306.7,103.8,295.7z"/>
		<path id="XMLID_155_" class="st83" d="M67.7,296.9c8.8,5.2,25.3,6.1,36.1-1.2c0,0-2.9-25.7-4.2-32.6c-7.4-2.1-21.3-1.5-28.1-0.3
			C70.4,271.6,68.8,284,67.7,296.9z"/>
		<path id="XMLID_154_" class="st27" d="M93.9,263.4c0-0.4-0.1-0.9-0.2-1.3c-4.5-0.3-11.4-0.4-16.3,0c0,0.2-0.1,0.4-0.1,0.6
			c-0.2,3.4,3.4,6.4,8,6.6C89.9,269.5,93.8,266.9,93.9,263.4z"/>
		<path id="XMLID_153_" class="st27" d="M91.5,253.9l-0.1,9.7c0,2.1-2.7,3.7-5.9,3.7c-3.3,0-5.9-1.8-5.9-3.8l0.1-9.7L91.5,253.9z"/>
		<path id="XMLID_152_" class="st85" d="M92.9,258.6c0-0.4,0-0.8-0.1-1.2c-4.1-0.3-10.2-0.4-14.5,0c0,0.2-0.1,0.3-0.1,0.5
			c-0.1,3.1,3.1,5.7,7.1,5.9C89.4,264,92.8,261.6,92.9,258.6z"/>
		<g>
			<g>
				<g>
					<path id="XMLID_151_" class="st86" d="M108.1,295.8c0.7-2.8,2.8-19.9,3.4-24.3c-5.9-1.3-19.4-0.1-24.9,10.3
						c0,0.1,4.3,13.6,4.6,15C93.3,295.7,105.5,294.9,108.1,295.8z"/>
					<path class="st87" d="M91.2,296.9L91.2,296.9c-0.2-1-2.2-7-3.4-11c-1.1-3.4-1.3-4-1.3-4c3-5.8,8.4-8.4,12.3-9.6
						c5.1-1.5,10-1.3,12.6-0.7l0,0c0,0-0.5,4-0.9,6.9c-0.8,6.6-2,15.5-2.5,17.5l0,0l0,0C105.6,295.1,93.3,295.8,91.2,296.9z
						 M86.6,281.8c0,0.2,4.4,13.9,4.6,14.9c1.2-0.5,5-1,8.2-1.2c3.1-0.2,7.2-0.2,8.6,0.2c0.5-2,1.6-10.9,2.5-17.4
						c0.4-2.9,0.7-5.4,0.9-6.8C105.9,270.3,92.1,271.2,86.6,281.8z"/>
				</g>
				<g>
					<path id="XMLID_148_" class="st88" d="M111.8,287.6c0.1-0.2,0.9-11.2,1.1-13.2c-5.4-2.4-19.3-1.5-26.5,7.5
						c0,0.1,4.4,13.5,4.8,14.9C93.3,295.7,109,289.3,111.8,287.6z"/>
					<path class="st87" d="M91.2,296.9L91.2,296.9c-0.2-1-2.2-7.1-3.6-11.2c-1.1-3.3-1.2-3.8-1.2-3.8c3.2-4,8.1-6.9,14-8.1
						c4.7-1,9.7-0.8,12.6,0.5l0,0c0,0-0.3,3.5-0.5,6.2c-0.3,4.4-0.5,7-0.6,7.2c-1.8,1.1-9.1,4.2-14.4,6.5
						C94.5,295.3,92,296.4,91.2,296.9L91.2,296.9z M86.5,281.9c0.1,0.2,4.5,13.7,4.7,14.8c0.8-0.4,3.2-1.4,6.3-2.8
						c5.3-2.2,12.5-5.3,14.3-6.4c0.1-0.3,0.3-3.9,0.6-7.1c0.2-2.7,0.4-5.2,0.5-6.1c-2.9-1.3-7.9-1.5-12.6-0.5
						C94.6,275.1,89.6,277.9,86.5,281.9z"/>
				</g>
				<g>
					<path id="XMLID_145_" class="st86" d="M67.3,295.9c-2.4-3.8-1.1-7.3-3.8-11c-0.7-0.9-1.6-8.7-2.4-13.1
						c5.8-1.4,18.5-0.7,25.2,9.8c0,0.1-3.3,13.7-3.6,15.2c-2.1-1-4.5-1.7-7.2-1.9C72.6,294.6,69.8,295,67.3,295.9z"/>
					<path class="st87" d="M82.8,296.9L82.8,296.9c-2.2-1.1-4.6-1.7-7.2-2c-2.9-0.2-5.7,0.1-8.3,1c-1.2-1.9-1.5-3.7-1.8-5.4
						c-0.3-1.9-0.6-3.7-2-5.6c-0.5-0.7-1.1-4.6-1.6-8.4c-0.3-1.7-0.8-4.8-0.8-4.8l0,0c2.8-0.7,7.5-0.9,12.3,0.4
						c5.5,1.5,10,4.8,13,9.4c0,0-0.2,1-1.3,5.7C84.1,291.2,82.8,296.9,82.8,296.9z M73.7,294.7c0.6,0,1.2,0,1.9,0.1
						c2.5,0.2,4.9,0.9,7.1,1.9c0.2-0.9,3.5-14.8,3.6-15.1c-6.4-10-18.5-11.4-25.1-9.8c0.2,1.3,0.5,3,0.7,4.7
						c0.6,3.8,1.2,7.7,1.6,8.3c1.4,1.9,1.7,3.8,2,5.7c0.3,1.7,0.6,3.5,1.7,5.3C69.3,295.1,71.5,294.7,73.7,294.7z"/>
				</g>
				<g>
					<path id="XMLID_142_" class="st88" d="M63.6,288.2c-0.1-0.2-3.3-11.5-3.8-13.6c5.7-2.9,18.9-2.5,26.5,7
						c0,0.1-3.3,13.7-3.6,15.2C80.6,295.8,66.6,290,63.6,288.2z"/>
					<path class="st87" d="M82.8,296.9L82.8,296.9c-0.8-0.4-2.8-1.3-5.5-2.4c-5-2.1-11.8-5.1-13.7-6.2c-0.1-0.2-3.3-11.4-3.8-13.6
						l0,0l0,0c3.1-1.6,7.9-2,12.5-1.2c4,0.7,9.7,2.8,14,8.2c0,0-0.2,1-1.3,5.7C84.1,291.2,82.8,296.9,82.8,296.9z M63.7,288.2
						c2,1.1,8.7,4.1,13.7,6.2c2.6,1.1,4.6,2,5.4,2.4c0.2-0.9,3.5-14.8,3.6-15.1c-4.3-5.4-10-7.4-13.9-8.1c-4.6-0.9-9.4-0.4-12.5,1.1
						C60.4,277,63.5,287.7,63.7,288.2z"/>
				</g>
				<path id="XMLID_139_" class="st89" d="M59.3,278.3c0.2-0.2,0.3-0.3,0.5-0.5c9.5-2.4,17.8-0.2,23.2,3.8c0.2,1.6,1,17.4,0.7,19.4
					C76,298.7,66.1,276.8,59.3,278.3z"/>
				<path id="XMLID_138_" class="st89" d="M114,278.3c-0.2-0.2-0.3-0.3-0.5-0.5c-9.5-2.4-17.8-0.2-23.2,3.8
					c-0.2,1.6-1,17.4-0.7,19.4C97.3,298.7,107.2,276.8,114,278.3z"/>
				<path id="XMLID_137_" class="st9" d="M108.3,300c1.5-6.2,4.2-15,5.8-21.7c-9.7-3-18.3-0.1-23.6,3.8c-0.2,1.5-1.4,17.3-1.1,19.3
					C97,299.1,101.5,298.6,108.3,300z"/>
				<path class="st75" d="M91.8,299c0,0-0.1-0.1-0.1-0.1c-0.3-1.6,0.7-14.3,0.9-15.4c0-0.1,0-0.1,0.1-0.1c5.3-3.9,12.4-5,18.9-3
					c0.1,0,0.1,0.1,0.1,0.2c-0.7,2.9-1.6,6.3-2.5,9.6c-0.8,2.8-1.5,5.4-2,7.6c0,0.1-0.1,0.2-0.2,0.1c-5.6-1.2-9.3-0.6-15,1L91.8,299
					C91.8,299,91.8,299,91.8,299z M106.8,297.6c0.5-2.2,1.3-4.8,2-7.5c0.9-3.2,1.8-6.6,2.5-9.5c-6.4-1.9-13.2-0.8-18.4,3
					c-0.2,1.7-1.1,12.9-0.9,15c3.6-1,6.4-1.6,9.4-1.6C103.1,297,104.8,297.2,106.8,297.6z"/>
				<path id="XMLID_134_" class="st9" d="M65,300c-1.5-6.2-4.2-15-5.8-21.7c9.7-3,18.3-0.1,23.6,3.8c0.2,1.5,1.4,17.3,1.1,19.3
					C76.3,299.1,71.8,298.6,65,300z"/>
				<path class="st75" d="M81.4,299L81.4,299c-5.8-1.7-9.4-2.2-15-1c-0.1,0-0.2,0-0.2-0.1c-0.5-2.2-1.3-4.9-2-7.6
					c-0.9-3.3-1.8-6.7-2.5-9.6c0-0.1,0-0.2,0.1-0.2c6.5-2,13.6-0.9,18.9,3c0,0,0.1,0.1,0.1,0.1c0.1,1.1,1.1,13.8,0.9,15.4
					C81.6,298.9,81.6,299,81.4,299C81.5,299,81.5,299,81.4,299z M71.9,297c3,0,5.8,0.6,9.4,1.6c0.2-2.1-0.7-13.3-0.9-15
					c-5.2-3.8-12.1-4.9-18.4-3c0.7,2.9,1.6,6.2,2.5,9.5c0.7,2.7,1.5,5.3,2,7.5C68.5,297.2,70.2,297,71.9,297z"/>
				<path id="XMLID_131_" class="st72" d="M90.4,282.1c0,0.3-1.6,0.9-3.7,0.9c-2.1,0-3.9-0.6-3.8-0.9c0-0.2,1.7-0.7,3.8-0.8
					C88.8,281.3,90.4,281.9,90.4,282.1z"/>
				<path id="XMLID_130_" class="st89" d="M83,284.1c0-1-0.1-1.9-0.1-2.5c2.8,0.7,4.9,0.8,7.5,0c0,0.4-0.2,2.3-0.1,2.8
					C88.4,285.2,84.5,285.5,83,284.1z"/>
				<path id="XMLID_129_" class="st6" d="M84,301.3c-0.2-5.3-0.8-12.9-1.1-19.3c2.8,0.5,4.9,0.7,7.5,0c0,1.5-0.2,15.9-0.3,19.1
					C89,302.1,85.5,302.2,84,301.3z"/>
				<g>
					<path id="XMLID_128_" class="st77" d="M90.3,285c0-0.2,0-0.4,0-0.5c-0.6,0.6-2.1,1-4,1c-1.4,0-2.6-0.2-3.3-0.5
						c0,0.2,0,0.3,0,0.5c0,0,0.1,0,0.1,0.1c0.8,0.3,2,0.4,3.2,0.4C87.9,285.8,89.5,285.5,90.3,285z"/>
					<path id="XMLID_127_" class="st77" d="M86.7,299.6c1.2,0,2.5-0.2,3.4-0.5c0-0.1,0-0.3,0-0.5c-0.8,0.3-2,0.6-3.4,0.6
						c-1.1,0-2.1-0.2-2.9-0.4c0,0.1,0,0.3,0,0.4C84.7,299.5,85.6,299.6,86.7,299.6z"/>
				</g>
			</g>
			<path id="XMLID_126_" class="st27" d="M107.2,288.9c-0.8-0.5-2.4-1.7-3.2-0.8c-0.3,0.4,1.2,1.5,2.6,2.5c0.5,0.4,0.7,0.3,2.3,0.9
				c0,0.2-0.9,0.1-1.9-0.4c-0.5-0.2-1.7-1.9-2.8-0.9c-0.2,0.2,1.6,1.9,2,2.3c0.7,0.6,5.3,3,5.6,3c1.3,0,2.5-0.8,3-2.5
				c0.3-1.4-0.4-5.2-1.7-7.6c-1.5-1-2.7-1.4-3.8-2c-3.5-0.8-5.1-1.3-5.1-0.6c-0.2,1.6,2.6,2.2,4,2.6c1.1,0.5,2.2,1.2,2.7,1.5
				c0,0.3-1.8-0.7-2.8-1.1c-0.9-0.3-4-1.1-4.1-0.5c-0.3,1.6,1.2,1.5,3.5,2.5c0.8,0.5,2.4,1.5,2.4,1.7
				C109.4,289.9,108.9,289.6,107.2,288.9z"/>
			<path id="XMLID_125_" class="st27" d="M66.4,288.8c0.7-0.5,2.3-1.8,3.1-1c0.3,0.4-1.1,1.5-2.5,2.6c-0.5,0.4-0.7,0.3-2.3,1.1
				c0,0.2,0.9,0,1.9-0.5c0.5-0.3,1.6-2,2.8-1.1c0.2,0.2-1.5,2-1.9,2.4c-0.6,0.7-5.1,3.3-5.4,3.3c-1.3,0.1-2.5-0.7-3.1-2.4
				c-0.3-1.4,0.1-5.2,1.3-7.6c1.5-1.1,2.6-1.6,3.7-2.2c3.4-0.9,5-1.5,5.1-0.9c0.3,1.6-2.5,2.3-3.8,2.9c-1,0.5-2.1,1.3-2.6,1.7
				c0,0.3,1.8-0.8,2.8-1.3c0.9-0.4,4-1.4,4.1-0.8c0.4,1.6-1.2,1.6-3.3,2.7c-0.8,0.5-2.3,1.6-2.3,1.8
				C64.3,289.9,64.8,289.6,66.4,288.8z"/>
		</g>
		<path id="XMLID_124_" class="st27" d="M79.6,309.2c-0.2,0.1,3.3,7.6,3.6,7.5c1.9-0.7,16.6-7,24.6-10.5c2.8-1.2,4.1-4.5,2.8-7.2
			c-1.3-2.9-4.8-4.1-7.6-2.5C95.1,300.8,80.8,308.5,79.6,309.2z"/>
		<g>
			<path id="XMLID_123_" class="st64" d="M75.1,310.6l5,9.5c1.6-1,11.2-6.7,12.7-7.5l-5.2-8.5c-0.7,0.5-2.8,1.8-3.7,2.4
				C83.3,307,75.4,310.2,75.1,310.6z"/>
			<path id="XMLID_122_" class="st90" d="M77.2,322c-4.9-0.5-7.6-6.1-5.8-9c0.4-0.7,1.7-1.5,2.3-1.9c2.3,0.7,6.5,8,5.9,9.9
				C79.2,321.2,77.6,322,77.2,322z"/>
			<path id="XMLID_121_" class="st83" d="M79.1,321.2c-4.9-0.1-8.9-6.2-5.5-10c1.4-0.9,3.4-1.7,8.1-3.6c0.4-0.2,2.3-1.3,2.8-1.6
				c2.8,0.9,6,6.7,4.9,8.8c-0.5,0.3-1.3,0.7-2.2,1.3C82.6,319,80,321.2,79.1,321.2z"/>
			<path class="st5" d="M81.4,310.3c0.6,0.1,1.4,0.8,2,1.8c0,0,0,0.1,0.1,0.1c0.6,0.9,0.9,1.9,0.8,2.6c0,0.1,0,0.1,0,0.2
				c0,0.1,0.1,0.1,0.2,0.1c0.1,0,0.3-0.1,0.3-0.2c0.1-0.9-0.2-2-0.9-3.1l-0.1-0.1c-0.7-1.1-1.6-1.8-2.3-2c-0.1,0-0.3,0.1-0.3,0.2
				C81.2,310.1,81.3,310.2,81.4,310.3z M79.7,310.9c0,0.1,0.1,0.1,0.2,0.1c1.3,0.3,3.2,3,3,4.7c0,0.1,0.1,0.3,0.2,0.3
				c0.1,0,0.3-0.1,0.3-0.2c0.3-2-1.8-5-3.4-5.4c-0.1,0-0.3,0.1-0.3,0.2C79.6,310.8,79.6,310.9,79.7,310.9z M81.7,317
				c0.2-2.1-2-5.1-3.5-5.6c-0.1,0-0.3,0-0.3,0.2c0,0.1,0.1,0.3,0.2,0.3c1.3,0.4,3.3,3.2,3.1,5c0,0.1,0,0.1,0,0.2
				c0,0.1,0.1,0.1,0.2,0.1C81.6,317.2,81.7,317.1,81.7,317z"/>
		</g>
		<path id="XMLID_117_" class="st27" d="M90.5,311c0.2,0.1-3.6,7.5-3.8,7.4c-1.9-0.8-16.4-7.6-24.3-11.2c-2.8-1.3-3.9-4.6-2.6-7.3
			c1.4-2.8,4.9-3.9,7.6-2.3C75.3,302.1,89.3,310.3,90.5,311z"/>
		<g>
			<path id="XMLID_116_" class="st64" d="M97.3,311.2l-3.4,10.1c-1.8-0.8-12.1-4.8-13.7-5.2l3.7-9.2c0.8,0.4,3,1.3,4.1,1.7
				C88.6,309,96.9,310.9,97.3,311.2z"/>
			<path id="XMLID_115_" class="st90" d="M97,322.7c4.7-1.3,6.4-7.3,4.3-9.7c-0.5-0.6-1.9-1.2-2.5-1.5c-2.2,1-5.1,8.9-4.1,10.6
				C95,322.3,96.6,322.8,97,322.7z"/>
			<path id="XMLID_114_" class="st83" d="M95,322.2c4.8-0.9,7.7-7.6,3.8-10.7c-1.5-0.7-3.7-1.1-8.5-2.2c-0.4-0.1-2.4-0.9-3-1.2
				c-2.6,1.4-4.8,7.5-3.4,9.4c0.6,0.2,1.4,0.5,2.4,0.9C91.2,320.6,94.1,322.4,95,322.2z"/>
			<path class="st5" d="M91.2,311.5c0-0.1-0.2-0.2-0.3-0.2c-0.7,0.3-1.5,1.2-2,2.4l0,0.1c-0.5,1.2-0.6,2.3-0.3,3.1
				c0,0.1,0.2,0.2,0.3,0.1c0.1,0,0.1-0.1,0.1-0.2c0-0.1,0-0.1,0-0.2c-0.2-0.7-0.1-1.7,0.3-2.7c0,0,0-0.1,0-0.1
				c0.4-1,1.1-1.8,1.7-2.1C91.2,311.8,91.2,311.7,91.2,311.5z M92.8,312c0-0.1-0.2-0.2-0.3-0.1c-1.5,0.6-3,3.9-2.5,5.8
				c0,0.1,0.2,0.2,0.3,0.2c0.1-0.1,0.2-0.2,0.2-0.4c-0.5-1.6,0.9-4.6,2.2-5.1c0.1,0,0.1-0.1,0.1-0.1C92.9,312.2,92.9,312.1,92.8,312
				z M92.1,318.6c0.1,0,0.1-0.1,0.2-0.2c0-0.1,0-0.1,0-0.2c-0.5-1.7,1-4.8,2.3-5.4c0.1-0.1,0.2-0.2,0.1-0.4c0-0.1-0.2-0.2-0.3-0.1
				c-1.5,0.7-3.1,4.1-2.6,6.1C91.8,318.6,92,318.7,92.1,318.6z"/>
		</g>
		<g>
			<path id="XMLID_110_" class="st27" d="M53,244.4c1.4,5.2,6.5,8.5,10.4,7.9c3.8-0.5,4.5-4.9,3.8-9.9c-0.7-5-4.4-8.7-8.2-8.1
				C53.7,235.1,51.7,239.5,53,244.4z"/>
			
				<ellipse id="XMLID_109_" transform="matrix(-0.9899 0.1415 -0.1415 -0.9899 156.3742 478.851)" class="st47" cx="61.2" cy="245" rx="3.6" ry="4"/>
			<path id="XMLID_108_" class="st27" d="M118,244.2c-1.4,5.2-6.5,8.5-10.3,8c-3.8-0.5-4.6-4.8-3.9-9.9c0.7-5,4.3-8.7,8.2-8.2
				C117.2,234.8,119.3,239.2,118,244.2z"/>
			
				<ellipse id="XMLID_107_" transform="matrix(0.9909 0.1346 -0.1346 0.9909 33.9546 -12.5209)" class="st47" cx="109.6" cy="244.8" rx="3.6" ry="4"/>
			<path id="XMLID_106_" class="st80" d="M112.4,227.1c0.1,16.4-11.3,23.9-27.3,23.9c-16,0.1-27.7-7.3-27.7-23.7
				C57.4,210.8,69.1,207,85,206.9C101,206.9,112.4,210.6,112.4,227.1z"/>
			<path id="XMLID_105_" class="st27" d="M110.6,232.8c0.1,19.3-10.3,28-24.9,28c-14.6,0.1-25.3-8.6-25.4-27.8
				c-0.1-19.3,10.6-19.8,25.2-19.9C100.1,213.1,110.5,213.5,110.6,232.8z"/>
			
				<ellipse id="XMLID_104_" transform="matrix(1 -3.507290e-003 3.507290e-003 1 -0.8622 0.3597)" class="st91" cx="102.1" cy="246" rx="3.1" ry="1.6"/>
			
				<ellipse id="XMLID_103_" transform="matrix(1 -3.460449e-003 3.460449e-003 1 -0.8513 0.238)" class="st91" cx="68.4" cy="246.1" rx="3.1" ry="1.6"/>
			<g>
				<path id="XMLID_102_" class="st59" d="M92.2,236.1c-1.7,2.6-1.5,5.5,0.1,6.5c2.4,1.6,7.9,2,10-0.4c2-2.3,1-6.5-2.3-8.2
					C97,232.5,93.8,233.6,92.2,236.1z"/>
				<path id="XMLID_101_" class="st92" d="M102.5,235.3c-2.6-4-8.7-2.6-10.4,0.9c1.7-2.6,5-3.4,7.7-2c1.6,0.9,2.8,2.5,3.2,4.2
					c0.3,1.4,0,3-0.9,4C103,241.8,104.4,238.2,102.5,235.3z"/>
				<circle id="XMLID_100_" class="st93" cx="96.1" cy="239.1" r="3.5"/>
				<circle id="XMLID_99_" class="st5" cx="94" cy="237.9" r="1"/>
			</g>
			<g>
				<path id="XMLID_98_" class="st59" d="M79.6,236.2c1.8,2.6,1.5,5.4,0,6.5c-2.4,1.6-7.9,2.1-10-0.3c-2-2.3-1-6.5,2.3-8.2
					C74.7,232.6,77.9,233.7,79.6,236.2z"/>
				<path id="XMLID_97_" class="st92" d="M69.3,235.4c2.6-4,8.7-2.6,10.4,0.8c-1.8-2.6-5-3.4-7.7-1.9c-1.6,0.9-2.8,2.5-3.1,4.3
					c-0.3,1.4,0.1,3,0.9,4C68.8,241.9,67.4,238.4,69.3,235.4z"/>
				<circle id="XMLID_96_" class="st93" cx="75.7" cy="239.2" r="3.5"/>
				<circle id="XMLID_95_" class="st5" cx="73.6" cy="238" r="1"/>
			</g>
			<path id="XMLID_94_" class="st55" d="M94.4,248c-0.4-1.8-3.2-1.4-7.8-1.4c-0.2,0-1.2,0-1.4,0c-4.6,0-7.5-0.4-7.8,1.4
				c-0.7,3.6,3.8,7.4,8.5,7.5h0.1C90.6,255.4,95.1,251.5,94.4,248z"/>
			<path id="XMLID_93_" class="st56" d="M85.9,255.5L85.9,255.5c-1.6,0-3.2-0.4-4.7-1.2l-0.1,0l0.1-0.1c1.2-1.1,2.9-1.7,4.6-1.7
				c1.8,0,3.4,0.6,4.6,1.7l0.1,0.1l-0.1,0C89.1,255.1,87.5,255.5,85.9,255.5z"/>
			<path id="XMLID_92_" class="st5" d="M85.9,248.9c-3.2,0-5.9-1-6.3-2.3l0-0.1h12.6l0,0.1C91.8,247.9,89.1,248.9,85.9,248.9z"/>
			<path id="XMLID_91_" class="st57" d="M87.9,244.8c-0.1,0-0.2-0.1-0.2-0.2c-0.1-0.9-0.8-1.4-1.7-1.4c-0.9,0-1.6,0.6-1.7,1.4
				c0,0.1-0.1,0.2-0.3,0.2c-0.1,0-0.2-0.1-0.2-0.3c0.2-1.1,1.1-1.8,2.2-1.8c1.1,0,2,0.7,2.2,1.8C88.1,244.6,88,244.7,87.9,244.8
				L87.9,244.8z"/>
			<path id="XMLID_90_" class="st80" d="M66.7,213.4c0.2,0.5,0.4,9.4,0.5,13.3c0.1,2.8-5.3,13.9-16.8,5.6
				C66.3,232.5,50.6,216.5,66.7,213.4z"/>
			<path id="XMLID_89_" class="st80" d="M110,214.7c3.9-3.1,5.1-5.9,2.2-9.7c0,7.8-32-5.9-44.6,4.7c0.3,0-2.9,3.3-0.8,5.6
				c1.6,4.6,10.3,10.5,25.1,12.5c-2.5-1.5-6.8-3.3-8.6-6c1.9,1.1,5.3,2.5,8.7,3c5,0.8,13.3-0.3,17.7-1.2c1.7,7.5,0.2,18.3-0.6,21.1
				C117.9,232.8,114,215.9,110,214.7z"/>
			<path id="XMLID_88_" class="st94" d="M103.1,228.8c0.2,0,0.4-0.1,0.6-0.3c0.3-0.3,0.3-0.8-0.1-1.1c-2.4-2.1-6.6-2.7-10.1-1.4
				c-0.4,0.2-0.6,0.6-0.5,1c0.2,0.4,0.6,0.6,1,0.5c2.9-1.1,6.6-0.6,8.5,1.1C102.7,228.7,102.9,228.8,103.1,228.8z"/>
			<path id="XMLID_87_" class="st94" d="M68.6,228.8c-0.2,0-0.4-0.1-0.6-0.3c-0.3-0.3-0.3-0.8,0.1-1.1c2.4-2.1,6.6-2.7,10.1-1.4
				c0.4,0.2,0.6,0.6,0.5,1c-0.2,0.4-0.6,0.6-1,0.5c-2.9-1.1-6.6-0.6-8.5,1.1C69,228.7,68.8,228.8,68.6,228.8z"/>
			<path id="XMLID_86_" class="st95" d="M85.9,207.3c-7.2-0.1-14,1.9-19.2,5.6c0.5-1.7,2-7.2,7.6-10.2c-7-1.9-9.9,2.2-8.9,7.4
				c-2.2-2.8-8-3.6-11.7,3.9c7.5-2.3,11.2-0.6,12.3-0.5c-1.4,1.1-2.8,2.3-3.9,3.6c5.5-4.8,15.6-6.9,24-6.9c7.5,0,16.6,1.8,22.2,6.4
				C103,210.9,94.8,207.5,85.9,207.3z"/>
		</g>
	</g>
	<g>
		
			<ellipse id="XMLID_85_" transform="matrix(-1 -2.356233e-003 2.356233e-003 -1 734.4095 723.2783)" class="st81" cx="367.6" cy="361.2" rx="33" ry="2.4"/>
		<g>
			<path id="XMLID_84_" class="st27" d="M374,355.3c0,0.3,8.4,0,8.4-0.4c0.1-2.7,0.1-38.8,0.1-40.4l-12,3.7
				C370.8,321,373.8,353.5,374,355.3z"/>
			<path id="XMLID_83_" class="st64" d="M373.2,356.3c0,0.2,10.7,0.2,10.7,0c0.2-1.9,0.1-6.4,0.2-7.4h-11.3
				C373,350.8,373.1,355,373.2,356.3z"/>
			<g>
				<path id="XMLID_82_" class="st65" d="M386,353.4c-0.1-0.6-0.4-1.3-0.7-2c-0.2-0.5-4.9-0.5-5,0.7c0,0.3,0,0.6,0,0.8
					c-0.8,0-1.7,0-2.6-0.1c-2-0.1-3.8-0.3-5.1-0.6c-0.1,1.8,0,5.1-0.2,7.1c0,0,21.2,4.4,24.6,1.4C397.9,360,392.7,356,386,353.4z"/>
				<path id="XMLID_81_" class="st66" d="M372.5,358.1c0,0.5,0,0.9,0,1.3c0,0,21.2,4.4,24.6,1.4c0.1-0.1,0.1-0.3,0-0.5
					C391.1,361.5,377.7,359.1,372.5,358.1z"/>
				<path class="st46" d="M387.4,354.1c0.2,0,0.3-0.1,0.4-0.2c0-0.2-0.1-0.3-0.2-0.4c-1.2-0.3-2.7,0.2-3.5,1.3
					c-0.1,0.1-0.1,0.3,0,0.4c0,0,0.1,0.1,0.2,0.1c0.1,0,0.2,0,0.3-0.1C385.2,354.3,386.4,353.8,387.4,354.1z M389,354.9
					c0.2,0,0.3-0.1,0.3-0.3c0-0.2-0.1-0.3-0.3-0.3c-1.3-0.2-2.6,0.3-3.6,1.3c-0.1,0.1-0.1,0.3,0,0.4c0.1,0.1,0.1,0.1,0.2,0.1
					c0.1,0,0.2,0,0.2-0.1C387.1,354.8,388.4,354.8,389,354.9z M390.8,355.1c-1.2-0.2-2.7,0.3-3.7,1.2c-0.1,0.1-0.1,0.3,0,0.4
					c0.1,0.1,0.1,0.1,0.2,0.1c0.1,0,0.2,0,0.2-0.1c0.9-0.8,2.2-1.3,3.2-1.1c0.2,0,0.3-0.1,0.3-0.2
					C391.1,355.3,391,355.2,390.8,355.1z"/>
			</g>
		</g>
		<g>
			<path id="XMLID_77_" class="st27" d="M361.2,355.3c0,0.3-8.4-0.1-8.4-0.4c-0.1-2.7,0.1-38.8,0.1-40.4l12,3.8
				C364.5,321,361.4,353.4,361.2,355.3z"/>
			<path id="XMLID_76_" class="st64" d="M362,356.3c0,0.2-10.7,0.2-10.7-0.1c-0.2-1.9,0-6.3-0.1-7.4h11.3
				C362.2,350.8,362.1,355,362,356.3z"/>
			<g>
				<path id="XMLID_75_" class="st65" d="M349.2,353.4c0.1-0.6,0.5-1.3,0.7-2c0.2-0.5,4.9-0.5,5,0.7c0,0.3,0,0.6,0,0.8
					c0.8,0,1.7,0,2.6-0.1c2-0.1,3.8-0.3,5.1-0.5c0.1,1.8,0,5.1,0.1,7.1c0,0-21.2,4.3-24.6,1.3C337.2,359.9,342.5,355.9,349.2,353.4z
					"/>
				<path id="XMLID_74_" class="st66" d="M362.7,358.1c0,0.5,0,0.9,0,1.3c0,0-21.2,4.3-24.6,1.3c-0.1-0.1-0.1-0.3,0-0.5
					C344,361.3,357.4,359.1,362.7,358.1z"/>
				<path class="st46" d="M350.7,355.1c0.1,0.1,0.2,0.1,0.3,0.1c0.1,0,0.1,0,0.2-0.1c0.1-0.1,0.2-0.3,0.1-0.4
					c-0.8-1.1-2.3-1.6-3.5-1.3c-0.2,0-0.3,0.2-0.2,0.4c0,0.2,0.2,0.3,0.4,0.2C348.8,353.7,350,354.2,350.7,355.1z M349.2,355.9
					c0.1,0.1,0.1,0.1,0.2,0.1c0.1,0,0.1,0,0.2-0.1c0.1-0.1,0.1-0.3,0-0.4c-1-1-2.2-1.4-3.5-1.3c-0.2,0-0.3,0.2-0.3,0.3
					c0,0.2,0.2,0.3,0.3,0.3C346.8,354.7,348,354.7,349.2,355.9z M344.1,355.4c0,0.2,0.2,0.3,0.3,0.2c1-0.2,2.3,0.3,3.2,1.1
					c0.1,0.1,0.1,0.1,0.2,0.1c0.1,0,0.1,0,0.2-0.1c0.1-0.1,0.1-0.3,0-0.4c-1-1-2.5-1.5-3.7-1.2C344.2,355.1,344.1,355.2,344.1,355.4
					z"/>
			</g>
		</g>
		<path id="XMLID_70_" class="st96" d="M349,328.4c1.7,0.4,13.3,0.9,15.5,0.9c0.5-4.7,0.7-6.9,1.5-12.9c0.2-1.7,2.4-1.8,2.7,0
			c0.2,1.1,0.8,6.2,1.7,12.9c3.6,0.2,12.8-0.5,15.9-1.2c0,0-2-25.4-2.6-32.2c-6-0.7-26.5-0.7-32.9,0
			C350.2,302.3,349.6,318.6,349,328.4z"/>
		<path id="XMLID_69_" class="st84" d="M384.9,309.5c-0.3-5-1.2-12.1-1.2-13.7c-6-0.7-26.3-0.7-32.8,0c-0.4,2.2-0.6,7.4-0.8,13.7
			C358.8,312.7,375.1,312.8,384.9,309.5z"/>
		<polygon id="XMLID_68_" class="st97" points="357.2,271.7 374.3,270.8 374.1,265.6 357.4,266.5 		"/>
		<path id="XMLID_67_" class="st35" d="M346.8,272.3c-1.3,0.9-2.7,9-3.6,15.4c2.3,1.5,9.5,5.5,10.9,5c-0.2-2.6-1.1-8-1.3-13.8
			c1.6-3.6,4.8-9.9,4.7-10.2C350.8,270.2,347.7,271.7,346.8,272.3z"/>
		<path id="XMLID_66_" class="st35" d="M394,280c-2.3,2.5-3.4,6.3-6.1,7.6c-1-1-7-5.3-8.3-7c-4.4-5.8-4.7-11.3-4.8-11.6
			c3.3-0.3,6-0.4,7.1,0C384.3,270.9,389.9,276,394,280z"/>
		<path id="XMLID_65_" class="st98" d="M384,304c-7.7,5.5-23.3,5.8-33.3,1.4c0,0,1.6-28.5,2.5-35.2c6.6-2.3,19.1-2.5,25.3-1.7
			C379.9,276.9,382.3,291.5,384,304z"/>
		<path id="XMLID_64_" class="st5" d="M357.7,270.1c0-0.4,0-0.8,0.1-1.3c4.4-0.5,11-1,15.8-0.8c0,0.2,0.1,0.4,0.2,0.5
			c0.3,3.3-3,6.4-7.4,6.8C361.9,275.8,358,273.4,357.7,270.1z"/>
		<path id="XMLID_63_" class="st35" d="M360.5,309.4c0.2,0-8-0.1-10.9-1.1c0,0,1-30.6,1.6-38c1.5-0.5,3.8-1,6-1.4
			c0.8-0.1,1.7,3.4,2.5,3.3L360.5,309.4z"/>
		<path id="XMLID_62_" class="st35" d="M372.3,271.8c0.6-0.9,1.7-2.9,1.7-3.9c2.6,0.1,6.2,0.7,7.8,0.9c1.4,8.7,1.7,24.6,3.5,37.4
			c-2.5,1.6-6.6,2.4-11.1,2.7L372.3,271.8z"/>
		<path id="XMLID_61_" class="st27" d="M359.5,260.5l0.4,9.8c0.1,2.1,2.8,3.7,6.1,3.6c3.3-0.1,5.9-1.9,5.8-4l-0.4-9.8L359.5,260.5z"
			/>
		<g>
			<path id="XMLID_60_" class="st99" d="M355.3,274.8c0-1.4-0.1-5.2,0.2-6.1c0,0,1.8-2.2,2-2.3c-0.6,1.5-0.3,3.6,2.4,6
				C358.7,272.2,356.4,273.9,355.3,274.8z"/>
			<path id="XMLID_59_" class="st97" d="M359.8,272.5l-2.8-2.1l0.4-1.1c0,0,1.3,1.1,1.9,1.7C359.5,271.2,359.8,272.5,359.8,272.5z"
				/>
			<path id="XMLID_58_" class="st35" d="M355.8,274c-0.2-1.2-0.6-4.4-0.3-5.3c0,0,1.8-2.2,2-2.3c-0.2,1.5,0.9,3.4,1.8,4.4
				C358.2,270.6,356.6,273.2,355.8,274z"/>
		</g>
		<g>
			<path id="XMLID_57_" class="st99" d="M377.1,273.8c-0.1-1.4-0.5-5.3-0.9-6.1c0,0-2.3-2.1-2.5-2.3c0.8,1.4,0.9,3.7-1.4,6.4
				C373.3,271.4,375.8,273,377.1,273.8z"/>
			<path id="XMLID_56_" class="st97" d="M372.3,271.8l2.6-2.4l-0.5-1.1c0,0-1.2,1.3-1.7,1.8C372.4,270.5,372.3,271.8,372.3,271.8z"
				/>
			<path id="XMLID_55_" class="st35" d="M376.5,272.9c0.1-1.2,0.1-4.5-0.2-5.3c0,0-2.3-2.1-2.5-2.3c0.8,1.4-0.2,3.6-1,4.8
				C373.7,269.8,375.6,272.2,376.5,272.9z"/>
		</g>
		<path id="XMLID_54_" class="st100" d="M359.8,262.3c0.1-0.4,0.3-0.8,0.5-1.2c4.3,0.9,10.7,2.7,15.2,4.4c0,0.2,0,0.4,0,0.6
			c-0.8,3.2-4.9,5-9.2,4C361.9,269,359,265.5,359.8,262.3z"/>
		<path id="XMLID_53_" class="st101" d="M372.6,277c3.7-0.1,6.4-0.3,8.7-0.5c0,0.1,0,0.3,0.1,0.4c-1.9,0.2-3.8,0.3-6.8,0.4
			c-0.7,0-1.3,0-2,0.1L372.6,277z"/>
		<path id="XMLID_52_" class="st101" d="M351.1,277.2c2,0.1,5,0.1,8.7,0.1l0,0.4c-3.7,0-6.7,0-8.7-0.1
			C351.1,277.5,351.1,277.3,351.1,277.2z"/>
		<g>
			<circle id="XMLID_51_" class="st102" cx="374.9" cy="274.5" r="0.7"/>
			<circle id="XMLID_50_" class="st102" cx="375.4" cy="284" r="0.7"/>
			<circle id="XMLID_49_" class="st102" cx="375.6" cy="300.7" r="0.7"/>
			<circle id="XMLID_48_" class="st102" cx="375.5" cy="291.5" r="0.7"/>
		</g>
		<g class="st103">
			
				<ellipse id="XMLID_47_" transform="matrix(-0.9986 5.216239e-002 -5.216239e-002 -0.9986 729.8917 550.8061)" class="st104" cx="357.8" cy="284.9" rx="0.9" ry="0.4"/>
			
				<ellipse id="XMLID_46_" transform="matrix(-0.9986 5.200486e-002 -5.200486e-002 -0.9986 728.4904 531.7006)" class="st104" cx="357.3" cy="275.3" rx="0.9" ry="0.4"/>
			
				<ellipse id="XMLID_45_" transform="matrix(-0.9986 5.216206e-002 -5.216206e-002 -0.9986 730.5283 565.6858)" class="st104" cx="357.9" cy="292.4" rx="0.9" ry="0.4"/>
			
				<ellipse id="XMLID_44_" transform="matrix(-0.9986 5.216467e-002 -5.216467e-002 -0.9986 731.3214 584.0704)" class="st104" cx="358" cy="301.6" rx="0.9" ry="0.4"/>
		</g>
		<g>
			<g>
				<path id="XMLID_43_" class="st6" d="M376.2,303.6l-24.9-1.6l-1.4-25.9l2.9-1.9c0.3-0.2,0.7-0.3,1.1-0.3h21.1
					c0.3,0,0.4,0.3,0.5,0.6l1.5,28.5C376.9,303.4,376.5,303.6,376.2,303.6z"/>
				<polygon id="XMLID_42_" class="st105" points="375.5,303.1 371.8,305.6 352,304 350.6,276.7 353.3,275 374,275.3 				"/>
				<path id="XMLID_41_" class="st9" d="M373,306.2l-21.7-1.7l-1.5-28.4l21.8,0.6c0.5,0,0.8,0.4,0.8,0.9l1.4,27.7
					C374,305.8,373.6,306.2,373,306.2z"/>
				<path class="st75" d="M369.9,303.9c-0.1,0-0.2,0-0.3,0l-15.1-1.3c-0.8-0.1-1.6-0.8-1.6-1.6l-1.1-20.7c0-0.5,0.1-0.9,0.4-1.3
					c0.3-0.3,0.8-0.5,1.3-0.5l15.2,0.5c0.9,0,1.6,0.7,1.6,1.6l1.1,21.5c0,0.5-0.2,1-0.5,1.3C370.6,303.7,370.3,303.8,369.9,303.9z
					 M353.3,278.9c-0.3,0-0.6,0.2-0.8,0.4c-0.2,0.3-0.3,0.6-0.3,0.9l1.1,20.7c0,0.6,0.6,1.1,1.2,1.2l15.1,1.3c0.4,0,0.7-0.1,1-0.3
					c0.3-0.3,0.4-0.6,0.4-1l-1.1-21.5c0-0.7-0.6-1.2-1.2-1.2l-15.2-0.5C353.4,278.9,353.4,278.9,353.3,278.9z"/>
			</g>
			
				<rect id="XMLID_38_" x="356.7" y="291.1" transform="matrix(0.9893 0.1456 -0.1456 0.9893 46.744 -49.2357)" class="st27" width="6.2" height="7.3"/>
			<path id="XMLID_37_" class="st27" d="M371.8,299.3c-2.1,0.2-4.6,0.2-9-0.3c-3.2-0.3-3.9-2.8-3.5-4.5c0.2-1,3.5-5.7,5-6.4
				c1-0.5,3-1.4,3.2-1.3c1.1,0.6,0.1,2-1.5,2.9c-0.4,0.3-0.8,0.7-1.1,1.5c0.1,0.4,3.2-1.4,4.6-2c1.1-0.4,4.5-0.1,4.7,0.2
				c0.5,0.9-2.3,1.4-3.5,1.7c-0.4,0.1-1.4,0.7-2,1.2c0.9,0,2.6-0.2,3.2-0.3c1.2,0,3.8-0.5,4.2,0.3c0.3,0.6-1.3,1.2-3.4,1.7
				c-0.5,0.1-2.3,0.6-3.5,0.9c0,0.1,2.9,0,3.3-0.1c1.2-0.3,2.7-0.8,3.5,0.1c0.2,0.3-2.3,1.6-3.5,1.8c-0.6,0.1-1.8,0.3-3.2,0.4
				c0.9,0.1,2.5,0.2,2.8,0.2c1.7-0.7,2.4-0.9,3-0.2C375.2,297.5,372.8,299.2,371.8,299.3z"/>
			<path id="XMLID_36_" class="st35" d="M359.4,299c-6.5-0.4-8.7-0.7-13.1-1.8c-4.2-1-3.7-7-3.1-9.9c4.9,1,12.2,2.5,17.3,3.5
				C360.3,291.9,359.7,297.4,359.4,299z"/>
		</g>
		<g>
			<path id="XMLID_35_" class="st53" d="M394.4,246.3c-0.3,5.1-4,9-7.2,9.1c-3.2,0.1-4.5-3.8-4.7-8.6c-0.2-4.8,2.2-8.8,5.4-9
				C392.4,237.7,394.7,241.5,394.4,246.3z"/>
			<path id="XMLID_34_" class="st26" d="M393.3,232.2c1.1,17.1-9.7,25.6-25.6,26.6c-15.9,1-28-5.9-29.1-23.1
				c-1.1-17.1,10.3-21.9,26.1-22.9C380.6,211.9,392.2,215.1,393.3,232.2z"/>
			<path id="XMLID_33_" class="st27" d="M389.9,254.5c-0.9,7.4-9.3,13.4-16.2,13.8c-14.4,0.8-29.8-6.7-31.2-26.8
				c-1.3-20.1,9-21.3,23.1-22.2c9.4-0.6,17.3-0.9,21.6,5C389.8,228,390.4,250,389.9,254.5z"/>
			<ellipse id="XMLID_32_" class="st54" cx="355.9" cy="254.4" rx="3.8" ry="2.1"/>
			
				<ellipse id="XMLID_31_" transform="matrix(-0.9901 0.1404 -0.1404 -0.9901 803.8171 447.4129)" class="st54" cx="386.1" cy="252.1" rx="3.2" ry="1.9"/>
			<path id="XMLID_30_" class="st26" d="M384.3,206.5c0.6,2.3-0.4,4.4-2.4,6.2c1.2-3,1-6.7-2.4-11.1c-2,1.9-4.2,3.8-6.3,5.8
				c0.1-1.2,0-2.5-0.4-4c-3.3,4.9-7.1,5-19.3,8.7c-8.3,2.5-9.7,8.2-8.4,11.3c5.7-1.7,14.2,0.8,20.4,0.4c7.8-0.5,13.7-2.3,16.6-4.7
				C385.7,216.2,388.3,210.8,384.3,206.5z"/>
			<g>
				<path id="XMLID_29_" class="st59" d="M377.5,241.9c-1.3,2.6-0.8,5.3,0.6,6.2c2.1,1.4,6.8,1.4,8.3-1c1.5-2.3,0.3-6.2-2.6-7.7
					C381.3,238.2,378.8,239.4,377.5,241.9z"/>
				<path id="XMLID_28_" class="st106" d="M386.1,240.4c-2.5-3.6-7.5-1.8-8.6,1.6c1.3-2.6,3.9-3.6,6.3-2.5c1.4,0.7,2.6,2.2,3,3.8
					c0.3,1.3,0.2,2.9-0.4,3.9C387.1,246.6,388,243.1,386.1,240.4z"/>
				<path id="XMLID_27_" class="st26" d="M378.2,243.5c-0.4,1.8,0.5,3.7,2,4.2c1.6,0.6,3.2-0.4,3.6-2.2c0.4-1.8-0.5-3.7-2-4.2
					C380.3,240.8,378.7,241.8,378.2,243.5z"/>
				<path id="XMLID_26_" class="st5" d="M378.5,243.2c-0.1,0.5,0.1,1,0.6,1.2c0.4,0.2,0.9-0.1,1-0.6c0.1-0.5-0.1-1-0.6-1.2
					C379,242.4,378.6,242.7,378.5,243.2z"/>
			</g>
			<g>
				<path id="XMLID_25_" class="st59" d="M365.7,243c1.9,2.3,1.9,5.1,0.5,6.2c-2.1,1.7-7.4,2.6-9.5,0.5c-2.1-2-1.5-6.1,1.5-8.1
					C360.7,240,363.8,240.7,365.7,243z"/>
				<path id="XMLID_24_" class="st106" d="M355.7,243.1c2.1-4,8.1-3.2,10,0c-1.9-2.3-5.1-2.8-7.5-1.2c-1.5,1-2.5,2.6-2.6,4.3
					c-0.1,1.4,0.3,2.9,1.2,3.7C355.8,249.3,354.2,246.1,355.7,243.1z"/>
				<circle id="XMLID_23_" class="st26" cx="361.1" cy="246.2" r="3.4"/>
				<circle id="XMLID_22_" class="st5" cx="359" cy="245.2" r="0.9"/>
			</g>
			<path id="XMLID_21_" class="st26" d="M385.5,232.3c-0.2,0.1-0.5,0-0.7-0.1c-1.8-1-4.8-0.7-6.9,0.7c-0.5,0.3-1.1,0.2-1.4-0.3
				c-0.3-0.5-0.2-1.1,0.3-1.4c2.7-1.8,6.5-2.1,9-0.8c0.5,0.3,0.7,0.9,0.4,1.4C386,232,385.7,232.2,385.5,232.3z"/>
			<path id="XMLID_20_" class="st26" d="M354.1,235c-0.3,0-0.6-0.1-0.8-0.3c-0.4-0.4-0.3-1.1,0.1-1.5c2.1-1.9,5.9-2.4,9-1.2
				c0.5,0.2,0.8,0.8,0.6,1.3c-0.2,0.5-0.8,0.8-1.3,0.6c-2.4-0.9-5.3-0.5-6.9,0.9C354.6,234.9,354.3,235,354.1,235z"/>
			<g>
				<path id="XMLID_19_" class="st55" d="M380.2,254.2c-0.5-1.8-3.3-1.2-7.9-1c-0.2,0-1.2,0.1-1.4,0.1c-4.7,0.3-7.5-0.1-7.8,1.8
					c-0.5,3.6,4.2,7.3,8.9,7.1l0.1,0C376.8,261.9,381.1,257.8,380.2,254.2z"/>
				<path id="XMLID_18_" class="st56" d="M372.1,262.2L372.1,262.2c-1.6,0.1-3.2-0.3-4.8-1l-0.1,0l0.1-0.1c1.2-1.2,2.8-1.9,4.6-2
					c1.8-0.1,3.5,0.4,4.8,1.5l0.1,0.1l-0.1,0.1C375.2,261.6,373.6,262.1,372.1,262.2z"/>
				<path id="XMLID_17_" class="st5" d="M371.7,255.6c-3.3,0.2-6-0.7-6.4-2l0-0.1l12.7-0.7l0,0.1
					C377.6,254.3,374.9,255.5,371.7,255.6z"/>
			</g>
			<path id="XMLID_16_" class="st57" d="M374.4,250.6c-0.1,0-0.2-0.1-0.2-0.2c-0.2-0.8-0.9-1.3-1.7-1.2c-0.9,0.1-1.5,0.6-1.6,1.5
				c0,0.1-0.1,0.2-0.3,0.2c-0.1,0-0.2-0.1-0.2-0.3c0.1-1,0.9-1.8,2-1.9c1.1-0.1,2,0.6,2.2,1.6C374.7,250.4,374.6,250.5,374.4,250.6
				L374.4,250.6z"/>
			<path id="XMLID_15_" class="st26" d="M350.3,236.9c0.3,8.4-2.4,14-6,14.2c-3.6,0.2-6.9-9.7-7.4-18.1c-0.6-9.6,4.2-13.8,7.8-14.6
				C348.2,217.5,349.9,227.3,350.3,236.9z"/>
			<path id="XMLID_14_" class="st27" d="M337.5,253.4c2,5.3,7.7,8.2,11.6,7.2c3.9-1,1.7-17.2-5.7-17.8
				C337.3,242.3,335.6,248.4,337.5,253.4z"/>
			<path id="XMLID_13_" class="st47" d="M341.9,252.7c0.6,2.3,3.4,4,5.2,3.1c0.7-0.3-1.4-8.3-2.6-8.1
				C342.5,247.9,341.3,250.4,341.9,252.7z"/>
		</g>
		<g>
			<g>
				<path id="XMLID_12_" class="st0" d="M396.1,280.2l-13.4,0.7l1.6,18.1c0.3,0.9,3,1.5,6.2,1.3c3.2-0.2,5.8-1.1,6-2.1L396.1,280.2z
					"/>
				<path id="XMLID_11_" class="st107" d="M383,284.9c1.4,0.1,3.5-0.2,5.8-0.8c3.4-0.8,6-1.9,7.3-2.8l0-1.1l-13.4,0.7L383,284.9z"/>
				<path id="XMLID_10_" class="st0" d="M381.5,278.6l0.1,2.3c0.1,1.3,3.6,2.1,7.8,1.8c4.2-0.3,7.6-1.5,7.5-2.7l-0.1-2.2
					L381.5,278.6z"/>
				<path id="XMLID_9_" class="st108" d="M396.9,277.8c0.1,1.3-3.3,2.4-7.6,2.7c-4.2,0.3-7.7-0.6-7.8-1.9c-0.1-1.3,3.3-2.4,7.5-2.7
					C393.3,275.7,396.8,276.6,396.9,277.8z"/>
				
					<ellipse id="XMLID_8_" transform="matrix(0.9986 -5.211469e-002 5.211469e-002 0.9986 -13.9394 20.6792)" class="st109" cx="389.6" cy="277.6" rx="1.3" ry="0.3"/>
				<path id="XMLID_7_" class="st110" d="M389.5,277.9c0.5,0,0.8,0,0.8-0.5l-0.6-12.4c0-0.4-0.3-0.8-0.7-0.8l-4.7-1
					c-0.5-0.1-1,0.2-1.1,0.7c-0.1,0.5,0.2,1,0.7,1.1l4,0.9l0.6,11.8C388.5,277.9,388.7,277.9,389.5,277.9z"/>
				<path id="XMLID_6_" class="st111" d="M393.2,288.7c0,0.8-1.4,1.6-3.2,1.7c-1.8,0.1-3.3-0.5-3.4-1.3c0-0.8,1.4-1.6,3.2-1.7
					C391.7,287.3,393.2,287.9,393.2,288.7z"/>
			</g>
			<g>
				<path id="XMLID_5_" class="st27" d="M396.6,287c-2,0.1-3.5,0.9-3.5,1.9c0.1,1,1.7,1.7,3.7,1.6c2-0.1,3.5-0.9,3.5-1.9
					C400.3,287.6,398.6,286.9,396.6,287z"/>
				<path id="XMLID_4_" class="st27" d="M395.8,284.5c-2,0.3-3.3,1.4-3.1,2.3c0.2,1,2,1.5,3.9,1.1c2-0.3,3.3-1.4,3.1-2.3
					C399.6,284.7,397.8,284.2,395.8,284.5z"/>
				<path id="XMLID_3_" class="st27" d="M396.4,289.7c-1.8-0.2-3.4,0.3-3.5,1.3c-0.1,0.9,1.3,1.9,3.1,2.1s3.4-0.3,3.5-1.3
					C399.6,290.8,398.3,289.9,396.4,289.7z"/>
				<path id="XMLID_2_" class="st27" d="M396.4,292.6c-1.5-0.4-3-0.2-3.2,0.6c-0.3,0.8,0.7,1.8,2.3,2.2c1.5,0.4,3,0.2,3.2-0.6
					C398.9,294.1,397.9,293.1,396.4,292.6z"/>
			</g>
			<path id="XMLID_1_" class="st27" d="M384.9,286.7c-1.3-0.4-2.5,0-2.8,0.9c-0.3,0.9,0.5,1.9,1.8,2.3c1.3,0.4,2.5-0.1,2.8-0.9
				C387,288.2,386.2,287.1,384.9,286.7z"/>
		</g>
	</g>
</g>
</svg>
